G75*
G70*
%OFA0B0*%
%FSLAX24Y24*%
%IPPOS*%
%LPD*%
%AMOC8*
5,1,8,0,0,1.08239X$1,22.5*
%
%ADD10C,0.1490*%
%ADD11C,0.0789*%
%ADD12C,0.1025*%
%ADD13C,0.0710*%
%ADD14O,0.0560X0.1040*%
%ADD15R,0.0190X0.0671*%
%ADD16R,0.0671X0.0190*%
%ADD17R,0.0946X0.0316*%
%ADD18R,0.0960X0.0560*%
%ADD19R,0.0946X0.1497*%
%ADD20R,0.1222X0.1064*%
%ADD21C,0.0620*%
%ADD22R,0.0620X0.0620*%
%ADD23C,0.0980*%
%ADD24OC8,0.0560*%
%ADD25R,0.0395X0.0395*%
%ADD26R,0.0880X0.0340*%
%ADD27R,0.0789X0.0867*%
%ADD28R,0.0316X0.0552*%
%ADD29OC8,0.0680*%
%ADD30R,0.1080X0.0980*%
%ADD31C,0.0540*%
%ADD32R,0.2830X0.0980*%
%ADD33C,0.1390*%
%ADD34C,0.0740*%
%ADD35O,0.1460X0.0770*%
%ADD36C,0.1360*%
%ADD37C,0.1280*%
%ADD38C,0.1180*%
%ADD39R,0.1104X0.0946*%
%ADD40C,0.0380*%
%ADD41C,0.0882*%
%ADD42C,0.0995*%
%ADD43C,0.0460*%
%ADD44C,0.0560*%
D10*
X001391Y001351D03*
X015891Y001351D03*
X015891Y048851D03*
X001391Y048851D03*
D11*
X010389Y023601D03*
X011891Y023601D03*
X011891Y020853D03*
X014393Y026849D03*
X012141Y009101D03*
X012141Y007601D03*
X012141Y006101D03*
X010141Y007601D03*
D12*
X010141Y010349D03*
X010141Y004853D03*
X010389Y022101D03*
X010389Y025101D03*
D13*
X013641Y022101D03*
X015641Y025101D03*
X015641Y009101D03*
X013641Y006101D03*
D14*
X008891Y012351D03*
X007891Y012351D03*
X006891Y012351D03*
X005891Y012351D03*
X005891Y015351D03*
X006891Y015351D03*
X007891Y015351D03*
X008891Y015351D03*
D15*
X008830Y037817D03*
X008633Y037817D03*
X008436Y037817D03*
X008240Y037817D03*
X008043Y037817D03*
X007846Y037817D03*
X007649Y037817D03*
X007452Y037817D03*
X007255Y037817D03*
X007058Y037817D03*
X006862Y037817D03*
X006665Y037817D03*
X006665Y042384D03*
X006862Y042384D03*
X007058Y042384D03*
X007255Y042384D03*
X007452Y042384D03*
X007649Y042384D03*
X007846Y042384D03*
X008043Y042384D03*
X008240Y042384D03*
X008436Y042384D03*
X008633Y042384D03*
X008830Y042384D03*
X009027Y042384D03*
X009224Y042384D03*
X009421Y042384D03*
X009617Y042384D03*
X009617Y037817D03*
X009421Y037817D03*
X009224Y037817D03*
X009027Y037817D03*
D16*
X010425Y038624D03*
X010425Y038821D03*
X010425Y039018D03*
X010425Y039215D03*
X010425Y039412D03*
X010425Y039609D03*
X010425Y039806D03*
X010425Y040002D03*
X010425Y040199D03*
X010425Y040396D03*
X010425Y040593D03*
X010425Y040790D03*
X010425Y040987D03*
X010425Y041183D03*
X010425Y041380D03*
X010425Y041577D03*
X005858Y041577D03*
X005858Y041380D03*
X005858Y041183D03*
X005858Y040987D03*
X005858Y040790D03*
X005858Y040593D03*
X005858Y040396D03*
X005858Y040199D03*
X005858Y040002D03*
X005858Y039806D03*
X005858Y039609D03*
X005858Y039412D03*
X005858Y039215D03*
X005858Y039018D03*
X005858Y038821D03*
X005858Y038624D03*
D17*
X007367Y036011D03*
X007367Y035511D03*
X007367Y035011D03*
X007367Y034511D03*
X009415Y034511D03*
X009415Y035011D03*
X009415Y035511D03*
X009415Y036011D03*
X008860Y014591D03*
X008860Y014091D03*
X008860Y013591D03*
X008860Y013091D03*
X006812Y013091D03*
X006812Y013591D03*
X006812Y014091D03*
X006812Y014591D03*
D18*
X007611Y022691D03*
X007611Y023601D03*
X007611Y024511D03*
D19*
X005171Y023601D03*
D20*
X005862Y020851D03*
X008421Y020851D03*
X005891Y043351D03*
X003332Y043351D03*
D21*
X007941Y046851D03*
X008441Y045851D03*
X008741Y046851D03*
X009241Y045851D03*
X009541Y046851D03*
X011821Y045226D03*
X011821Y044246D03*
X011821Y043456D03*
X011821Y042476D03*
D22*
X007641Y045851D03*
D23*
X006241Y047801D03*
X011041Y047801D03*
D24*
X013391Y038101D03*
X013391Y037101D03*
X014391Y037101D03*
X014391Y038101D03*
X004271Y015501D03*
X004271Y009501D03*
D25*
X005391Y007401D03*
X005391Y006801D03*
X006091Y009851D03*
X006091Y010851D03*
X006691Y010851D03*
X006691Y009851D03*
X007591Y007601D03*
X007591Y006851D03*
X007591Y005601D03*
X007591Y004851D03*
X008191Y004851D03*
X008191Y005601D03*
X008191Y006851D03*
X008191Y007601D03*
X009841Y016601D03*
X010441Y016601D03*
X006691Y018601D03*
X006091Y018601D03*
X006141Y032551D03*
X006141Y033151D03*
X004791Y039571D03*
X004791Y040171D03*
X004191Y048351D03*
X003591Y048351D03*
X008201Y044601D03*
X008801Y044601D03*
X009591Y043851D03*
X010191Y043851D03*
X010231Y042491D03*
X010831Y042491D03*
X010761Y036241D03*
X010761Y035641D03*
X009641Y033801D03*
X009641Y033201D03*
X013391Y035551D03*
X013391Y036151D03*
X014391Y036151D03*
X014391Y035551D03*
D26*
X004601Y019601D03*
X004601Y019101D03*
X004601Y018601D03*
X004601Y018101D03*
X004601Y017601D03*
X004601Y017101D03*
X004601Y016601D03*
X002181Y016601D03*
X002181Y017101D03*
X002181Y017601D03*
X002181Y018101D03*
X002181Y018601D03*
X002181Y019101D03*
X002181Y019601D03*
D27*
X002387Y045274D03*
X002387Y046928D03*
X004395Y046928D03*
X004395Y045274D03*
D28*
X007767Y033812D03*
X008141Y033812D03*
X008515Y033812D03*
X008535Y032710D03*
X007767Y032710D03*
D29*
X003641Y032601D03*
X003641Y033601D03*
X003641Y034601D03*
X003641Y035601D03*
X003641Y036601D03*
X003641Y037601D03*
X003641Y038601D03*
X003641Y039601D03*
X003641Y040601D03*
X002641Y040601D03*
X002641Y039601D03*
X002641Y038601D03*
X002641Y037601D03*
X002641Y036601D03*
X002641Y035601D03*
X002641Y034601D03*
X002641Y033601D03*
X002641Y032601D03*
X002641Y031601D03*
X002641Y030601D03*
X002641Y029601D03*
X002641Y028601D03*
X002641Y027601D03*
X002641Y026601D03*
X002641Y025601D03*
X002641Y024601D03*
X002641Y023601D03*
X002641Y022601D03*
X002641Y021601D03*
X003641Y021601D03*
X003641Y022601D03*
X003641Y023601D03*
X003641Y024601D03*
X003641Y025601D03*
X003641Y026601D03*
X003641Y027601D03*
X003641Y028601D03*
X003641Y029601D03*
X003641Y030601D03*
X003641Y031601D03*
D30*
X013891Y033851D03*
X015641Y033851D03*
D31*
X014641Y032351D03*
X016491Y032351D03*
D32*
X014766Y030851D03*
D33*
X012891Y041266D03*
X012891Y046436D03*
D34*
X012141Y029601D03*
X016141Y029601D03*
D35*
X013841Y017751D03*
X013841Y013351D03*
D36*
X013841Y015551D03*
D37*
X011941Y015551D03*
D38*
X015141Y017251D03*
X015141Y013851D03*
D39*
X015875Y039671D03*
X013907Y039671D03*
D40*
X011341Y038461D03*
X010991Y038251D03*
X010501Y037271D03*
X010221Y037621D03*
X009451Y036711D03*
X008421Y038631D03*
X007701Y039021D03*
X009381Y040071D03*
X009241Y041541D03*
X010201Y042101D03*
X009211Y043851D03*
X008161Y042971D03*
X008121Y045181D03*
X005251Y039791D03*
X004691Y039161D03*
X005531Y038111D03*
X006141Y033531D03*
X005741Y029081D03*
X005461Y028801D03*
X005741Y028521D03*
X005461Y028241D03*
X005811Y027961D03*
X005461Y027681D03*
X005951Y027051D03*
X005601Y026771D03*
X004481Y025021D03*
X003501Y020051D03*
X003911Y018601D03*
X003001Y017131D03*
X002441Y016221D03*
X001611Y015921D03*
X003221Y014521D03*
X003501Y014871D03*
X005391Y017111D03*
X006021Y014311D03*
X006651Y016621D03*
X006651Y017601D03*
X007071Y018601D03*
X005391Y007781D03*
X003221Y003881D03*
X003151Y003461D03*
X007601Y006261D03*
X002591Y020051D03*
X002171Y019981D03*
X001541Y027821D03*
X001261Y028101D03*
X001611Y028381D03*
X001611Y037901D03*
X001611Y038531D03*
X001331Y038181D03*
X002941Y041401D03*
X008141Y033351D03*
X009241Y033211D03*
D41*
X008571Y023601D03*
D42*
X008391Y019601D03*
X015731Y034911D03*
D43*
X014281Y038951D03*
X015121Y042451D03*
X015891Y040421D03*
X010771Y035181D03*
X008541Y032091D03*
X008121Y035521D03*
X008121Y036321D03*
X010571Y027681D03*
X004641Y048351D03*
D44*
X005191Y045241D03*
X006791Y043361D03*
X006791Y041331D03*
X002661Y042521D03*
M02*
