G75*
G70*
%OFA0B0*%
%FSLAX24Y24*%
%IPPOS*%
%LPD*%
%AMOC8*
5,1,8,0,0,1.08239X$1,22.5*
%
%ADD10C,0.0000*%
%ADD11C,0.0040*%
%ADD12C,0.0060*%
%ADD13R,0.5250X0.1500*%
%ADD14C,0.0100*%
%ADD15C,0.0080*%
%ADD16C,0.0050*%
%ADD17R,0.0079X0.0473*%
%ADD18R,0.0473X0.0079*%
%ADD19C,0.0030*%
%ADD20C,0.0070*%
%ADD21C,0.0020*%
%ADD22C,0.0120*%
%ADD23R,0.0240X0.0340*%
%ADD24C,0.0240*%
%ADD25R,0.0200X0.1000*%
%ADD26R,0.0750X0.0300*%
D10*
X000141Y020101D02*
X000141Y000101D01*
X017141Y000101D01*
X017141Y050101D01*
X000141Y050101D01*
X000141Y027101D01*
X001141Y026101D01*
X001141Y021101D01*
X000141Y020101D01*
X000686Y001351D02*
X000689Y001415D01*
X000698Y001479D01*
X000712Y001541D01*
X000732Y001602D01*
X000758Y001661D01*
X000789Y001717D01*
X000824Y001771D01*
X000865Y001820D01*
X000910Y001866D01*
X000959Y001908D01*
X001011Y001945D01*
X001067Y001977D01*
X001125Y002004D01*
X001185Y002025D01*
X001248Y002041D01*
X001311Y002051D01*
X001375Y002056D01*
X001439Y002054D01*
X001503Y002047D01*
X001566Y002034D01*
X001627Y002015D01*
X001687Y001991D01*
X001743Y001962D01*
X001798Y001927D01*
X001848Y001888D01*
X001895Y001844D01*
X001938Y001796D01*
X001976Y001744D01*
X002009Y001690D01*
X002038Y001632D01*
X002060Y001572D01*
X002078Y001510D01*
X002089Y001447D01*
X002095Y001383D01*
X002095Y001319D01*
X002089Y001255D01*
X002078Y001192D01*
X002060Y001130D01*
X002038Y001070D01*
X002009Y001012D01*
X001976Y000958D01*
X001938Y000906D01*
X001895Y000858D01*
X001848Y000814D01*
X001798Y000775D01*
X001744Y000740D01*
X001687Y000711D01*
X001627Y000687D01*
X001566Y000668D01*
X001503Y000655D01*
X001439Y000648D01*
X001375Y000646D01*
X001311Y000651D01*
X001248Y000661D01*
X001185Y000677D01*
X001125Y000698D01*
X001067Y000725D01*
X001011Y000757D01*
X000959Y000794D01*
X000910Y000836D01*
X000865Y000882D01*
X000824Y000931D01*
X000789Y000985D01*
X000758Y001041D01*
X000732Y001100D01*
X000712Y001161D01*
X000698Y001223D01*
X000689Y001287D01*
X000686Y001351D01*
X013326Y006101D02*
X013328Y006137D01*
X013334Y006172D01*
X013344Y006207D01*
X013358Y006240D01*
X013376Y006271D01*
X013397Y006300D01*
X013421Y006327D01*
X013449Y006350D01*
X013478Y006371D01*
X013510Y006388D01*
X013544Y006401D01*
X013578Y006410D01*
X013614Y006415D01*
X013650Y006416D01*
X013686Y006413D01*
X013721Y006406D01*
X013755Y006395D01*
X013788Y006380D01*
X013819Y006361D01*
X013847Y006339D01*
X013873Y006314D01*
X013896Y006286D01*
X013915Y006256D01*
X013931Y006224D01*
X013943Y006190D01*
X013951Y006155D01*
X013955Y006119D01*
X013955Y006083D01*
X013951Y006047D01*
X013943Y006012D01*
X013931Y005978D01*
X013915Y005946D01*
X013896Y005916D01*
X013873Y005888D01*
X013847Y005863D01*
X013819Y005841D01*
X013788Y005822D01*
X013755Y005807D01*
X013721Y005796D01*
X013686Y005789D01*
X013650Y005786D01*
X013614Y005787D01*
X013578Y005792D01*
X013544Y005801D01*
X013510Y005814D01*
X013478Y005831D01*
X013449Y005852D01*
X013421Y005875D01*
X013397Y005902D01*
X013376Y005931D01*
X013358Y005962D01*
X013344Y005995D01*
X013334Y006030D01*
X013328Y006065D01*
X013326Y006101D01*
X015326Y009101D02*
X015328Y009137D01*
X015334Y009172D01*
X015344Y009207D01*
X015358Y009240D01*
X015376Y009271D01*
X015397Y009300D01*
X015421Y009327D01*
X015449Y009350D01*
X015478Y009371D01*
X015510Y009388D01*
X015544Y009401D01*
X015578Y009410D01*
X015614Y009415D01*
X015650Y009416D01*
X015686Y009413D01*
X015721Y009406D01*
X015755Y009395D01*
X015788Y009380D01*
X015819Y009361D01*
X015847Y009339D01*
X015873Y009314D01*
X015896Y009286D01*
X015915Y009256D01*
X015931Y009224D01*
X015943Y009190D01*
X015951Y009155D01*
X015955Y009119D01*
X015955Y009083D01*
X015951Y009047D01*
X015943Y009012D01*
X015931Y008978D01*
X015915Y008946D01*
X015896Y008916D01*
X015873Y008888D01*
X015847Y008863D01*
X015819Y008841D01*
X015788Y008822D01*
X015755Y008807D01*
X015721Y008796D01*
X015686Y008789D01*
X015650Y008786D01*
X015614Y008787D01*
X015578Y008792D01*
X015544Y008801D01*
X015510Y008814D01*
X015478Y008831D01*
X015449Y008852D01*
X015421Y008875D01*
X015397Y008902D01*
X015376Y008931D01*
X015358Y008962D01*
X015344Y008995D01*
X015334Y009030D01*
X015328Y009065D01*
X015326Y009101D01*
X014591Y013851D02*
X014593Y013901D01*
X014600Y013951D01*
X014611Y013999D01*
X014627Y014047D01*
X014647Y014093D01*
X014671Y014137D01*
X014699Y014178D01*
X014731Y014217D01*
X014766Y014253D01*
X014804Y014285D01*
X014845Y014314D01*
X014888Y014339D01*
X014933Y014360D01*
X014981Y014377D01*
X015029Y014389D01*
X015079Y014397D01*
X015128Y014401D01*
X015179Y014400D01*
X015228Y014394D01*
X015277Y014384D01*
X015325Y014369D01*
X015372Y014350D01*
X015416Y014327D01*
X015458Y014300D01*
X015498Y014270D01*
X015534Y014235D01*
X015568Y014198D01*
X015597Y014158D01*
X015623Y014115D01*
X015645Y014070D01*
X015663Y014023D01*
X015677Y013975D01*
X015686Y013926D01*
X015690Y013876D01*
X015690Y013826D01*
X015686Y013776D01*
X015677Y013727D01*
X015663Y013679D01*
X015645Y013632D01*
X015623Y013587D01*
X015597Y013544D01*
X015568Y013504D01*
X015534Y013467D01*
X015498Y013432D01*
X015458Y013402D01*
X015416Y013375D01*
X015372Y013352D01*
X015325Y013333D01*
X015277Y013318D01*
X015228Y013308D01*
X015179Y013302D01*
X015128Y013301D01*
X015079Y013305D01*
X015029Y013313D01*
X014981Y013325D01*
X014933Y013342D01*
X014888Y013363D01*
X014845Y013388D01*
X014804Y013417D01*
X014766Y013449D01*
X014731Y013485D01*
X014699Y013524D01*
X014671Y013565D01*
X014647Y013609D01*
X014627Y013655D01*
X014611Y013703D01*
X014600Y013751D01*
X014593Y013801D01*
X014591Y013851D01*
X014591Y017251D02*
X014593Y017301D01*
X014600Y017351D01*
X014611Y017399D01*
X014627Y017447D01*
X014647Y017493D01*
X014671Y017537D01*
X014699Y017578D01*
X014731Y017617D01*
X014766Y017653D01*
X014804Y017685D01*
X014845Y017714D01*
X014888Y017739D01*
X014933Y017760D01*
X014981Y017777D01*
X015029Y017789D01*
X015079Y017797D01*
X015128Y017801D01*
X015179Y017800D01*
X015228Y017794D01*
X015277Y017784D01*
X015325Y017769D01*
X015372Y017750D01*
X015416Y017727D01*
X015458Y017700D01*
X015498Y017670D01*
X015534Y017635D01*
X015568Y017598D01*
X015597Y017558D01*
X015623Y017515D01*
X015645Y017470D01*
X015663Y017423D01*
X015677Y017375D01*
X015686Y017326D01*
X015690Y017276D01*
X015690Y017226D01*
X015686Y017176D01*
X015677Y017127D01*
X015663Y017079D01*
X015645Y017032D01*
X015623Y016987D01*
X015597Y016944D01*
X015568Y016904D01*
X015534Y016867D01*
X015498Y016832D01*
X015458Y016802D01*
X015416Y016775D01*
X015372Y016752D01*
X015325Y016733D01*
X015277Y016718D01*
X015228Y016708D01*
X015179Y016702D01*
X015128Y016701D01*
X015079Y016705D01*
X015029Y016713D01*
X014981Y016725D01*
X014933Y016742D01*
X014888Y016763D01*
X014845Y016788D01*
X014804Y016817D01*
X014766Y016849D01*
X014731Y016885D01*
X014699Y016924D01*
X014671Y016965D01*
X014647Y017009D01*
X014627Y017055D01*
X014611Y017103D01*
X014600Y017151D01*
X014593Y017201D01*
X014591Y017251D01*
X013326Y022101D02*
X013328Y022137D01*
X013334Y022172D01*
X013344Y022207D01*
X013358Y022240D01*
X013376Y022271D01*
X013397Y022300D01*
X013421Y022327D01*
X013449Y022350D01*
X013478Y022371D01*
X013510Y022388D01*
X013544Y022401D01*
X013578Y022410D01*
X013614Y022415D01*
X013650Y022416D01*
X013686Y022413D01*
X013721Y022406D01*
X013755Y022395D01*
X013788Y022380D01*
X013819Y022361D01*
X013847Y022339D01*
X013873Y022314D01*
X013896Y022286D01*
X013915Y022256D01*
X013931Y022224D01*
X013943Y022190D01*
X013951Y022155D01*
X013955Y022119D01*
X013955Y022083D01*
X013951Y022047D01*
X013943Y022012D01*
X013931Y021978D01*
X013915Y021946D01*
X013896Y021916D01*
X013873Y021888D01*
X013847Y021863D01*
X013819Y021841D01*
X013788Y021822D01*
X013755Y021807D01*
X013721Y021796D01*
X013686Y021789D01*
X013650Y021786D01*
X013614Y021787D01*
X013578Y021792D01*
X013544Y021801D01*
X013510Y021814D01*
X013478Y021831D01*
X013449Y021852D01*
X013421Y021875D01*
X013397Y021902D01*
X013376Y021931D01*
X013358Y021962D01*
X013344Y021995D01*
X013334Y022030D01*
X013328Y022065D01*
X013326Y022101D01*
X015326Y025101D02*
X015328Y025137D01*
X015334Y025172D01*
X015344Y025207D01*
X015358Y025240D01*
X015376Y025271D01*
X015397Y025300D01*
X015421Y025327D01*
X015449Y025350D01*
X015478Y025371D01*
X015510Y025388D01*
X015544Y025401D01*
X015578Y025410D01*
X015614Y025415D01*
X015650Y025416D01*
X015686Y025413D01*
X015721Y025406D01*
X015755Y025395D01*
X015788Y025380D01*
X015819Y025361D01*
X015847Y025339D01*
X015873Y025314D01*
X015896Y025286D01*
X015915Y025256D01*
X015931Y025224D01*
X015943Y025190D01*
X015951Y025155D01*
X015955Y025119D01*
X015955Y025083D01*
X015951Y025047D01*
X015943Y025012D01*
X015931Y024978D01*
X015915Y024946D01*
X015896Y024916D01*
X015873Y024888D01*
X015847Y024863D01*
X015819Y024841D01*
X015788Y024822D01*
X015755Y024807D01*
X015721Y024796D01*
X015686Y024789D01*
X015650Y024786D01*
X015614Y024787D01*
X015578Y024792D01*
X015544Y024801D01*
X015510Y024814D01*
X015478Y024831D01*
X015449Y024852D01*
X015421Y024875D01*
X015397Y024902D01*
X015376Y024931D01*
X015358Y024962D01*
X015344Y024995D01*
X015334Y025030D01*
X015328Y025065D01*
X015326Y025101D01*
X014411Y032351D02*
X014413Y032382D01*
X014419Y032412D01*
X014429Y032441D01*
X014443Y032468D01*
X014460Y032494D01*
X014481Y032516D01*
X014505Y032536D01*
X014530Y032553D01*
X014558Y032566D01*
X014588Y032575D01*
X014618Y032580D01*
X014649Y032581D01*
X014679Y032578D01*
X014709Y032571D01*
X014738Y032560D01*
X014765Y032545D01*
X014789Y032527D01*
X014812Y032505D01*
X014831Y032481D01*
X014846Y032455D01*
X014858Y032426D01*
X014866Y032397D01*
X014870Y032366D01*
X014870Y032336D01*
X014866Y032305D01*
X014858Y032276D01*
X014846Y032247D01*
X014831Y032221D01*
X014812Y032197D01*
X014789Y032175D01*
X014765Y032157D01*
X014738Y032142D01*
X014709Y032131D01*
X014679Y032124D01*
X014649Y032121D01*
X014618Y032122D01*
X014588Y032127D01*
X014558Y032136D01*
X014530Y032149D01*
X014505Y032166D01*
X014481Y032186D01*
X014460Y032208D01*
X014443Y032234D01*
X014429Y032261D01*
X014419Y032290D01*
X014413Y032320D01*
X014411Y032351D01*
X016261Y032351D02*
X016263Y032382D01*
X016269Y032412D01*
X016279Y032441D01*
X016293Y032468D01*
X016310Y032494D01*
X016331Y032516D01*
X016355Y032536D01*
X016380Y032553D01*
X016408Y032566D01*
X016438Y032575D01*
X016468Y032580D01*
X016499Y032581D01*
X016529Y032578D01*
X016559Y032571D01*
X016588Y032560D01*
X016615Y032545D01*
X016639Y032527D01*
X016662Y032505D01*
X016681Y032481D01*
X016696Y032455D01*
X016708Y032426D01*
X016716Y032397D01*
X016720Y032366D01*
X016720Y032336D01*
X016716Y032305D01*
X016708Y032276D01*
X016696Y032247D01*
X016681Y032221D01*
X016662Y032197D01*
X016639Y032175D01*
X016615Y032157D01*
X016588Y032142D01*
X016559Y032131D01*
X016529Y032124D01*
X016499Y032121D01*
X016468Y032122D01*
X016438Y032127D01*
X016408Y032136D01*
X016380Y032149D01*
X016355Y032166D01*
X016331Y032186D01*
X016310Y032208D01*
X016293Y032234D01*
X016279Y032261D01*
X016269Y032290D01*
X016263Y032320D01*
X016261Y032351D01*
X010591Y047801D02*
X010593Y047844D01*
X010599Y047886D01*
X010609Y047928D01*
X010623Y047968D01*
X010641Y048007D01*
X010662Y048044D01*
X010687Y048079D01*
X010715Y048112D01*
X010746Y048141D01*
X010780Y048168D01*
X010816Y048191D01*
X010854Y048210D01*
X010894Y048226D01*
X010935Y048238D01*
X010977Y048246D01*
X011020Y048250D01*
X011062Y048250D01*
X011105Y048246D01*
X011147Y048238D01*
X011188Y048226D01*
X011228Y048210D01*
X011266Y048191D01*
X011302Y048168D01*
X011336Y048141D01*
X011367Y048112D01*
X011395Y048079D01*
X011420Y048044D01*
X011441Y048007D01*
X011459Y047968D01*
X011473Y047928D01*
X011483Y047886D01*
X011489Y047844D01*
X011491Y047801D01*
X011489Y047758D01*
X011483Y047716D01*
X011473Y047674D01*
X011459Y047634D01*
X011441Y047595D01*
X011420Y047558D01*
X011395Y047523D01*
X011367Y047490D01*
X011336Y047461D01*
X011302Y047434D01*
X011266Y047411D01*
X011228Y047392D01*
X011188Y047376D01*
X011147Y047364D01*
X011105Y047356D01*
X011062Y047352D01*
X011020Y047352D01*
X010977Y047356D01*
X010935Y047364D01*
X010894Y047376D01*
X010854Y047392D01*
X010816Y047411D01*
X010780Y047434D01*
X010746Y047461D01*
X010715Y047490D01*
X010687Y047523D01*
X010662Y047558D01*
X010641Y047595D01*
X010623Y047634D01*
X010609Y047674D01*
X010599Y047716D01*
X010593Y047758D01*
X010591Y047801D01*
X005791Y047801D02*
X005793Y047844D01*
X005799Y047886D01*
X005809Y047928D01*
X005823Y047968D01*
X005841Y048007D01*
X005862Y048044D01*
X005887Y048079D01*
X005915Y048112D01*
X005946Y048141D01*
X005980Y048168D01*
X006016Y048191D01*
X006054Y048210D01*
X006094Y048226D01*
X006135Y048238D01*
X006177Y048246D01*
X006220Y048250D01*
X006262Y048250D01*
X006305Y048246D01*
X006347Y048238D01*
X006388Y048226D01*
X006428Y048210D01*
X006466Y048191D01*
X006502Y048168D01*
X006536Y048141D01*
X006567Y048112D01*
X006595Y048079D01*
X006620Y048044D01*
X006641Y048007D01*
X006659Y047968D01*
X006673Y047928D01*
X006683Y047886D01*
X006689Y047844D01*
X006691Y047801D01*
X006689Y047758D01*
X006683Y047716D01*
X006673Y047674D01*
X006659Y047634D01*
X006641Y047595D01*
X006620Y047558D01*
X006595Y047523D01*
X006567Y047490D01*
X006536Y047461D01*
X006502Y047434D01*
X006466Y047411D01*
X006428Y047392D01*
X006388Y047376D01*
X006347Y047364D01*
X006305Y047356D01*
X006262Y047352D01*
X006220Y047352D01*
X006177Y047356D01*
X006135Y047364D01*
X006094Y047376D01*
X006054Y047392D01*
X006016Y047411D01*
X005980Y047434D01*
X005946Y047461D01*
X005915Y047490D01*
X005887Y047523D01*
X005862Y047558D01*
X005841Y047595D01*
X005823Y047634D01*
X005809Y047674D01*
X005799Y047716D01*
X005793Y047758D01*
X005791Y047801D01*
X000686Y048851D02*
X000689Y048915D01*
X000698Y048979D01*
X000712Y049041D01*
X000732Y049102D01*
X000758Y049161D01*
X000789Y049217D01*
X000824Y049271D01*
X000865Y049320D01*
X000910Y049366D01*
X000959Y049408D01*
X001011Y049445D01*
X001067Y049477D01*
X001125Y049504D01*
X001185Y049525D01*
X001248Y049541D01*
X001311Y049551D01*
X001375Y049556D01*
X001439Y049554D01*
X001503Y049547D01*
X001566Y049534D01*
X001627Y049515D01*
X001687Y049491D01*
X001743Y049462D01*
X001798Y049427D01*
X001848Y049388D01*
X001895Y049344D01*
X001938Y049296D01*
X001976Y049244D01*
X002009Y049190D01*
X002038Y049132D01*
X002060Y049072D01*
X002078Y049010D01*
X002089Y048947D01*
X002095Y048883D01*
X002095Y048819D01*
X002089Y048755D01*
X002078Y048692D01*
X002060Y048630D01*
X002038Y048570D01*
X002009Y048512D01*
X001976Y048458D01*
X001938Y048406D01*
X001895Y048358D01*
X001848Y048314D01*
X001798Y048275D01*
X001744Y048240D01*
X001687Y048211D01*
X001627Y048187D01*
X001566Y048168D01*
X001503Y048155D01*
X001439Y048148D01*
X001375Y048146D01*
X001311Y048151D01*
X001248Y048161D01*
X001185Y048177D01*
X001125Y048198D01*
X001067Y048225D01*
X001011Y048257D01*
X000959Y048294D01*
X000910Y048336D01*
X000865Y048382D01*
X000824Y048431D01*
X000789Y048485D01*
X000758Y048541D01*
X000732Y048600D01*
X000712Y048661D01*
X000698Y048723D01*
X000689Y048787D01*
X000686Y048851D01*
X015186Y048851D02*
X015189Y048915D01*
X015198Y048979D01*
X015212Y049041D01*
X015232Y049102D01*
X015258Y049161D01*
X015289Y049217D01*
X015324Y049271D01*
X015365Y049320D01*
X015410Y049366D01*
X015459Y049408D01*
X015511Y049445D01*
X015567Y049477D01*
X015625Y049504D01*
X015685Y049525D01*
X015748Y049541D01*
X015811Y049551D01*
X015875Y049556D01*
X015939Y049554D01*
X016003Y049547D01*
X016066Y049534D01*
X016127Y049515D01*
X016187Y049491D01*
X016243Y049462D01*
X016298Y049427D01*
X016348Y049388D01*
X016395Y049344D01*
X016438Y049296D01*
X016476Y049244D01*
X016509Y049190D01*
X016538Y049132D01*
X016560Y049072D01*
X016578Y049010D01*
X016589Y048947D01*
X016595Y048883D01*
X016595Y048819D01*
X016589Y048755D01*
X016578Y048692D01*
X016560Y048630D01*
X016538Y048570D01*
X016509Y048512D01*
X016476Y048458D01*
X016438Y048406D01*
X016395Y048358D01*
X016348Y048314D01*
X016298Y048275D01*
X016244Y048240D01*
X016187Y048211D01*
X016127Y048187D01*
X016066Y048168D01*
X016003Y048155D01*
X015939Y048148D01*
X015875Y048146D01*
X015811Y048151D01*
X015748Y048161D01*
X015685Y048177D01*
X015625Y048198D01*
X015567Y048225D01*
X015511Y048257D01*
X015459Y048294D01*
X015410Y048336D01*
X015365Y048382D01*
X015324Y048431D01*
X015289Y048485D01*
X015258Y048541D01*
X015232Y048600D01*
X015212Y048661D01*
X015198Y048723D01*
X015189Y048787D01*
X015186Y048851D01*
X015186Y001351D02*
X015189Y001415D01*
X015198Y001479D01*
X015212Y001541D01*
X015232Y001602D01*
X015258Y001661D01*
X015289Y001717D01*
X015324Y001771D01*
X015365Y001820D01*
X015410Y001866D01*
X015459Y001908D01*
X015511Y001945D01*
X015567Y001977D01*
X015625Y002004D01*
X015685Y002025D01*
X015748Y002041D01*
X015811Y002051D01*
X015875Y002056D01*
X015939Y002054D01*
X016003Y002047D01*
X016066Y002034D01*
X016127Y002015D01*
X016187Y001991D01*
X016243Y001962D01*
X016298Y001927D01*
X016348Y001888D01*
X016395Y001844D01*
X016438Y001796D01*
X016476Y001744D01*
X016509Y001690D01*
X016538Y001632D01*
X016560Y001572D01*
X016578Y001510D01*
X016589Y001447D01*
X016595Y001383D01*
X016595Y001319D01*
X016589Y001255D01*
X016578Y001192D01*
X016560Y001130D01*
X016538Y001070D01*
X016509Y001012D01*
X016476Y000958D01*
X016438Y000906D01*
X016395Y000858D01*
X016348Y000814D01*
X016298Y000775D01*
X016244Y000740D01*
X016187Y000711D01*
X016127Y000687D01*
X016066Y000668D01*
X016003Y000655D01*
X015939Y000648D01*
X015875Y000646D01*
X015811Y000651D01*
X015748Y000661D01*
X015685Y000677D01*
X015625Y000698D01*
X015567Y000725D01*
X015511Y000757D01*
X015459Y000794D01*
X015410Y000836D01*
X015365Y000882D01*
X015324Y000931D01*
X015289Y000985D01*
X015258Y001041D01*
X015232Y001100D01*
X015212Y001161D01*
X015198Y001223D01*
X015189Y001287D01*
X015186Y001351D01*
D11*
X009039Y001121D02*
X009039Y001641D01*
X008692Y001641D02*
X009039Y001121D01*
X008692Y001121D02*
X008692Y001641D01*
X008524Y001641D02*
X008177Y001121D01*
X008008Y001208D02*
X007921Y001121D01*
X007748Y001121D01*
X007661Y001208D01*
X007748Y001381D02*
X007921Y001381D01*
X008008Y001294D01*
X008008Y001208D01*
X007748Y001381D02*
X007661Y001468D01*
X007661Y001554D01*
X007748Y001641D01*
X007921Y001641D01*
X008008Y001554D01*
X008661Y003849D02*
X008661Y004022D01*
X008661Y003936D02*
X009094Y003936D01*
X009181Y003849D01*
X009181Y003762D01*
X009094Y003675D01*
X009181Y004191D02*
X009181Y004365D01*
X009181Y004278D02*
X008661Y004278D01*
X008747Y004191D01*
X008661Y008277D02*
X008661Y008624D01*
X008661Y008450D02*
X009181Y008450D01*
X009094Y008793D02*
X009181Y008879D01*
X009181Y009053D01*
X009094Y009140D01*
X008747Y009140D01*
X008661Y009053D01*
X008661Y008879D01*
X008747Y008793D01*
X009094Y008793D01*
X009008Y009824D02*
X008661Y009824D01*
X009008Y009824D02*
X009181Y009997D01*
X009008Y010171D01*
X008661Y010171D01*
X008661Y010339D02*
X008661Y010600D01*
X008747Y010686D01*
X009094Y010686D01*
X009181Y010600D01*
X009181Y010339D01*
X008661Y010339D01*
X008661Y010855D02*
X009094Y010855D01*
X009181Y010942D01*
X009181Y011115D01*
X009094Y011202D01*
X008661Y011202D01*
X006086Y013087D02*
X006086Y013241D01*
X006009Y013318D01*
X005626Y013318D01*
X005702Y013471D02*
X005626Y013548D01*
X005626Y013701D01*
X005702Y013778D01*
X005779Y013778D01*
X005856Y013701D01*
X005933Y013778D01*
X006009Y013778D01*
X006086Y013701D01*
X006086Y013548D01*
X006009Y013471D01*
X005856Y013625D02*
X005856Y013701D01*
X005856Y013931D02*
X005856Y014162D01*
X005933Y014238D01*
X006009Y014238D01*
X006086Y014162D01*
X006086Y013931D01*
X005626Y013931D01*
X005626Y014162D01*
X005702Y014238D01*
X005779Y014238D01*
X005856Y014162D01*
X006086Y013087D02*
X006009Y013011D01*
X005626Y013011D01*
X004284Y007913D02*
X003937Y007913D01*
X004284Y007566D01*
X004371Y007653D01*
X004371Y007826D01*
X004284Y007913D01*
X004284Y007566D02*
X003937Y007566D01*
X003851Y007653D01*
X003851Y007826D01*
X003937Y007913D01*
X003851Y007223D02*
X004371Y007223D01*
X004371Y007136D02*
X004371Y007310D01*
X004284Y006968D02*
X004371Y006881D01*
X004371Y006708D01*
X004284Y006621D01*
X003937Y006968D01*
X004284Y006968D01*
X004284Y006621D02*
X003937Y006621D01*
X003851Y006708D01*
X003851Y006881D01*
X003937Y006968D01*
X003937Y007136D02*
X003851Y007223D01*
X003937Y006452D02*
X003851Y006365D01*
X003851Y006192D01*
X003937Y006105D01*
X003937Y006452D02*
X004024Y006452D01*
X004371Y006105D01*
X004371Y006452D01*
X004371Y005333D02*
X004284Y005247D01*
X003937Y005247D01*
X004024Y005333D02*
X004024Y005160D01*
X004111Y004991D02*
X004371Y004991D01*
X004111Y004991D02*
X004024Y004904D01*
X004024Y004731D01*
X004111Y004644D01*
X004024Y004476D02*
X004024Y004215D01*
X004111Y004129D01*
X004284Y004129D01*
X004371Y004215D01*
X004371Y004476D01*
X004458Y004476D02*
X004024Y004476D01*
X003851Y004644D02*
X004371Y004644D01*
X004458Y004476D02*
X004545Y004389D01*
X004545Y004302D01*
X004764Y004301D02*
X004851Y004301D01*
X005024Y004301D02*
X005371Y004301D01*
X005371Y004215D02*
X005371Y004388D01*
X005284Y004731D02*
X005371Y004818D01*
X005284Y004731D02*
X004937Y004731D01*
X005024Y004644D02*
X005024Y004818D01*
X005024Y005074D02*
X005024Y005247D01*
X004937Y005161D02*
X005284Y005161D01*
X005371Y005247D01*
X005024Y004301D02*
X005024Y004215D01*
X005024Y003959D02*
X005024Y003872D01*
X005198Y003699D01*
X005198Y003530D02*
X005284Y003530D01*
X005371Y003444D01*
X005371Y003183D01*
X004851Y003183D01*
X004851Y003444D01*
X004937Y003530D01*
X005024Y003530D01*
X005111Y003444D01*
X005111Y003183D01*
X005111Y003444D02*
X005198Y003530D01*
X005371Y003699D02*
X005024Y003699D01*
X004458Y003015D02*
X004545Y002928D01*
X004545Y002841D01*
X004371Y002754D02*
X004371Y003015D01*
X004458Y003015D02*
X004024Y003015D01*
X004024Y003183D02*
X004371Y003183D01*
X004198Y003183D02*
X004024Y003357D01*
X004024Y003444D01*
X004024Y003699D02*
X004024Y003786D01*
X004371Y003786D01*
X004371Y003872D02*
X004371Y003699D01*
X003851Y003786D02*
X003764Y003786D01*
X004024Y002668D02*
X004284Y002668D01*
X004371Y002754D01*
X004284Y002499D02*
X004111Y002499D01*
X004024Y002412D01*
X004024Y002152D01*
X004545Y002152D01*
X004371Y002152D02*
X004371Y002412D01*
X004284Y002499D01*
X004284Y001983D02*
X004111Y001983D01*
X004024Y001897D01*
X004024Y001723D01*
X004111Y001636D01*
X004284Y001636D01*
X004371Y001723D01*
X004371Y001897D01*
X004284Y001983D01*
X004284Y001468D02*
X004371Y001381D01*
X004371Y001208D01*
X004284Y001121D01*
X003937Y001121D01*
X003851Y001208D01*
X003851Y001381D01*
X003937Y001468D01*
X004851Y001468D02*
X004851Y001294D01*
X004851Y001381D02*
X005284Y001381D01*
X005371Y001294D01*
X005371Y001208D01*
X005284Y001121D01*
X005284Y001636D02*
X005111Y001636D01*
X005024Y001723D01*
X005024Y001897D01*
X005111Y001983D01*
X005284Y001983D01*
X005371Y001897D01*
X005371Y001723D01*
X005284Y001636D01*
X005284Y002152D02*
X005111Y002152D01*
X005024Y002239D01*
X005024Y002412D01*
X005111Y002499D01*
X005198Y002499D01*
X005198Y002152D01*
X005284Y002152D02*
X005371Y002239D01*
X005371Y002412D01*
X005817Y019371D02*
X005740Y019447D01*
X005740Y019754D01*
X005817Y019831D01*
X005971Y019831D01*
X006047Y019754D01*
X006201Y019831D02*
X006508Y019831D01*
X006508Y019754D01*
X006201Y019447D01*
X006201Y019371D01*
X006047Y019447D02*
X005971Y019371D01*
X005817Y019371D01*
X008351Y024621D02*
X008351Y024968D01*
X008351Y025136D02*
X008351Y025397D01*
X008437Y025483D01*
X008611Y025483D01*
X008698Y025397D01*
X008698Y025136D01*
X008871Y025136D02*
X008351Y025136D01*
X008611Y024794D02*
X008611Y024621D01*
X008871Y024621D02*
X008351Y024621D01*
X008698Y025310D02*
X008871Y025483D01*
X008784Y025652D02*
X008871Y025739D01*
X008871Y025912D01*
X008784Y025999D01*
X008437Y025999D01*
X008351Y025912D01*
X008351Y025739D01*
X008437Y025652D01*
X008784Y025652D01*
X008871Y026168D02*
X008351Y026168D01*
X008524Y026341D01*
X008351Y026515D01*
X008871Y026515D01*
X008784Y027199D02*
X008437Y027199D01*
X008351Y027286D01*
X008351Y027459D01*
X008437Y027546D01*
X008351Y027715D02*
X008524Y027888D01*
X008351Y028061D01*
X008871Y028061D01*
X008871Y028230D02*
X008871Y028404D01*
X008871Y028317D02*
X008351Y028317D01*
X008351Y028230D02*
X008351Y028404D01*
X008351Y027715D02*
X008871Y027715D01*
X008784Y027546D02*
X008871Y027459D01*
X008871Y027286D01*
X008784Y027199D01*
X009467Y028811D02*
X009380Y028898D01*
X009467Y028811D02*
X009553Y028811D01*
X009640Y028898D01*
X009640Y029331D01*
X009553Y029331D02*
X009727Y029331D01*
X009895Y029244D02*
X009982Y029331D01*
X010156Y029331D01*
X010242Y029244D01*
X010242Y029158D01*
X009895Y028811D01*
X010242Y028811D01*
X006859Y025751D02*
X006859Y025291D01*
X006935Y025291D02*
X006782Y025291D01*
X006628Y025291D02*
X006475Y025444D01*
X006552Y025444D02*
X006321Y025444D01*
X006168Y025444D02*
X006168Y025751D01*
X006321Y025751D02*
X006321Y025291D01*
X006168Y025444D02*
X006015Y025291D01*
X005861Y025444D01*
X005861Y025751D01*
X006321Y025751D02*
X006552Y025751D01*
X006628Y025674D01*
X006628Y025521D01*
X006552Y025444D01*
X006782Y025674D02*
X006859Y025751D01*
X006554Y034801D02*
X006171Y034801D01*
X006171Y035108D02*
X006554Y035108D01*
X006631Y035031D01*
X006631Y034877D01*
X006554Y034801D01*
X006554Y035261D02*
X006631Y035338D01*
X006631Y035491D01*
X006554Y035568D01*
X006401Y035568D01*
X006324Y035491D01*
X006324Y035415D01*
X006401Y035261D01*
X006171Y035261D01*
X006171Y035568D01*
X006324Y035721D02*
X006171Y035875D01*
X006324Y036028D01*
X006631Y036028D01*
X006631Y035721D02*
X006324Y035721D01*
X006401Y035721D02*
X006401Y036028D01*
X002194Y042840D02*
X002271Y042916D01*
X002271Y043070D01*
X002194Y043147D01*
X002271Y043300D02*
X001964Y043607D01*
X001887Y043607D01*
X001811Y043530D01*
X001811Y043377D01*
X001887Y043300D01*
X001887Y043147D02*
X001811Y043070D01*
X001811Y042916D01*
X001887Y042840D01*
X002194Y042840D01*
X002271Y043300D02*
X002271Y043607D01*
X002271Y043760D02*
X001964Y044067D01*
X001887Y044067D01*
X001811Y043991D01*
X001811Y043837D01*
X001887Y043760D01*
X002271Y043760D02*
X002271Y044067D01*
X005122Y045852D02*
X005582Y046158D01*
X005582Y046312D02*
X005582Y046465D01*
X005582Y046389D02*
X005122Y046389D01*
X005198Y046312D01*
X005122Y046158D02*
X005582Y045852D01*
X012411Y048621D02*
X012411Y049141D01*
X012671Y049141D01*
X012758Y049054D01*
X012758Y048881D01*
X012671Y048794D01*
X012411Y048794D01*
X012585Y048794D02*
X012758Y048621D01*
X012927Y048621D02*
X012927Y049141D01*
X013274Y049141D01*
X013442Y049141D02*
X013442Y048794D01*
X013616Y048621D01*
X013789Y048794D01*
X013789Y049141D01*
X013958Y049054D02*
X014045Y049141D01*
X014218Y049141D01*
X014305Y049054D01*
X014305Y048968D01*
X013958Y048621D01*
X014305Y048621D01*
X013274Y048621D02*
X012927Y048621D01*
X012927Y048881D02*
X013100Y048881D01*
X015336Y046772D02*
X015413Y046696D01*
X015490Y046696D01*
X015566Y046772D01*
X015566Y047156D01*
X015490Y047156D02*
X015643Y047156D01*
X015796Y047156D02*
X015796Y046926D01*
X015950Y047003D01*
X016027Y047003D01*
X016103Y046926D01*
X016103Y046772D01*
X016027Y046696D01*
X015873Y046696D01*
X015796Y046772D01*
X015796Y047156D02*
X016103Y047156D01*
X013102Y039951D02*
X013178Y039874D01*
X013178Y039798D01*
X013102Y039721D01*
X012948Y039721D01*
X012871Y039798D01*
X012871Y039874D01*
X012948Y039951D01*
X013102Y039951D01*
X013102Y039721D02*
X013178Y039644D01*
X013178Y039567D01*
X013102Y039491D01*
X012948Y039491D01*
X012871Y039567D01*
X012871Y039644D01*
X012948Y039721D01*
X012718Y039874D02*
X012641Y039951D01*
X012488Y039951D01*
X012411Y039874D01*
X012411Y039567D01*
X012488Y039491D01*
X012641Y039491D01*
X012718Y039567D01*
D12*
X012841Y037997D02*
X012841Y037884D01*
X012841Y037941D02*
X012501Y037941D01*
X012558Y037884D01*
X012558Y037742D02*
X012501Y037686D01*
X012501Y037516D01*
X012841Y037516D01*
X012841Y037686D01*
X012784Y037742D01*
X012558Y037742D01*
X012501Y037374D02*
X012501Y037147D01*
X012841Y037147D01*
X012841Y037374D01*
X012671Y037261D02*
X012671Y037147D01*
X012841Y037006D02*
X012841Y036779D01*
X012501Y036779D01*
X012701Y036249D02*
X012744Y036162D01*
X012831Y036075D01*
X012831Y036206D01*
X012874Y036249D01*
X012918Y036249D01*
X012961Y036206D01*
X012961Y036119D01*
X012918Y036075D01*
X012831Y036075D01*
X012831Y035954D02*
X012874Y035911D01*
X012874Y035781D01*
X012874Y035868D02*
X012961Y035954D01*
X012831Y035954D02*
X012744Y035954D01*
X012701Y035911D01*
X012701Y035781D01*
X012961Y035781D01*
X011481Y035796D02*
X011308Y035970D01*
X011264Y035970D01*
X011221Y035926D01*
X011221Y035839D01*
X011264Y035796D01*
X011264Y035675D02*
X011221Y035632D01*
X011221Y035545D01*
X011264Y035501D01*
X011438Y035501D01*
X011481Y035545D01*
X011481Y035632D01*
X011438Y035675D01*
X011481Y035796D02*
X011481Y035970D01*
X009788Y032760D02*
X009831Y032716D01*
X009831Y032629D01*
X009788Y032586D01*
X009701Y032586D01*
X009701Y032716D01*
X009744Y032760D01*
X009788Y032760D01*
X009614Y032673D02*
X009701Y032586D01*
X009614Y032673D02*
X009571Y032760D01*
X009571Y032384D02*
X009831Y032384D01*
X009831Y032341D02*
X009831Y032427D01*
X009831Y032219D02*
X009744Y032133D01*
X009744Y032176D02*
X009744Y032046D01*
X009831Y032046D02*
X009571Y032046D01*
X009571Y032176D01*
X009614Y032219D01*
X009701Y032219D01*
X009744Y032176D01*
X009614Y032341D02*
X009571Y032384D01*
X006331Y032066D02*
X006071Y032066D01*
X006201Y031936D01*
X006201Y032110D01*
X006114Y031815D02*
X006071Y031772D01*
X006071Y031685D01*
X006114Y031641D01*
X006288Y031641D01*
X006331Y031685D01*
X006331Y031772D01*
X006288Y031815D01*
X004141Y031851D02*
X004141Y031351D01*
X003891Y031101D01*
X004141Y030851D01*
X004141Y030351D01*
X003891Y030101D01*
X004141Y029851D01*
X004141Y029351D01*
X003891Y029101D01*
X004141Y028851D01*
X004141Y028351D01*
X003891Y028101D01*
X004141Y027851D01*
X004141Y027351D01*
X003891Y027101D01*
X004141Y026851D01*
X004141Y026351D01*
X003891Y026101D01*
X004141Y025851D01*
X004141Y025351D01*
X003891Y025101D01*
X004141Y024851D01*
X004141Y024351D01*
X003891Y024101D01*
X004141Y023851D01*
X004141Y023351D01*
X003891Y023101D01*
X004141Y022851D01*
X004141Y022351D01*
X003891Y022101D01*
X004141Y021851D01*
X004141Y021351D01*
X003891Y021101D01*
X002391Y021101D01*
X002141Y021351D01*
X002141Y021851D01*
X002391Y022101D01*
X002141Y022351D01*
X002141Y022851D01*
X002391Y023101D01*
X002141Y023351D01*
X002141Y023851D01*
X002391Y024101D01*
X002141Y024351D01*
X002141Y024851D01*
X002391Y025101D01*
X002141Y025351D01*
X002141Y025851D01*
X002391Y026101D01*
X002141Y026351D01*
X002141Y026851D01*
X002391Y027101D01*
X002141Y027351D01*
X002141Y027851D01*
X002391Y028101D01*
X002141Y028351D01*
X002141Y028851D01*
X002391Y029101D01*
X002141Y029351D01*
X002141Y029851D01*
X002391Y030101D01*
X002141Y030351D01*
X002141Y030851D01*
X002391Y031101D01*
X002141Y031351D01*
X002141Y031851D01*
X002391Y032101D01*
X002141Y032351D01*
X002141Y032851D01*
X002391Y033101D01*
X002141Y033351D01*
X002141Y033851D01*
X002391Y034101D01*
X002141Y034351D01*
X002141Y034851D01*
X002391Y035101D01*
X002141Y035351D01*
X002141Y035851D01*
X002391Y036101D01*
X002141Y036351D01*
X002141Y036851D01*
X002391Y037101D01*
X002141Y037351D01*
X002141Y037851D01*
X002391Y038101D01*
X002141Y038351D01*
X002141Y038851D01*
X002391Y039101D01*
X002141Y039351D01*
X002141Y039851D01*
X002391Y040101D01*
X002141Y040351D01*
X002141Y040851D01*
X002391Y041101D01*
X003891Y041101D01*
X004141Y040851D01*
X004141Y040351D01*
X003891Y040101D01*
X004141Y039851D01*
X004141Y039351D01*
X003891Y039101D01*
X004141Y038851D01*
X004141Y038351D01*
X003891Y038101D01*
X004141Y037851D01*
X004141Y037351D01*
X003891Y037101D01*
X004141Y036851D01*
X004141Y036351D01*
X003891Y036101D01*
X004141Y035851D01*
X004141Y035351D01*
X003891Y035101D01*
X004141Y034851D01*
X004141Y034351D01*
X003891Y034101D01*
X004141Y033851D01*
X004141Y033351D01*
X003891Y033101D01*
X004141Y032851D01*
X004141Y032351D01*
X003891Y032101D01*
X004141Y031851D01*
X004694Y040596D02*
X004868Y040596D01*
X004911Y040639D01*
X004911Y040726D01*
X004868Y040769D01*
X004911Y040891D02*
X004738Y041064D01*
X004694Y041064D01*
X004651Y041021D01*
X004651Y040934D01*
X004694Y040891D01*
X004694Y040769D02*
X004651Y040726D01*
X004651Y040639D01*
X004694Y040596D01*
X004911Y040891D02*
X004911Y041064D01*
X004911Y041185D02*
X004911Y041272D01*
X004911Y041229D02*
X004651Y041229D01*
X004694Y041185D01*
X007071Y044461D02*
X007071Y044721D01*
X007201Y044721D01*
X007245Y044678D01*
X007245Y044591D01*
X007201Y044548D01*
X007071Y044548D01*
X007158Y044548D02*
X007245Y044461D01*
X007366Y044461D02*
X007452Y044461D01*
X007409Y044461D02*
X007409Y044721D01*
X007366Y044678D01*
X007611Y044678D02*
X007655Y044721D01*
X007741Y044721D01*
X007785Y044678D01*
X007785Y044634D01*
X007611Y044461D01*
X007785Y044461D01*
X009838Y044461D02*
X009951Y044461D01*
X009894Y044461D02*
X009894Y044801D01*
X009838Y044801D02*
X009951Y044801D01*
X010144Y044744D02*
X010144Y044517D01*
X010201Y044461D01*
X010315Y044461D01*
X010371Y044517D01*
X010513Y044461D02*
X010513Y044801D01*
X010683Y044801D01*
X010740Y044744D01*
X010740Y044631D01*
X010683Y044574D01*
X010513Y044574D01*
X010371Y044744D02*
X010315Y044801D01*
X010201Y044801D01*
X010144Y044744D01*
X010634Y044051D02*
X010591Y044008D01*
X010591Y043834D01*
X010634Y043791D01*
X010721Y043791D01*
X010765Y043834D01*
X010886Y043834D02*
X010929Y043791D01*
X011016Y043791D01*
X011059Y043834D01*
X011059Y043878D01*
X011016Y043921D01*
X010972Y043921D01*
X011016Y043921D02*
X011059Y043964D01*
X011059Y044008D01*
X011016Y044051D01*
X010929Y044051D01*
X010886Y044008D01*
X010765Y044008D02*
X010721Y044051D01*
X010634Y044051D01*
X010664Y043171D02*
X010621Y043128D01*
X010621Y042954D01*
X010664Y042911D01*
X010751Y042911D01*
X010795Y042954D01*
X010916Y042954D02*
X010959Y042911D01*
X011046Y042911D01*
X011089Y042954D01*
X011089Y043128D01*
X011046Y043171D01*
X010959Y043171D01*
X010916Y043128D01*
X010916Y043084D01*
X010959Y043041D01*
X011089Y043041D01*
X010795Y043128D02*
X010751Y043171D01*
X010664Y043171D01*
X014751Y036230D02*
X014751Y036056D01*
X014794Y035935D02*
X014881Y035935D01*
X014924Y035892D01*
X014924Y035761D01*
X015011Y035761D02*
X014751Y035761D01*
X014751Y035892D01*
X014794Y035935D01*
X014924Y035848D02*
X015011Y035935D01*
X015011Y036056D02*
X014968Y036056D01*
X014794Y036230D01*
X014751Y036230D01*
X014941Y030101D02*
X013341Y030101D01*
X013341Y029101D01*
X014941Y029101D01*
X014941Y030101D01*
X014741Y029601D02*
X014141Y029601D01*
X014141Y029351D01*
X014141Y029601D02*
X014141Y029851D01*
X014141Y029601D02*
X013891Y029601D01*
X014141Y029601D02*
X014541Y029851D01*
X014541Y029351D01*
X014141Y029601D01*
X009319Y016671D02*
X009319Y016411D01*
X009276Y016411D02*
X009362Y016411D01*
X009276Y016628D02*
X009319Y016671D01*
X009073Y016671D02*
X009073Y016411D01*
X009030Y016411D02*
X009117Y016411D01*
X008909Y016454D02*
X008865Y016411D01*
X008779Y016411D01*
X008735Y016454D01*
X008735Y016628D01*
X008779Y016671D01*
X008865Y016671D01*
X008909Y016628D01*
X009030Y016628D02*
X009073Y016671D01*
X009391Y015001D02*
X009391Y014251D01*
X009352Y014249D01*
X009313Y014243D01*
X009275Y014234D01*
X009238Y014221D01*
X009202Y014204D01*
X009169Y014184D01*
X009137Y014160D01*
X009108Y014134D01*
X009082Y014105D01*
X009058Y014073D01*
X009038Y014040D01*
X009021Y014004D01*
X009008Y013967D01*
X008999Y013929D01*
X008993Y013890D01*
X008991Y013851D01*
X008993Y013812D01*
X008999Y013773D01*
X009008Y013735D01*
X009021Y013698D01*
X009038Y013662D01*
X009058Y013629D01*
X009082Y013597D01*
X009108Y013568D01*
X009137Y013542D01*
X009169Y013518D01*
X009202Y013498D01*
X009238Y013481D01*
X009275Y013468D01*
X009313Y013459D01*
X009352Y013453D01*
X009391Y013451D01*
X009391Y012701D01*
X005391Y012701D01*
X005391Y015001D01*
X009391Y015001D01*
X010221Y014596D02*
X010221Y014382D01*
X010327Y014275D01*
X010221Y014058D02*
X010221Y013844D01*
X010221Y013951D02*
X010754Y013951D01*
X010861Y013844D01*
X010861Y013738D01*
X010754Y013631D01*
X010754Y014275D02*
X010861Y014382D01*
X010861Y014596D01*
X010754Y014702D01*
X010648Y014702D01*
X010541Y014596D01*
X010541Y014489D01*
X010541Y014596D02*
X010434Y014702D01*
X010327Y014702D01*
X010221Y014596D01*
X007871Y010971D02*
X007915Y010928D01*
X007741Y010754D01*
X007785Y010711D01*
X007871Y010711D01*
X007915Y010754D01*
X007915Y010928D01*
X007871Y010971D02*
X007785Y010971D01*
X007741Y010928D01*
X007741Y010754D01*
X007582Y010711D02*
X007496Y010711D01*
X007539Y010711D02*
X007539Y010971D01*
X007496Y010928D01*
X007375Y010928D02*
X007331Y010971D01*
X007244Y010971D01*
X007201Y010928D01*
X007201Y010754D01*
X007244Y010711D01*
X007331Y010711D01*
X007375Y010754D01*
X007331Y009971D02*
X007201Y009971D01*
X007201Y009711D01*
X007201Y009798D02*
X007331Y009798D01*
X007375Y009841D01*
X007375Y009928D01*
X007331Y009971D01*
X007496Y009928D02*
X007539Y009971D01*
X007539Y009711D01*
X007496Y009711D02*
X007582Y009711D01*
X007375Y009711D02*
X007288Y009798D01*
X007107Y007671D02*
X007020Y007671D01*
X006976Y007628D01*
X006855Y007628D02*
X006855Y007541D01*
X006812Y007498D01*
X006682Y007498D01*
X006769Y007498D02*
X006855Y007411D01*
X006976Y007411D02*
X007150Y007584D01*
X007150Y007628D01*
X007107Y007671D01*
X006855Y007628D02*
X006812Y007671D01*
X006682Y007671D01*
X006682Y007411D01*
X006976Y007411D02*
X007150Y007411D01*
X007107Y006921D02*
X007150Y006878D01*
X007150Y006834D01*
X007107Y006791D01*
X007150Y006748D01*
X007150Y006704D01*
X007107Y006661D01*
X007020Y006661D01*
X006976Y006704D01*
X007063Y006791D02*
X007107Y006791D01*
X007107Y006921D02*
X007020Y006921D01*
X006976Y006878D01*
X006855Y006878D02*
X006855Y006791D01*
X006812Y006748D01*
X006682Y006748D01*
X006769Y006748D02*
X006855Y006661D01*
X006682Y006661D02*
X006682Y006921D01*
X006812Y006921D01*
X006855Y006878D01*
X006812Y005671D02*
X006855Y005628D01*
X006855Y005541D01*
X006812Y005498D01*
X006682Y005498D01*
X006769Y005498D02*
X006855Y005411D01*
X006976Y005454D02*
X007020Y005411D01*
X007107Y005411D01*
X007150Y005454D01*
X007150Y005541D01*
X007107Y005584D01*
X007063Y005584D01*
X006976Y005541D01*
X006976Y005671D01*
X007150Y005671D01*
X006812Y005671D02*
X006682Y005671D01*
X006682Y005411D01*
X006682Y004921D02*
X006812Y004921D01*
X006855Y004878D01*
X006855Y004791D01*
X006812Y004748D01*
X006682Y004748D01*
X006769Y004748D02*
X006855Y004661D01*
X006682Y004661D02*
X006682Y004921D01*
X006976Y004791D02*
X007150Y004791D01*
X007107Y004921D02*
X006976Y004791D01*
X007107Y004661D02*
X007107Y004921D01*
X006038Y007141D02*
X006081Y007185D01*
X006081Y007272D01*
X006038Y007315D01*
X006038Y007436D02*
X006081Y007479D01*
X006081Y007566D01*
X006038Y007610D01*
X005951Y007610D01*
X005908Y007566D01*
X005908Y007523D01*
X005951Y007436D01*
X005821Y007436D01*
X005821Y007610D01*
X005864Y007315D02*
X005821Y007272D01*
X005821Y007185D01*
X005864Y007141D01*
X006038Y007141D01*
X004621Y011251D02*
X003921Y011251D01*
X003901Y011253D01*
X003883Y011259D01*
X003865Y011268D01*
X003850Y011280D01*
X003838Y011295D01*
X003829Y011313D01*
X003823Y011331D01*
X003821Y011351D01*
X003821Y011501D01*
X003871Y011551D01*
X003871Y013451D01*
X003821Y013501D01*
X003821Y013651D01*
X003823Y013671D01*
X003829Y013689D01*
X003838Y013707D01*
X003850Y013722D01*
X003865Y013734D01*
X003883Y013743D01*
X003901Y013749D01*
X003921Y013751D01*
X004621Y013751D01*
X004641Y013749D01*
X004659Y013743D01*
X004677Y013734D01*
X004692Y013722D01*
X004704Y013707D01*
X004713Y013689D01*
X004719Y013671D01*
X004721Y013651D01*
X004721Y013501D01*
X004671Y013451D01*
X004671Y011551D01*
X004721Y011501D01*
X004721Y011351D01*
X004719Y011331D01*
X004713Y011313D01*
X004704Y011295D01*
X004692Y011280D01*
X004677Y011268D01*
X004659Y011259D01*
X004641Y011253D01*
X004621Y011251D01*
X002845Y012478D02*
X002144Y012478D01*
X002144Y012828D01*
X002261Y012945D01*
X002494Y012945D01*
X002611Y012828D01*
X002611Y012478D01*
X002611Y012245D02*
X002611Y011895D01*
X002494Y011778D01*
X002378Y011895D01*
X002378Y012245D01*
X002261Y012245D02*
X002611Y012245D01*
X002261Y012245D02*
X002144Y012128D01*
X002144Y011895D01*
X002144Y011545D02*
X002144Y011195D01*
X002261Y011078D01*
X002494Y011078D01*
X002611Y011195D01*
X002611Y011545D01*
X001911Y011545D01*
X001611Y011195D02*
X001261Y011195D01*
X001144Y011079D01*
X001144Y010728D01*
X001611Y010728D01*
X001911Y010612D02*
X002144Y010845D01*
X002611Y010845D01*
X002611Y010378D02*
X002144Y010378D01*
X001911Y010612D01*
X001611Y010379D02*
X001611Y010145D01*
X001494Y010029D01*
X001261Y010029D01*
X001144Y010145D01*
X001144Y010379D01*
X001261Y010496D01*
X001378Y010496D01*
X001378Y010029D01*
X001261Y009796D02*
X001494Y009796D01*
X001611Y009679D01*
X001611Y009329D01*
X001845Y009329D02*
X001144Y009329D01*
X001144Y009679D01*
X001261Y009796D01*
X001144Y008979D02*
X001144Y008746D01*
X001027Y008862D02*
X001494Y008862D01*
X001611Y008979D01*
X001611Y008513D02*
X001261Y008513D01*
X001144Y008396D01*
X001144Y008163D01*
X001261Y008046D01*
X001144Y007813D02*
X001144Y007463D01*
X001261Y007346D01*
X001494Y007346D01*
X001611Y007463D01*
X001611Y007813D01*
X001728Y007813D02*
X001144Y007813D01*
X000911Y008046D02*
X001611Y008046D01*
X001728Y007813D02*
X001845Y007696D01*
X001845Y007580D01*
X002144Y007579D02*
X002494Y007579D01*
X002611Y007696D01*
X002611Y008046D01*
X002144Y008046D01*
X002261Y008279D02*
X002144Y008396D01*
X002144Y008746D01*
X002261Y008979D02*
X002144Y009096D01*
X002144Y009329D01*
X002261Y009446D01*
X002378Y009446D01*
X002378Y008979D01*
X002494Y008979D02*
X002261Y008979D01*
X002494Y008979D02*
X002611Y009096D01*
X002611Y009329D01*
X002494Y008746D02*
X002378Y008629D01*
X002378Y008396D01*
X002261Y008279D01*
X002611Y008629D02*
X002494Y008746D01*
X002611Y008629D02*
X002611Y008279D01*
X002494Y007347D02*
X002261Y007347D01*
X002144Y007230D01*
X002144Y006996D01*
X002261Y006880D01*
X002494Y006880D01*
X002611Y006996D01*
X002611Y007230D01*
X002494Y007347D01*
X002611Y006647D02*
X001911Y006647D01*
X002144Y006413D01*
X001911Y006180D01*
X002611Y006180D01*
X002494Y005247D02*
X002378Y005247D01*
X002261Y005131D01*
X002261Y004780D01*
X002378Y004548D02*
X002494Y004548D01*
X002611Y004431D01*
X002611Y004197D01*
X002494Y004081D01*
X002494Y003848D02*
X001911Y003848D01*
X002027Y004081D02*
X001911Y004197D01*
X001911Y004431D01*
X002027Y004548D01*
X001911Y004780D02*
X001911Y005131D01*
X002027Y005247D01*
X002144Y005247D01*
X002261Y005131D01*
X002494Y005247D02*
X002611Y005131D01*
X002611Y004780D01*
X001911Y004780D01*
X001611Y004780D02*
X001611Y005014D01*
X001611Y004897D02*
X000911Y004897D01*
X000911Y004780D02*
X000911Y005014D01*
X000911Y004548D02*
X001611Y004548D01*
X001611Y004081D02*
X000911Y004081D01*
X001144Y004314D01*
X000911Y004548D01*
X001027Y003848D02*
X000911Y003731D01*
X000911Y003498D01*
X001027Y003381D01*
X001494Y003381D01*
X001611Y003498D01*
X001611Y003731D01*
X001494Y003848D01*
X001911Y003381D02*
X002494Y003381D01*
X002611Y003498D01*
X002611Y003731D01*
X002494Y003848D01*
X002261Y004197D02*
X002261Y004431D01*
X002378Y004548D01*
X002261Y004197D02*
X002144Y004081D01*
X002027Y004081D01*
X001611Y006063D02*
X001611Y006530D01*
X001611Y006763D02*
X001611Y006996D01*
X001611Y006880D02*
X001144Y006880D01*
X001144Y006763D01*
X000911Y006880D02*
X000794Y006880D01*
X000911Y006063D02*
X001611Y006063D01*
X002261Y010378D02*
X002261Y010845D01*
X002144Y013177D02*
X002144Y013411D01*
X002027Y013294D02*
X002494Y013294D01*
X002611Y013411D01*
X002494Y013761D02*
X002261Y013761D01*
X002144Y013877D01*
X002144Y014111D01*
X002261Y014228D01*
X002378Y014228D01*
X002378Y013761D01*
X002494Y013761D02*
X002611Y013877D01*
X002611Y014111D01*
X002611Y014460D02*
X002144Y014460D01*
X002378Y014460D02*
X002144Y014694D01*
X002144Y014811D01*
X002771Y016351D02*
X004011Y016351D01*
X004034Y016353D01*
X004057Y016358D01*
X004079Y016367D01*
X004099Y016380D01*
X004117Y016395D01*
X004132Y016413D01*
X004145Y016433D01*
X004154Y016455D01*
X004159Y016478D01*
X004161Y016501D01*
X004161Y019701D01*
X004159Y019724D01*
X004154Y019747D01*
X004145Y019769D01*
X004132Y019789D01*
X004117Y019807D01*
X004099Y019822D01*
X004079Y019835D01*
X004057Y019844D01*
X004034Y019849D01*
X004011Y019851D01*
X002771Y019851D01*
X002748Y019849D01*
X002725Y019844D01*
X002703Y019835D01*
X002683Y019822D01*
X002665Y019807D01*
X002650Y019789D01*
X002637Y019769D01*
X002628Y019747D01*
X002623Y019724D01*
X002621Y019701D01*
X002621Y016501D01*
X002623Y016478D01*
X002628Y016455D01*
X002637Y016433D01*
X002650Y016413D01*
X002665Y016395D01*
X002683Y016380D01*
X002703Y016367D01*
X002725Y016358D01*
X002748Y016353D01*
X002771Y016351D01*
X003191Y019851D02*
X003193Y019824D01*
X003198Y019797D01*
X003208Y019771D01*
X003220Y019747D01*
X003236Y019725D01*
X003254Y019705D01*
X003276Y019688D01*
X003299Y019673D01*
X003324Y019663D01*
X003350Y019655D01*
X003377Y019651D01*
X003405Y019651D01*
X003432Y019655D01*
X003458Y019663D01*
X003483Y019673D01*
X003506Y019688D01*
X003528Y019705D01*
X003546Y019725D01*
X003562Y019747D01*
X003574Y019771D01*
X003584Y019797D01*
X003589Y019824D01*
X003591Y019851D01*
X007321Y018748D02*
X007321Y018574D01*
X007364Y018531D01*
X007451Y018531D01*
X007495Y018574D01*
X007616Y018574D02*
X007659Y018531D01*
X007746Y018531D01*
X007789Y018574D01*
X007789Y018618D01*
X007746Y018661D01*
X007616Y018661D01*
X007616Y018574D01*
X007616Y018661D02*
X007702Y018748D01*
X007789Y018791D01*
X007495Y018748D02*
X007451Y018791D01*
X007364Y018791D01*
X007321Y018748D01*
X003092Y048221D02*
X003006Y048221D01*
X003049Y048221D02*
X003049Y048481D01*
X003006Y048438D01*
X002885Y048438D02*
X002841Y048481D01*
X002754Y048481D01*
X002711Y048438D01*
X002711Y048264D01*
X002754Y048221D01*
X002841Y048221D01*
X002885Y048264D01*
D13*
X012016Y001351D03*
D14*
X004641Y021101D02*
X001641Y021101D01*
X001641Y026101D01*
X004641Y026101D01*
X004641Y021851D01*
X006455Y038526D02*
X006457Y038547D01*
X006463Y038567D01*
X006473Y038586D01*
X006486Y038603D01*
X006502Y038616D01*
X006520Y038627D01*
X006540Y038634D01*
X006561Y038637D01*
X006582Y038636D01*
X006602Y038631D01*
X006621Y038622D01*
X006639Y038610D01*
X006653Y038595D01*
X006665Y038577D01*
X006673Y038557D01*
X006676Y038537D01*
X006676Y038515D01*
X006673Y038495D01*
X006665Y038475D01*
X006653Y038457D01*
X006639Y038442D01*
X006622Y038430D01*
X006602Y038421D01*
X006582Y038416D01*
X006561Y038415D01*
X006540Y038418D01*
X006520Y038425D01*
X006502Y038436D01*
X006486Y038449D01*
X006473Y038466D01*
X006463Y038485D01*
X006457Y038505D01*
X006455Y038526D01*
X006241Y045101D02*
X006241Y049951D01*
X011041Y049951D01*
X011041Y045101D01*
X006241Y045101D01*
D15*
X006048Y044079D02*
X003174Y044079D01*
X003174Y042622D02*
X006048Y042622D01*
X006409Y041991D02*
X009873Y041991D01*
X010031Y041833D01*
X010031Y038369D01*
X009873Y038211D01*
X006409Y038211D01*
X006251Y038369D01*
X006251Y041833D01*
X006409Y041991D01*
X005280Y042662D02*
X005320Y042819D01*
X005320Y043882D02*
X005280Y044040D01*
X005041Y040421D02*
X004541Y040421D01*
X004541Y039321D01*
X005041Y039321D01*
X005041Y040421D01*
X007951Y044351D02*
X007951Y044851D01*
X009051Y044851D01*
X009051Y044351D01*
X007951Y044351D01*
X009341Y044101D02*
X009341Y043601D01*
X010441Y043601D01*
X010441Y044101D01*
X009341Y044101D01*
X009981Y042741D02*
X009981Y042241D01*
X011081Y042241D01*
X011081Y042741D01*
X009981Y042741D01*
X010511Y036491D02*
X011011Y036491D01*
X011011Y035391D01*
X010511Y035391D01*
X010511Y036491D01*
X009891Y034051D02*
X009391Y034051D01*
X009391Y032951D01*
X009891Y032951D01*
X009891Y034051D01*
X009258Y028483D02*
X009258Y018719D01*
X017112Y018719D01*
X017112Y028483D01*
X009258Y028483D01*
X007091Y024891D02*
X007091Y022311D01*
X005691Y022311D01*
X005691Y024891D01*
X007091Y024891D01*
X006472Y021540D02*
X006432Y021382D01*
X006432Y020319D02*
X006472Y020162D01*
X006941Y018851D02*
X005841Y018851D01*
X005841Y018351D01*
X006941Y018351D01*
X006941Y018851D01*
X005704Y020122D02*
X008578Y020122D01*
X008578Y021579D02*
X005704Y021579D01*
X009591Y016851D02*
X009591Y016351D01*
X010691Y016351D01*
X010691Y016851D01*
X009591Y016851D01*
X009511Y012483D02*
X009511Y002719D01*
X017110Y002719D01*
X017110Y012483D01*
X009511Y012483D01*
X008441Y007851D02*
X008441Y007351D01*
X007341Y007351D01*
X007341Y007851D01*
X008441Y007851D01*
X008441Y007101D02*
X008441Y006601D01*
X007341Y006601D01*
X007341Y007101D01*
X008441Y007101D01*
X008441Y005851D02*
X008441Y005351D01*
X007341Y005351D01*
X007341Y005851D01*
X008441Y005851D01*
X008441Y005101D02*
X008441Y004601D01*
X007341Y004601D01*
X007341Y005101D01*
X008441Y005101D01*
X006941Y009601D02*
X005841Y009601D01*
X005841Y010101D01*
X006941Y010101D01*
X006941Y009601D01*
X006941Y010601D02*
X006941Y011101D01*
X005841Y011101D01*
X005841Y010601D01*
X006941Y010601D01*
X005641Y007651D02*
X005641Y006551D01*
X005141Y006551D01*
X005141Y007651D01*
X005641Y007651D01*
X005891Y032301D02*
X006391Y032301D01*
X006391Y033401D01*
X005891Y033401D01*
X005891Y032301D01*
X004441Y048101D02*
X003341Y048101D01*
X003341Y048601D01*
X004441Y048601D01*
X004441Y048101D01*
X013141Y036401D02*
X013141Y035301D01*
X013641Y035301D01*
X013641Y036401D01*
X013141Y036401D01*
X014141Y036401D02*
X014141Y035301D01*
X014641Y035301D01*
X014641Y036401D01*
X014141Y036401D01*
X013727Y039026D02*
X016045Y039026D01*
X016045Y040315D02*
X013727Y040315D01*
X017152Y027853D02*
X017998Y027853D01*
X017998Y027852D02*
X018023Y027850D01*
X018047Y027844D01*
X018069Y027835D01*
X018090Y027822D01*
X018109Y027806D01*
X018125Y027787D01*
X018138Y027766D01*
X018147Y027744D01*
X018153Y027720D01*
X018155Y027695D01*
X018156Y027695D02*
X018156Y019506D01*
X018155Y019506D02*
X018153Y019481D01*
X018147Y019457D01*
X018138Y019435D01*
X018125Y019414D01*
X018109Y019395D01*
X018090Y019379D01*
X018069Y019366D01*
X018047Y019357D01*
X018023Y019351D01*
X017998Y019349D01*
X017152Y019349D01*
X018200Y022695D02*
X019558Y022695D01*
X019558Y021632D01*
X019912Y021632D01*
X019912Y025550D01*
X019558Y025550D01*
X019558Y024506D01*
X019558Y022715D01*
X019558Y024506D02*
X018200Y024506D01*
X017995Y011853D02*
X017149Y011853D01*
X017995Y011852D02*
X018020Y011850D01*
X018044Y011844D01*
X018066Y011835D01*
X018087Y011822D01*
X018106Y011806D01*
X018122Y011787D01*
X018135Y011766D01*
X018144Y011744D01*
X018150Y011720D01*
X018152Y011695D01*
X018153Y011695D02*
X018153Y003506D01*
X018152Y003506D02*
X018150Y003481D01*
X018144Y003457D01*
X018135Y003435D01*
X018122Y003414D01*
X018106Y003395D01*
X018087Y003379D01*
X018066Y003366D01*
X018044Y003357D01*
X018020Y003351D01*
X017995Y003349D01*
X017149Y003349D01*
D16*
X009891Y013645D02*
X009966Y013720D01*
X009966Y013870D01*
X009891Y013945D01*
X009516Y013945D01*
X009591Y014105D02*
X009516Y014180D01*
X009516Y014330D01*
X009591Y014405D01*
X009666Y014405D01*
X009741Y014330D01*
X009816Y014405D01*
X009891Y014405D01*
X009966Y014330D01*
X009966Y014180D01*
X009891Y014105D01*
X009741Y014255D02*
X009741Y014330D01*
X009741Y014565D02*
X009741Y014866D01*
X009666Y014866D02*
X009966Y014866D01*
X009666Y014866D02*
X009516Y014715D01*
X009666Y014565D01*
X009966Y014565D01*
X009891Y013645D02*
X009516Y013645D01*
X005196Y010347D02*
X005196Y010196D01*
X005196Y010272D02*
X004746Y010272D01*
X004821Y010196D01*
X004821Y010036D02*
X004746Y009961D01*
X004746Y009736D01*
X005196Y009736D01*
X005196Y009961D01*
X005121Y010036D01*
X005046Y010036D01*
X004971Y009961D01*
X004971Y009736D01*
X004971Y009961D02*
X004896Y010036D01*
X004821Y010036D01*
X004746Y009576D02*
X004746Y009276D01*
X005196Y009276D01*
X004971Y009276D02*
X004971Y009426D01*
X003727Y015726D02*
X003426Y015726D01*
X003727Y016026D01*
X003727Y016101D01*
X003652Y016176D01*
X003501Y016176D01*
X003426Y016101D01*
X003266Y016176D02*
X003266Y015801D01*
X003191Y015726D01*
X003041Y015726D01*
X002966Y015801D01*
X002966Y016176D01*
X004391Y021426D02*
X004316Y021501D01*
X004766Y021501D01*
X004766Y021426D02*
X004766Y021576D01*
X006597Y032336D02*
X006972Y032336D01*
X007047Y032411D01*
X007047Y032561D01*
X006972Y032636D01*
X006597Y032636D01*
X006597Y032796D02*
X006822Y032796D01*
X006747Y032946D01*
X006747Y033021D01*
X006822Y033096D01*
X006972Y033096D01*
X007047Y033021D01*
X007047Y032871D01*
X006972Y032796D01*
X007047Y033256D02*
X007047Y033482D01*
X006972Y033557D01*
X006897Y033557D01*
X006822Y033482D01*
X006822Y033256D01*
X007047Y033256D02*
X006597Y033256D01*
X006597Y033482D01*
X006672Y033557D01*
X006747Y033557D01*
X006822Y033482D01*
X006597Y033096D02*
X006597Y032796D01*
X010866Y029976D02*
X010866Y029526D01*
X011091Y029526D01*
X011166Y029601D01*
X011166Y029901D01*
X011091Y029976D01*
X010866Y029976D01*
X011326Y029901D02*
X011401Y029976D01*
X011401Y029526D01*
X011326Y029526D02*
X011477Y029526D01*
X013141Y036726D02*
X013141Y038476D01*
X017141Y038476D01*
X017141Y036726D01*
X013141Y036726D01*
X011436Y041266D02*
X016941Y041266D01*
X016941Y041301D02*
X016941Y046401D01*
X016941Y046436D02*
X011436Y046436D01*
X011431Y046411D02*
X011431Y041291D01*
X013891Y041851D02*
X016391Y042101D01*
X016391Y043351D01*
X013891Y043601D01*
X013891Y044101D02*
X016391Y044351D01*
X016391Y045601D01*
X013891Y045851D01*
X004966Y044959D02*
X004848Y044959D01*
X004966Y044959D02*
X004966Y047243D01*
X004848Y047243D01*
X003903Y047243D02*
X002879Y047243D01*
X001934Y047243D02*
X001816Y047243D01*
X001816Y045077D01*
X001934Y044959D01*
X002879Y044959D02*
X003903Y044959D01*
X001891Y040886D02*
X001966Y040811D01*
X001966Y040661D01*
X001891Y040586D01*
X001591Y040886D01*
X001891Y040886D01*
X001891Y040586D02*
X001591Y040586D01*
X001516Y040661D01*
X001516Y040811D01*
X001591Y040886D01*
X001741Y040426D02*
X001741Y040126D01*
X001516Y040351D01*
X001966Y040351D01*
X001741Y037347D02*
X001591Y037347D01*
X001516Y037272D01*
X001516Y037046D01*
X001966Y037046D01*
X001816Y037046D02*
X001816Y037272D01*
X001741Y037347D01*
X001966Y036886D02*
X001516Y036586D01*
X001516Y036426D02*
X001516Y036126D01*
X001966Y036126D01*
X001966Y036426D01*
X001966Y036586D02*
X001516Y036886D01*
X001741Y036276D02*
X001741Y036126D01*
D17*
X006665Y037975D03*
X006862Y037975D03*
X007058Y037975D03*
X007255Y037975D03*
X007452Y037975D03*
X007649Y037975D03*
X007846Y037975D03*
X008043Y037975D03*
X008240Y037975D03*
X008436Y037975D03*
X008633Y037975D03*
X008830Y037975D03*
X009027Y037975D03*
X009224Y037975D03*
X009421Y037975D03*
X009617Y037975D03*
X009617Y042227D03*
X009421Y042227D03*
X009224Y042227D03*
X009027Y042227D03*
X008830Y042227D03*
X008633Y042227D03*
X008436Y042227D03*
X008240Y042227D03*
X008043Y042227D03*
X007846Y042227D03*
X007649Y042227D03*
X007452Y042227D03*
X007255Y042227D03*
X007058Y042227D03*
X006862Y042227D03*
X006665Y042227D03*
D18*
X006015Y041577D03*
X006015Y041380D03*
X006015Y041183D03*
X006015Y040987D03*
X006015Y040790D03*
X006015Y040593D03*
X006015Y040396D03*
X006015Y040199D03*
X006015Y040002D03*
X006015Y039806D03*
X006015Y039609D03*
X006015Y039412D03*
X006015Y039215D03*
X006015Y039018D03*
X006015Y038821D03*
X006015Y038624D03*
X010267Y038624D03*
X010267Y038821D03*
X010267Y039018D03*
X010267Y039215D03*
X010267Y039412D03*
X010267Y039609D03*
X010267Y039806D03*
X010267Y040002D03*
X010267Y040199D03*
X010267Y040396D03*
X010267Y040593D03*
X010267Y040790D03*
X010267Y040987D03*
X010267Y041183D03*
X010267Y041380D03*
X010267Y041577D03*
D19*
X005947Y038257D02*
X005947Y038160D01*
X005947Y038209D02*
X005657Y038209D01*
X005706Y038160D01*
X005657Y038059D02*
X005899Y038059D01*
X005947Y038011D01*
X005947Y037914D01*
X005899Y037866D01*
X005657Y037866D01*
D20*
X013288Y037616D02*
X013919Y037616D01*
X013919Y037511D02*
X013919Y037721D01*
X013393Y037511D02*
X013288Y037616D01*
X014788Y037701D02*
X014788Y037491D01*
X014893Y037386D01*
X014788Y037701D02*
X014893Y037806D01*
X014998Y037806D01*
X015419Y037386D01*
X015419Y037806D01*
X015341Y017751D02*
X011141Y017751D01*
X011141Y013351D01*
X015341Y013351D01*
X015341Y013851D01*
X019041Y013851D01*
X019041Y017251D01*
X015341Y017251D01*
X015341Y017751D01*
X015341Y017251D02*
X015341Y013851D01*
D21*
X002761Y016351D02*
X002761Y019851D01*
D22*
X007354Y032277D02*
X008929Y032277D01*
X008929Y034245D01*
X007354Y034245D01*
X007354Y032277D01*
D23*
X004271Y014921D03*
X004271Y013921D03*
X004271Y011081D03*
X004271Y010081D03*
D24*
X004271Y010251D02*
X004271Y010901D01*
X004271Y014101D02*
X004271Y014751D01*
D25*
X013591Y029601D03*
D26*
X012966Y029601D03*
X015316Y029601D03*
M02*
