G75*
G70*
%OFA0B0*%
%FSLAX24Y24*%
%IPPOS*%
%LPD*%
%AMOC8*
5,1,8,0,0,1.08239X$1,22.5*
%
%ADD10C,0.1490*%
%ADD11C,0.0789*%
%ADD12C,0.1025*%
%ADD13C,0.0710*%
%ADD14O,0.0560X0.1040*%
%ADD15C,0.0620*%
%ADD16R,0.0620X0.0620*%
%ADD17C,0.0980*%
%ADD18OC8,0.0560*%
%ADD19OC8,0.0680*%
%ADD20C,0.0540*%
%ADD21C,0.1390*%
%ADD22C,0.0740*%
%ADD23O,0.1460X0.0770*%
%ADD24C,0.1360*%
%ADD25C,0.1280*%
%ADD26C,0.1180*%
%ADD27C,0.0380*%
%ADD28C,0.0882*%
%ADD29C,0.0995*%
%ADD30C,0.0460*%
%ADD31C,0.0560*%
D10*
X001391Y001351D03*
X015891Y001351D03*
X015891Y048851D03*
X001391Y048851D03*
D11*
X010389Y023601D03*
X011891Y023601D03*
X011891Y020853D03*
X014393Y026849D03*
X012141Y009101D03*
X012141Y007601D03*
X012141Y006101D03*
X010141Y007601D03*
D12*
X010141Y010349D03*
X010141Y004853D03*
X010389Y022101D03*
X010389Y025101D03*
D13*
X013641Y022101D03*
X015641Y025101D03*
X015641Y009101D03*
X013641Y006101D03*
D14*
X008891Y012351D03*
X007891Y012351D03*
X006891Y012351D03*
X005891Y012351D03*
X005891Y015351D03*
X006891Y015351D03*
X007891Y015351D03*
X008891Y015351D03*
D15*
X011821Y042476D03*
X011821Y043456D03*
X011821Y044246D03*
X011821Y045226D03*
X009541Y046851D03*
X009241Y045851D03*
X008741Y046851D03*
X008441Y045851D03*
X007941Y046851D03*
D16*
X007641Y045851D03*
D17*
X006241Y047801D03*
X011041Y047801D03*
D18*
X013391Y038101D03*
X013391Y037101D03*
X014391Y037101D03*
X014391Y038101D03*
X004271Y015501D03*
X004271Y009501D03*
D19*
X003641Y021601D03*
X003641Y022601D03*
X003641Y023601D03*
X003641Y024601D03*
X003641Y025601D03*
X003641Y026601D03*
X003641Y027601D03*
X003641Y028601D03*
X003641Y029601D03*
X003641Y030601D03*
X003641Y031601D03*
X003641Y032601D03*
X003641Y033601D03*
X003641Y034601D03*
X003641Y035601D03*
X003641Y036601D03*
X003641Y037601D03*
X003641Y038601D03*
X003641Y039601D03*
X003641Y040601D03*
X002641Y040601D03*
X002641Y039601D03*
X002641Y038601D03*
X002641Y037601D03*
X002641Y036601D03*
X002641Y035601D03*
X002641Y034601D03*
X002641Y033601D03*
X002641Y032601D03*
X002641Y031601D03*
X002641Y030601D03*
X002641Y029601D03*
X002641Y028601D03*
X002641Y027601D03*
X002641Y026601D03*
X002641Y025601D03*
X002641Y024601D03*
X002641Y023601D03*
X002641Y022601D03*
X002641Y021601D03*
D20*
X014641Y032351D03*
X016491Y032351D03*
D21*
X012891Y041266D03*
X012891Y046436D03*
D22*
X012141Y029601D03*
X016141Y029601D03*
D23*
X013841Y017751D03*
X013841Y013351D03*
D24*
X013841Y015551D03*
D25*
X011941Y015551D03*
D26*
X015141Y017251D03*
X015141Y013851D03*
D27*
X007601Y006261D03*
X005391Y007781D03*
X003221Y003881D03*
X003151Y003461D03*
X003221Y014521D03*
X003501Y014871D03*
X002441Y016221D03*
X003001Y017131D03*
X003911Y018601D03*
X003501Y020051D03*
X002591Y020051D03*
X002171Y019981D03*
X001611Y015921D03*
X005391Y017111D03*
X006021Y014311D03*
X006651Y016621D03*
X006651Y017601D03*
X007071Y018601D03*
X004481Y025021D03*
X005601Y026771D03*
X005951Y027051D03*
X005461Y027681D03*
X005811Y027961D03*
X005461Y028241D03*
X005741Y028521D03*
X005461Y028801D03*
X005741Y029081D03*
X006141Y033531D03*
X005531Y038111D03*
X004691Y039161D03*
X005251Y039791D03*
X007701Y039021D03*
X008421Y038631D03*
X009381Y040071D03*
X009241Y041541D03*
X010201Y042101D03*
X009211Y043851D03*
X008161Y042971D03*
X008121Y045181D03*
X010991Y038251D03*
X011341Y038461D03*
X010501Y037271D03*
X010221Y037621D03*
X009451Y036711D03*
X009241Y033211D03*
X008141Y033351D03*
X002941Y041401D03*
X001611Y038531D03*
X001611Y037901D03*
X001331Y038181D03*
X001611Y028381D03*
X001541Y027821D03*
X001261Y028101D03*
D28*
X008571Y023601D03*
D29*
X008391Y019601D03*
X015731Y034911D03*
D30*
X014281Y038951D03*
X015121Y042451D03*
X015891Y040421D03*
X010771Y035181D03*
X008541Y032091D03*
X008121Y035521D03*
X008121Y036321D03*
X010571Y027681D03*
X004641Y048351D03*
D31*
X005191Y045241D03*
X006791Y043361D03*
X006791Y041331D03*
X002661Y042521D03*
M02*
