G75*
G70*
%OFA0B0*%
%FSLAX24Y24*%
%IPPOS*%
%LPD*%
%AMOC8*
5,1,8,0,0,1.08239X$1,22.5*
%
%ADD10C,0.1490*%
%ADD11C,0.0789*%
%ADD12C,0.1025*%
%ADD13C,0.0710*%
%ADD14O,0.0560X0.1040*%
%ADD15R,0.0190X0.0671*%
%ADD16R,0.0671X0.0190*%
%ADD17R,0.0316X0.0946*%
%ADD18R,0.0960X0.0560*%
%ADD19R,0.0946X0.1497*%
%ADD20R,0.1222X0.1064*%
%ADD21R,0.0620X0.0620*%
%ADD22C,0.0620*%
%ADD23C,0.0980*%
%ADD24OC8,0.0560*%
%ADD25R,0.0395X0.0395*%
%ADD26R,0.0880X0.0340*%
%ADD27R,0.0789X0.0867*%
%ADD28R,0.0946X0.0316*%
%ADD29R,0.0316X0.0552*%
%ADD30OC8,0.0680*%
%ADD31R,0.0789X0.1537*%
%ADD32R,0.1080X0.0980*%
%ADD33C,0.0540*%
%ADD34R,0.2830X0.0980*%
%ADD35C,0.1390*%
%ADD36C,0.0740*%
%ADD37C,0.0380*%
%ADD38C,0.0882*%
%ADD39C,0.0575*%
%ADD40C,0.0460*%
%ADD41C,0.0995*%
D10*
X001351Y001351D03*
X016851Y001351D03*
X016851Y048851D03*
X001351Y048851D03*
D11*
X011349Y017601D03*
X012851Y017601D03*
X012851Y014853D03*
X013101Y009101D03*
X013101Y007601D03*
X013101Y006101D03*
X011101Y007601D03*
X015353Y020849D03*
D12*
X011349Y019101D03*
X011349Y016101D03*
X011101Y010349D03*
X011101Y004853D03*
D13*
X014601Y006101D03*
X016601Y009101D03*
X014601Y016101D03*
X017351Y019101D03*
D14*
X008851Y015351D03*
X007851Y015351D03*
X006851Y015351D03*
X005851Y015351D03*
X005851Y012351D03*
X006851Y012351D03*
X007851Y012351D03*
X008851Y012351D03*
D15*
X008933Y039817D03*
X008737Y039817D03*
X008540Y039817D03*
X008343Y039817D03*
X008146Y039817D03*
X007949Y039817D03*
X007752Y039817D03*
X007556Y039817D03*
X007359Y039817D03*
X007162Y039817D03*
X006965Y039817D03*
X006768Y039817D03*
X006571Y039817D03*
X006374Y039817D03*
X006374Y044384D03*
X006571Y044384D03*
X006768Y044384D03*
X006965Y044384D03*
X007162Y044384D03*
X007359Y044384D03*
X007556Y044384D03*
X007752Y044384D03*
X007949Y044384D03*
X008146Y044384D03*
X008343Y044384D03*
X008540Y044384D03*
X008737Y044384D03*
X008933Y044384D03*
X009130Y044384D03*
X009327Y044384D03*
X009327Y039817D03*
X009130Y039817D03*
D16*
X010134Y040624D03*
X010134Y040821D03*
X010134Y041018D03*
X010134Y041215D03*
X010134Y041412D03*
X010134Y041609D03*
X010134Y041806D03*
X010134Y042002D03*
X010134Y042199D03*
X010134Y042396D03*
X010134Y042593D03*
X010134Y042790D03*
X010134Y042987D03*
X010134Y043183D03*
X010134Y043380D03*
X010134Y043577D03*
X005567Y043577D03*
X005567Y043380D03*
X005567Y043183D03*
X005567Y042987D03*
X005567Y042790D03*
X005567Y042593D03*
X005567Y042396D03*
X005567Y042199D03*
X005567Y042002D03*
X005567Y041806D03*
X005567Y041609D03*
X005567Y041412D03*
X005567Y041215D03*
X005567Y041018D03*
X005567Y040821D03*
X005567Y040624D03*
D17*
X007341Y011054D03*
X007841Y011054D03*
X008341Y011054D03*
X008841Y011054D03*
X008841Y009007D03*
X008341Y009007D03*
X007841Y009007D03*
X007341Y009007D03*
D18*
X011321Y024691D03*
X011321Y025601D03*
X011321Y026511D03*
D19*
X008881Y025601D03*
D20*
X008380Y020851D03*
X005821Y020851D03*
X005630Y046851D03*
X003071Y046851D03*
D21*
X014851Y037201D03*
D22*
X014851Y038001D03*
X014851Y038801D03*
X013851Y039101D03*
X013851Y038301D03*
X013851Y037501D03*
X012781Y043476D03*
X012781Y044456D03*
X012781Y045246D03*
X012781Y046226D03*
D23*
X015801Y040501D03*
X015801Y035701D03*
D24*
X015351Y031101D03*
X015351Y030101D03*
X014351Y030101D03*
X014351Y031101D03*
X003731Y015251D03*
X003731Y009251D03*
D25*
X005301Y007601D03*
X005901Y007601D03*
X006051Y009851D03*
X006051Y010851D03*
X006651Y010851D03*
X006651Y009851D03*
X008051Y007601D03*
X008051Y006851D03*
X008051Y005601D03*
X008051Y004851D03*
X008651Y004851D03*
X008651Y005601D03*
X008651Y006851D03*
X008651Y007601D03*
X006151Y018601D03*
X005551Y018601D03*
X005801Y030851D03*
X006401Y030851D03*
X006601Y037301D03*
X006601Y037901D03*
X008981Y038351D03*
X009581Y038351D03*
X011851Y039691D03*
X011851Y040291D03*
X009401Y045851D03*
X008801Y045851D03*
X004191Y042451D03*
X004191Y041851D03*
X009601Y032401D03*
X009601Y031801D03*
X012301Y029351D03*
X012301Y028601D03*
X012901Y028601D03*
X012901Y029351D03*
X013551Y032351D03*
X014151Y032351D03*
D26*
X004561Y019601D03*
X004561Y019101D03*
X004561Y018601D03*
X004561Y018101D03*
X004561Y017601D03*
X004561Y017101D03*
X004561Y016601D03*
X002141Y016601D03*
X002141Y017101D03*
X002141Y017601D03*
X002141Y018101D03*
X002141Y018601D03*
X002141Y019101D03*
X002141Y019601D03*
D27*
X008047Y046874D03*
X008047Y048528D03*
X010055Y048528D03*
X010055Y046874D03*
D28*
X009374Y035101D03*
X009374Y034601D03*
X009374Y034101D03*
X009374Y033601D03*
X007327Y033601D03*
X007327Y034101D03*
X007327Y034601D03*
X007327Y035101D03*
D29*
X007727Y032902D03*
X008101Y032902D03*
X008475Y032902D03*
X008494Y031800D03*
X007727Y031800D03*
D30*
X003601Y031601D03*
X003601Y032601D03*
X003601Y033601D03*
X003601Y034601D03*
X003601Y035601D03*
X003601Y036601D03*
X003601Y037601D03*
X003601Y038601D03*
X003601Y039601D03*
X003601Y040601D03*
X002601Y040601D03*
X002601Y039601D03*
X002601Y038601D03*
X002601Y037601D03*
X002601Y036601D03*
X002601Y035601D03*
X002601Y034601D03*
X002601Y033601D03*
X002601Y032601D03*
X002601Y031601D03*
X002601Y030601D03*
X002601Y029601D03*
X002601Y028601D03*
X002601Y027601D03*
X002601Y026601D03*
X002601Y025601D03*
X002601Y024601D03*
X002601Y023601D03*
X002601Y022601D03*
X002601Y021601D03*
X003601Y021601D03*
X003601Y022601D03*
X003601Y023601D03*
X003601Y024601D03*
X003601Y025601D03*
X003601Y026601D03*
X003601Y027601D03*
X003601Y028601D03*
X003601Y029601D03*
X003601Y030601D03*
D31*
X008044Y036851D03*
X009658Y036851D03*
D32*
X014851Y027601D03*
X016601Y027601D03*
D33*
X015601Y026101D03*
X017451Y026101D03*
D34*
X015726Y024601D03*
D35*
X013851Y042266D03*
X013851Y047436D03*
D36*
X014851Y023351D03*
X010851Y023351D03*
D37*
X009201Y031811D03*
X008101Y032441D03*
X006851Y030851D03*
X007331Y035451D03*
X008131Y040631D03*
X009321Y042031D03*
X008921Y043571D03*
X007871Y044971D03*
X010041Y039021D03*
X010811Y039721D03*
X010951Y040071D03*
X011091Y040421D03*
X013821Y040771D03*
X014241Y040771D03*
X014241Y041191D03*
X015361Y038951D03*
X015361Y038461D03*
X015921Y038461D03*
X015641Y016971D03*
X014311Y014171D03*
X014311Y011371D03*
X008061Y006261D03*
X006351Y007601D03*
X003181Y003881D03*
X003111Y003461D03*
X001571Y015921D03*
X002401Y016221D03*
X003311Y017131D03*
X003871Y018601D03*
X005211Y016621D03*
X006051Y017601D03*
X006541Y016691D03*
X006601Y018601D03*
X001851Y041471D03*
X001851Y041891D03*
X002831Y041541D03*
X004721Y041751D03*
X004651Y042171D03*
D38*
X007851Y025601D03*
X012351Y025601D03*
D39*
X008031Y038011D03*
X006601Y046821D03*
X007051Y048451D03*
X004161Y045561D03*
D40*
X004161Y042871D03*
X004381Y041391D03*
X006601Y036851D03*
X008151Y034611D03*
X008501Y031181D03*
X009551Y039021D03*
X011861Y039231D03*
X009851Y045851D03*
X012141Y024671D03*
D41*
X008351Y022351D03*
X016481Y028661D03*
M02*
