G75*
G70*
%OFA0B0*%
%FSLAX24Y24*%
%IPPOS*%
%LPD*%
%AMOC8*
5,1,8,0,0,1.08239X$1,22.5*
%
%ADD10C,0.1490*%
%ADD11C,0.0789*%
%ADD12C,0.1025*%
%ADD13C,0.0710*%
%ADD14O,0.0560X0.1040*%
%ADD15R,0.0620X0.0620*%
%ADD16C,0.0620*%
%ADD17C,0.0980*%
%ADD18OC8,0.0560*%
%ADD19OC8,0.0680*%
%ADD20C,0.0540*%
%ADD21C,0.1390*%
%ADD22C,0.0740*%
%ADD23C,0.0380*%
%ADD24C,0.0882*%
%ADD25C,0.0575*%
%ADD26C,0.0460*%
%ADD27C,0.0995*%
D10*
X001351Y001351D03*
X016851Y001351D03*
X016851Y048851D03*
X001351Y048851D03*
D11*
X011349Y017601D03*
X012851Y017601D03*
X012851Y014853D03*
X013101Y009101D03*
X013101Y007601D03*
X013101Y006101D03*
X011101Y007601D03*
X015353Y020849D03*
D12*
X011349Y019101D03*
X011349Y016101D03*
X011101Y010349D03*
X011101Y004853D03*
D13*
X014601Y006101D03*
X016601Y009101D03*
X014601Y016101D03*
X017351Y019101D03*
D14*
X008851Y015351D03*
X007851Y015351D03*
X006851Y015351D03*
X005851Y015351D03*
X005851Y012351D03*
X006851Y012351D03*
X007851Y012351D03*
X008851Y012351D03*
D15*
X014851Y037201D03*
D16*
X014851Y038001D03*
X014851Y038801D03*
X013851Y039101D03*
X013851Y038301D03*
X013851Y037501D03*
X012781Y043476D03*
X012781Y044456D03*
X012781Y045246D03*
X012781Y046226D03*
D17*
X015801Y040501D03*
X015801Y035701D03*
D18*
X015351Y031101D03*
X015351Y030101D03*
X014351Y030101D03*
X014351Y031101D03*
X003731Y015251D03*
X003731Y009251D03*
D19*
X003601Y021601D03*
X003601Y022601D03*
X003601Y023601D03*
X003601Y024601D03*
X003601Y025601D03*
X003601Y026601D03*
X003601Y027601D03*
X003601Y028601D03*
X003601Y029601D03*
X003601Y030601D03*
X003601Y031601D03*
X003601Y032601D03*
X003601Y033601D03*
X003601Y034601D03*
X003601Y035601D03*
X003601Y036601D03*
X003601Y037601D03*
X003601Y038601D03*
X003601Y039601D03*
X003601Y040601D03*
X002601Y040601D03*
X002601Y039601D03*
X002601Y038601D03*
X002601Y037601D03*
X002601Y036601D03*
X002601Y035601D03*
X002601Y034601D03*
X002601Y033601D03*
X002601Y032601D03*
X002601Y031601D03*
X002601Y030601D03*
X002601Y029601D03*
X002601Y028601D03*
X002601Y027601D03*
X002601Y026601D03*
X002601Y025601D03*
X002601Y024601D03*
X002601Y023601D03*
X002601Y022601D03*
X002601Y021601D03*
D20*
X015601Y026101D03*
X017451Y026101D03*
D21*
X013851Y042266D03*
X013851Y047436D03*
D22*
X014851Y023351D03*
X010851Y023351D03*
D23*
X009201Y031811D03*
X008101Y032441D03*
X006851Y030851D03*
X007331Y035451D03*
X008131Y040631D03*
X009321Y042031D03*
X008921Y043571D03*
X007871Y044971D03*
X010041Y039021D03*
X010811Y039721D03*
X010951Y040071D03*
X011091Y040421D03*
X013821Y040771D03*
X014241Y040771D03*
X014241Y041191D03*
X015361Y038951D03*
X015361Y038461D03*
X015921Y038461D03*
X015641Y016971D03*
X014311Y014171D03*
X014311Y011371D03*
X008061Y006261D03*
X006351Y007601D03*
X003181Y003881D03*
X003111Y003461D03*
X001571Y015921D03*
X002401Y016221D03*
X003311Y017131D03*
X003871Y018601D03*
X005211Y016621D03*
X006051Y017601D03*
X006541Y016691D03*
X006601Y018601D03*
X001851Y041471D03*
X001851Y041891D03*
X002831Y041541D03*
X004721Y041751D03*
X004651Y042171D03*
D24*
X007851Y025601D03*
X012351Y025601D03*
D25*
X008031Y038011D03*
X006601Y046821D03*
X007051Y048451D03*
X004161Y045561D03*
D26*
X004161Y042871D03*
X004381Y041391D03*
X006601Y036851D03*
X008151Y034611D03*
X008501Y031181D03*
X009551Y039021D03*
X011861Y039231D03*
X009851Y045851D03*
X012141Y024671D03*
D27*
X008351Y022351D03*
X016481Y028661D03*
M02*
