G75*
G70*
%OFA0B0*%
%FSLAX24Y24*%
%IPPOS*%
%LPD*%
%AMOC8*
5,1,8,0,0,1.08239X$1,22.5*
%
%ADD10C,0.0709*%
%ADD11C,0.0945*%
%ADD12O,0.0480X0.0960*%
%ADD13R,0.0540X0.0540*%
%ADD14C,0.0540*%
%ADD15OC8,0.0480*%
%ADD16OC8,0.0600*%
%ADD17C,0.1310*%
%ADD18C,0.0660*%
%ADD19C,0.0070*%
%ADD20C,0.0300*%
%ADD21C,0.0802*%
%ADD22C,0.0495*%
%ADD23C,0.0380*%
%ADD24C,0.0915*%
%ADD25C,0.0240*%
%ADD26C,0.0210*%
%ADD27C,0.0320*%
D10*
X015353Y020849D03*
X012851Y017601D03*
X012851Y014853D03*
X011349Y017601D03*
X013101Y009101D03*
X013101Y007601D03*
X013101Y006101D03*
X011101Y007601D03*
D11*
X011101Y010349D03*
X011101Y004853D03*
X011349Y016101D03*
X011349Y019101D03*
D12*
X008851Y015351D03*
X007851Y015351D03*
X006851Y015351D03*
X005851Y015351D03*
X005851Y012351D03*
X006851Y012351D03*
X007851Y012351D03*
X008851Y012351D03*
D13*
X014851Y037201D03*
D14*
X014851Y038001D03*
X014851Y038801D03*
X013851Y039101D03*
X013851Y038301D03*
X013851Y037501D03*
X012781Y043476D03*
X012781Y044456D03*
X012781Y045246D03*
X012781Y046226D03*
D15*
X014351Y031101D03*
X014351Y030101D03*
X015351Y030101D03*
X015351Y031101D03*
X003731Y015251D03*
X003731Y009251D03*
D16*
X003601Y021601D03*
X003601Y022601D03*
X003601Y023601D03*
X003601Y024601D03*
X003601Y025601D03*
X003601Y026601D03*
X003601Y027601D03*
X003601Y028601D03*
X003601Y029601D03*
X003601Y030601D03*
X003601Y031601D03*
X003601Y032601D03*
X003601Y033601D03*
X003601Y034601D03*
X003601Y035601D03*
X003601Y036601D03*
X003601Y037601D03*
X003601Y038601D03*
X003601Y039601D03*
X003601Y040601D03*
X002601Y040601D03*
X002601Y039601D03*
X002601Y038601D03*
X002601Y037601D03*
X002601Y036601D03*
X002601Y035601D03*
X002601Y034601D03*
X002601Y033601D03*
X002601Y032601D03*
X002601Y031601D03*
X002601Y030601D03*
X002601Y029601D03*
X002601Y028601D03*
X002601Y027601D03*
X002601Y026601D03*
X002601Y025601D03*
X002601Y024601D03*
X002601Y023601D03*
X002601Y022601D03*
X002601Y021601D03*
D17*
X013851Y042266D03*
X013851Y047436D03*
D18*
X014851Y023351D03*
X010851Y023351D03*
D19*
X001101Y002481D02*
X001101Y047720D01*
X001124Y047711D01*
X001578Y047711D01*
X001997Y047884D01*
X002317Y048205D01*
X002491Y048624D01*
X002491Y049078D01*
X002481Y049101D01*
X015720Y049101D01*
X015711Y049078D01*
X015711Y048624D01*
X015884Y048205D01*
X016205Y047884D01*
X016624Y047711D01*
X017078Y047711D01*
X017101Y047720D01*
X017101Y026676D01*
X017074Y026665D01*
X016887Y026477D01*
X016786Y026233D01*
X016786Y025968D01*
X016887Y025724D01*
X017074Y025537D01*
X017101Y025526D01*
X017101Y019809D01*
X016926Y019737D01*
X016715Y019526D01*
X016601Y019250D01*
X016601Y018952D01*
X016715Y018676D01*
X011783Y018676D01*
X011715Y018607D02*
X016783Y018607D01*
X016715Y018676D02*
X016926Y018465D01*
X017101Y018393D01*
X017101Y009661D01*
X017026Y009737D01*
X016750Y009851D01*
X016452Y009851D01*
X016176Y009737D01*
X015965Y009526D01*
X015851Y009250D01*
X015851Y008952D01*
X015965Y008676D01*
X016176Y008465D01*
X016452Y008351D01*
X016750Y008351D01*
X017026Y008465D01*
X017101Y008540D01*
X017101Y002481D01*
X017078Y002491D01*
X016624Y002491D01*
X016205Y002317D01*
X015884Y001997D01*
X015711Y001578D01*
X015711Y001124D01*
X015720Y001101D01*
X002481Y001101D01*
X002491Y001124D01*
X002491Y001578D01*
X002317Y001997D01*
X001997Y002317D01*
X001578Y002491D01*
X001124Y002491D01*
X001101Y002481D01*
X001101Y002500D02*
X017101Y002500D01*
X017101Y002568D02*
X001101Y002568D01*
X001101Y002637D02*
X017101Y002637D01*
X017101Y002705D02*
X001101Y002705D01*
X001101Y002774D02*
X017101Y002774D01*
X017101Y002843D02*
X001101Y002843D01*
X001101Y002911D02*
X017101Y002911D01*
X017101Y002980D02*
X001101Y002980D01*
X001101Y003048D02*
X017101Y003048D01*
X017101Y003117D02*
X001101Y003117D01*
X001101Y003185D02*
X003031Y003185D01*
X003054Y003176D02*
X003167Y003176D01*
X003272Y003219D01*
X003352Y003299D01*
X003396Y003404D01*
X003396Y003517D01*
X003352Y003622D01*
X003337Y003637D01*
X003342Y003639D01*
X003422Y003719D01*
X003466Y003824D01*
X003466Y003937D01*
X003422Y004042D01*
X003342Y004122D01*
X003237Y004166D01*
X003124Y004166D01*
X003019Y004122D01*
X002948Y004051D01*
X001851Y004051D01*
X001741Y004161D01*
X001741Y015688D01*
X001812Y015759D01*
X001856Y015864D01*
X001856Y015977D01*
X001812Y016082D01*
X001732Y016162D01*
X001627Y016206D01*
X001514Y016206D01*
X001461Y016184D01*
X001461Y040840D01*
X001571Y040951D01*
X002336Y040951D01*
X002166Y040781D01*
X002166Y040421D01*
X002421Y040166D01*
X002781Y040166D01*
X003036Y040421D01*
X003036Y040781D01*
X002866Y040951D01*
X003250Y040951D01*
X003336Y040951D01*
X003166Y040781D01*
X003166Y040421D01*
X003421Y040166D01*
X003781Y040166D01*
X004036Y040421D01*
X004036Y040781D01*
X003781Y041036D01*
X003476Y041036D01*
X004161Y041721D01*
X004436Y041721D01*
X004436Y041694D01*
X004479Y041589D01*
X004559Y041509D01*
X004664Y041466D01*
X004777Y041466D01*
X004882Y041509D01*
X004962Y041589D01*
X005006Y041694D01*
X005006Y041807D01*
X004962Y041912D01*
X008751Y041912D01*
X008751Y041844D02*
X004991Y041844D01*
X005006Y041775D02*
X008751Y041775D01*
X008751Y041707D02*
X005006Y041707D01*
X004983Y041638D02*
X008751Y041638D01*
X008751Y041569D02*
X004943Y041569D01*
X004862Y041501D02*
X008751Y041501D01*
X008751Y041432D02*
X003873Y041432D01*
X003804Y041364D02*
X008751Y041364D01*
X008751Y041295D02*
X003736Y041295D01*
X003667Y041227D02*
X008751Y041227D01*
X008751Y041158D02*
X003599Y041158D01*
X003530Y041090D02*
X008751Y041090D01*
X008751Y041021D02*
X003796Y041021D01*
X003864Y040953D02*
X008751Y040953D01*
X008751Y040884D02*
X003933Y040884D01*
X004001Y040816D02*
X008751Y040816D01*
X008751Y040747D02*
X004036Y040747D01*
X004036Y040678D02*
X008751Y040678D01*
X008751Y040610D02*
X004036Y040610D01*
X004036Y040541D02*
X008751Y040541D01*
X008751Y040473D02*
X004036Y040473D01*
X004019Y040404D02*
X008751Y040404D01*
X008751Y040336D02*
X003951Y040336D01*
X003882Y040267D02*
X008751Y040267D01*
X008751Y040199D02*
X003814Y040199D01*
X003781Y040036D02*
X004036Y039781D01*
X004036Y039421D01*
X003781Y039166D01*
X003421Y039166D01*
X003166Y039421D01*
X003166Y039781D01*
X003421Y040036D01*
X003781Y040036D01*
X003824Y039993D02*
X008751Y039993D01*
X008751Y040062D02*
X001461Y040062D01*
X001461Y040130D02*
X008751Y040130D01*
X008751Y039924D02*
X003892Y039924D01*
X003961Y039856D02*
X008751Y039856D01*
X008751Y039787D02*
X004029Y039787D01*
X004036Y039719D02*
X008751Y039719D01*
X008751Y039650D02*
X004036Y039650D01*
X004036Y039582D02*
X008751Y039582D01*
X008751Y039513D02*
X004036Y039513D01*
X004036Y039445D02*
X008751Y039445D01*
X008751Y039376D02*
X003991Y039376D01*
X003923Y039308D02*
X008751Y039308D01*
X008751Y039239D02*
X003854Y039239D01*
X003786Y039170D02*
X008751Y039170D01*
X008751Y039102D02*
X001461Y039102D01*
X001461Y039170D02*
X002416Y039170D01*
X002421Y039166D02*
X002781Y039166D01*
X003036Y039421D01*
X003036Y039781D01*
X002781Y040036D01*
X002421Y040036D01*
X002166Y039781D01*
X002166Y039421D01*
X002421Y039166D01*
X002347Y039239D02*
X001461Y039239D01*
X001461Y039308D02*
X002279Y039308D01*
X002210Y039376D02*
X001461Y039376D01*
X001461Y039445D02*
X002166Y039445D01*
X002166Y039513D02*
X001461Y039513D01*
X001461Y039582D02*
X002166Y039582D01*
X002166Y039650D02*
X001461Y039650D01*
X001461Y039719D02*
X002166Y039719D01*
X002172Y039787D02*
X001461Y039787D01*
X001461Y039856D02*
X002241Y039856D01*
X002309Y039924D02*
X001461Y039924D01*
X001461Y039993D02*
X002378Y039993D01*
X002388Y040199D02*
X001461Y040199D01*
X001461Y040267D02*
X002319Y040267D01*
X002251Y040336D02*
X001461Y040336D01*
X001461Y040404D02*
X002182Y040404D01*
X002166Y040473D02*
X001461Y040473D01*
X001461Y040541D02*
X002166Y040541D01*
X002166Y040610D02*
X001461Y040610D01*
X001461Y040678D02*
X002166Y040678D01*
X002166Y040747D02*
X001461Y040747D01*
X001461Y040816D02*
X002200Y040816D01*
X002269Y040884D02*
X001504Y040884D01*
X001291Y040911D02*
X001501Y041121D01*
X003321Y041121D01*
X004091Y041891D01*
X004581Y041891D01*
X004721Y041751D01*
X004459Y041638D02*
X004078Y041638D01*
X004010Y041569D02*
X004499Y041569D01*
X004579Y041501D02*
X003941Y041501D01*
X004147Y041707D02*
X004436Y041707D01*
X004511Y042031D02*
X004651Y042171D01*
X004511Y042031D02*
X004021Y042031D01*
X003251Y041261D01*
X002061Y041261D01*
X001851Y041471D01*
X001658Y041681D02*
X001609Y041632D01*
X001566Y041527D01*
X001566Y041414D01*
X001609Y041309D01*
X001628Y041291D01*
X001430Y041291D01*
X001331Y041191D01*
X001121Y040981D01*
X001121Y040840D01*
X001121Y015640D01*
X001220Y015541D01*
X001261Y015500D01*
X001261Y003950D01*
X001360Y003851D01*
X001640Y003571D01*
X001781Y003571D01*
X002760Y003571D01*
X002826Y003505D01*
X002826Y003404D01*
X002869Y003299D01*
X002949Y003219D01*
X003054Y003176D01*
X003190Y003185D02*
X017101Y003185D01*
X017101Y003254D02*
X003307Y003254D01*
X003362Y003322D02*
X017101Y003322D01*
X017101Y003391D02*
X003390Y003391D01*
X003396Y003459D02*
X017101Y003459D01*
X017101Y003528D02*
X003391Y003528D01*
X003363Y003596D02*
X017101Y003596D01*
X017101Y003665D02*
X003368Y003665D01*
X003428Y003734D02*
X017101Y003734D01*
X017101Y003802D02*
X003457Y003802D01*
X003466Y003871D02*
X017101Y003871D01*
X017101Y003939D02*
X003465Y003939D01*
X003437Y004008D02*
X017101Y004008D01*
X017101Y004076D02*
X003388Y004076D01*
X003288Y004145D02*
X017101Y004145D01*
X017101Y004213D02*
X001741Y004213D01*
X001741Y004282D02*
X010892Y004282D01*
X010980Y004245D02*
X010757Y004338D01*
X010586Y004509D01*
X010493Y004732D01*
X010493Y004974D01*
X010586Y005197D01*
X010757Y005368D01*
X010980Y005460D01*
X011222Y005460D01*
X011445Y005368D01*
X011616Y005197D01*
X011708Y004974D01*
X011708Y004732D01*
X011616Y004509D01*
X011445Y004338D01*
X011222Y004245D01*
X010980Y004245D01*
X010744Y004350D02*
X001741Y004350D01*
X001741Y004419D02*
X010675Y004419D01*
X010607Y004488D02*
X001741Y004488D01*
X001741Y004556D02*
X010566Y004556D01*
X010538Y004625D02*
X001741Y004625D01*
X001741Y004693D02*
X010509Y004693D01*
X010493Y004762D02*
X001741Y004762D01*
X001741Y004830D02*
X010493Y004830D01*
X010493Y004899D02*
X001741Y004899D01*
X001741Y004967D02*
X010493Y004967D01*
X010519Y005036D02*
X001741Y005036D01*
X001741Y005104D02*
X010548Y005104D01*
X010576Y005173D02*
X001741Y005173D01*
X001741Y005242D02*
X010631Y005242D01*
X010699Y005310D02*
X001741Y005310D01*
X001741Y005379D02*
X010783Y005379D01*
X010949Y005447D02*
X001741Y005447D01*
X001741Y005516D02*
X014125Y005516D01*
X014176Y005465D02*
X014452Y005351D01*
X014750Y005351D01*
X015026Y005465D01*
X015237Y005676D01*
X015351Y005952D01*
X015351Y006250D01*
X015237Y006526D01*
X015026Y006737D01*
X014750Y006851D01*
X014452Y006851D01*
X014176Y006737D01*
X013965Y006526D01*
X013851Y006250D01*
X013851Y005952D01*
X013965Y005676D01*
X014176Y005465D01*
X014219Y005447D02*
X011253Y005447D01*
X011418Y005379D02*
X014384Y005379D01*
X014057Y005584D02*
X001741Y005584D01*
X001741Y005653D02*
X012904Y005653D01*
X012824Y005686D02*
X013003Y005611D01*
X013066Y005611D01*
X013066Y006066D01*
X012611Y006066D01*
X012611Y006003D01*
X012686Y005824D01*
X012824Y005686D01*
X012788Y005721D02*
X001741Y005721D01*
X001741Y005790D02*
X012720Y005790D01*
X012671Y005858D02*
X001741Y005858D01*
X001741Y005927D02*
X012643Y005927D01*
X012615Y005996D02*
X001741Y005996D01*
X001741Y006064D02*
X012611Y006064D01*
X012611Y006136D02*
X013066Y006136D01*
X013066Y006590D01*
X013003Y006590D01*
X012824Y006516D01*
X012686Y006378D01*
X012611Y006198D01*
X012611Y006136D01*
X012613Y006201D02*
X001741Y006201D01*
X001741Y006133D02*
X013851Y006133D01*
X013851Y006201D02*
X013589Y006201D01*
X013590Y006198D02*
X013516Y006378D01*
X013378Y006516D01*
X013198Y006590D01*
X013136Y006590D01*
X013136Y006136D01*
X013590Y006136D01*
X013590Y006198D01*
X013560Y006270D02*
X013859Y006270D01*
X013887Y006338D02*
X013532Y006338D01*
X013487Y006407D02*
X013916Y006407D01*
X013944Y006475D02*
X013418Y006475D01*
X013310Y006544D02*
X013983Y006544D01*
X014052Y006612D02*
X001741Y006612D01*
X001741Y006544D02*
X012892Y006544D01*
X012783Y006475D02*
X001741Y006475D01*
X001741Y006407D02*
X012715Y006407D01*
X012670Y006338D02*
X001741Y006338D01*
X001741Y006270D02*
X012641Y006270D01*
X013066Y006270D02*
X013136Y006270D01*
X013136Y006338D02*
X013066Y006338D01*
X013066Y006407D02*
X013136Y006407D01*
X013136Y006475D02*
X013066Y006475D01*
X013066Y006544D02*
X013136Y006544D01*
X013136Y006201D02*
X013066Y006201D01*
X013066Y006064D02*
X013136Y006064D01*
X013136Y006066D02*
X013136Y005611D01*
X013198Y005611D01*
X013378Y005686D01*
X013516Y005824D01*
X013590Y006003D01*
X013590Y006066D01*
X013136Y006066D01*
X013136Y005996D02*
X013066Y005996D01*
X013066Y005927D02*
X013136Y005927D01*
X013136Y005858D02*
X013066Y005858D01*
X013066Y005790D02*
X013136Y005790D01*
X013136Y005721D02*
X013066Y005721D01*
X013066Y005653D02*
X013136Y005653D01*
X013298Y005653D02*
X013988Y005653D01*
X013946Y005721D02*
X013413Y005721D01*
X013482Y005790D02*
X013918Y005790D01*
X013889Y005858D02*
X013530Y005858D01*
X013558Y005927D02*
X013861Y005927D01*
X013851Y005996D02*
X013587Y005996D01*
X013590Y006064D02*
X013851Y006064D01*
X014120Y006681D02*
X001741Y006681D01*
X001741Y006749D02*
X014207Y006749D01*
X014373Y006818D02*
X001741Y006818D01*
X001741Y006887D02*
X017101Y006887D01*
X017101Y006955D02*
X001741Y006955D01*
X001741Y007024D02*
X017101Y007024D01*
X017101Y007092D02*
X001741Y007092D01*
X001741Y007161D02*
X010884Y007161D01*
X010824Y007186D02*
X011003Y007111D01*
X011198Y007111D01*
X011378Y007186D01*
X011516Y007324D01*
X011590Y007503D01*
X011590Y007698D01*
X011516Y007878D01*
X011378Y008016D01*
X011198Y008090D01*
X011003Y008090D01*
X010824Y008016D01*
X010686Y007878D01*
X010611Y007698D01*
X010611Y007503D01*
X001741Y007503D01*
X001741Y007435D02*
X010640Y007435D01*
X010611Y007503D02*
X010686Y007324D01*
X010824Y007186D01*
X010780Y007229D02*
X001741Y007229D01*
X001741Y007298D02*
X010712Y007298D01*
X010668Y007366D02*
X001741Y007366D01*
X001741Y007572D02*
X010611Y007572D01*
X010611Y007641D02*
X001741Y007641D01*
X001741Y007709D02*
X010616Y007709D01*
X010644Y007778D02*
X001741Y007778D01*
X001741Y007846D02*
X010673Y007846D01*
X010723Y007915D02*
X001741Y007915D01*
X001741Y007983D02*
X010791Y007983D01*
X010911Y008052D02*
X001741Y008052D01*
X001741Y008120D02*
X017101Y008120D01*
X017101Y008052D02*
X013291Y008052D01*
X013378Y008016D02*
X013198Y008090D01*
X013136Y008090D01*
X013136Y007636D01*
X013590Y007636D01*
X013590Y007698D01*
X013516Y007878D01*
X013378Y008016D01*
X013410Y007983D02*
X017101Y007983D01*
X017101Y007915D02*
X013479Y007915D01*
X013529Y007846D02*
X017101Y007846D01*
X017101Y007778D02*
X013557Y007778D01*
X013586Y007709D02*
X017101Y007709D01*
X017101Y007641D02*
X013590Y007641D01*
X013590Y007566D02*
X013136Y007566D01*
X013136Y007111D01*
X013198Y007111D01*
X013378Y007186D01*
X013516Y007324D01*
X013590Y007503D01*
X013590Y007566D01*
X013590Y007503D02*
X017101Y007503D01*
X017101Y007435D02*
X013562Y007435D01*
X013533Y007366D02*
X017101Y007366D01*
X017101Y007298D02*
X013490Y007298D01*
X013421Y007229D02*
X017101Y007229D01*
X017101Y007161D02*
X013317Y007161D01*
X013136Y007161D02*
X013066Y007161D01*
X013066Y007111D02*
X013066Y007566D01*
X012611Y007566D01*
X012611Y007503D01*
X011590Y007503D01*
X011590Y007572D02*
X017101Y007572D01*
X017101Y006818D02*
X014829Y006818D01*
X014994Y006749D02*
X017101Y006749D01*
X017101Y006681D02*
X015081Y006681D01*
X015150Y006612D02*
X017101Y006612D01*
X017101Y006544D02*
X015218Y006544D01*
X015257Y006475D02*
X017101Y006475D01*
X017101Y006407D02*
X015286Y006407D01*
X015314Y006338D02*
X017101Y006338D01*
X017101Y006270D02*
X015343Y006270D01*
X015351Y006201D02*
X017101Y006201D01*
X017101Y006133D02*
X015351Y006133D01*
X015351Y006064D02*
X017101Y006064D01*
X017101Y005996D02*
X015351Y005996D01*
X015341Y005927D02*
X017101Y005927D01*
X017101Y005858D02*
X015312Y005858D01*
X015284Y005790D02*
X017101Y005790D01*
X017101Y005721D02*
X015255Y005721D01*
X015213Y005653D02*
X017101Y005653D01*
X017101Y005584D02*
X015145Y005584D01*
X015076Y005516D02*
X017101Y005516D01*
X017101Y005447D02*
X014983Y005447D01*
X014817Y005379D02*
X017101Y005379D01*
X017101Y005310D02*
X011502Y005310D01*
X011571Y005242D02*
X017101Y005242D01*
X017101Y005173D02*
X011626Y005173D01*
X011654Y005104D02*
X017101Y005104D01*
X017101Y005036D02*
X011682Y005036D01*
X011708Y004967D02*
X017101Y004967D01*
X017101Y004899D02*
X011708Y004899D01*
X011708Y004830D02*
X017101Y004830D01*
X017101Y004762D02*
X011708Y004762D01*
X011692Y004693D02*
X017101Y004693D01*
X017101Y004625D02*
X011664Y004625D01*
X011635Y004556D02*
X017101Y004556D01*
X017101Y004488D02*
X011595Y004488D01*
X011526Y004419D02*
X017101Y004419D01*
X017101Y004350D02*
X011458Y004350D01*
X011310Y004282D02*
X017101Y004282D01*
X016480Y002431D02*
X001721Y002431D01*
X001887Y002363D02*
X016315Y002363D01*
X016182Y002294D02*
X002020Y002294D01*
X002088Y002226D02*
X016113Y002226D01*
X016045Y002157D02*
X002157Y002157D01*
X002225Y002089D02*
X015976Y002089D01*
X015908Y002020D02*
X002294Y002020D01*
X002336Y001951D02*
X015866Y001951D01*
X015837Y001883D02*
X002364Y001883D01*
X002393Y001814D02*
X015809Y001814D01*
X015781Y001746D02*
X002421Y001746D01*
X002449Y001677D02*
X015752Y001677D01*
X015724Y001609D02*
X002478Y001609D01*
X002491Y001540D02*
X015711Y001540D01*
X015711Y001472D02*
X002491Y001472D01*
X002491Y001403D02*
X015711Y001403D01*
X015711Y001335D02*
X002491Y001335D01*
X002491Y001266D02*
X015711Y001266D01*
X015711Y001197D02*
X002491Y001197D01*
X002491Y001129D02*
X015711Y001129D01*
X013066Y007111D02*
X013003Y007111D01*
X012824Y007186D01*
X012686Y007324D01*
X012611Y007503D01*
X012640Y007435D02*
X011562Y007435D01*
X011533Y007366D02*
X012668Y007366D01*
X012712Y007298D02*
X011490Y007298D01*
X011421Y007229D02*
X012780Y007229D01*
X012884Y007161D02*
X011317Y007161D01*
X011557Y007778D02*
X012644Y007778D01*
X012673Y007846D02*
X011529Y007846D01*
X011479Y007915D02*
X012723Y007915D01*
X012686Y007878D02*
X012611Y007698D01*
X012611Y007636D01*
X013066Y007636D01*
X013066Y008090D01*
X013003Y008090D01*
X012824Y008016D01*
X012686Y007878D01*
X012791Y007983D02*
X011410Y007983D01*
X011291Y008052D02*
X012911Y008052D01*
X013066Y008052D02*
X013136Y008052D01*
X013136Y007983D02*
X013066Y007983D01*
X013066Y007915D02*
X013136Y007915D01*
X013136Y007846D02*
X013066Y007846D01*
X013066Y007778D02*
X013136Y007778D01*
X013136Y007709D02*
X013066Y007709D01*
X013066Y007641D02*
X013136Y007641D01*
X013136Y007503D02*
X013066Y007503D01*
X013066Y007435D02*
X013136Y007435D01*
X013136Y007366D02*
X013066Y007366D01*
X013066Y007298D02*
X013136Y007298D01*
X013136Y007229D02*
X013066Y007229D01*
X012616Y007709D02*
X011586Y007709D01*
X011590Y007641D02*
X012611Y007641D01*
X012989Y008331D02*
X013113Y008331D01*
X013213Y008331D01*
X013220Y008338D01*
X013223Y008338D01*
X013235Y008341D01*
X013309Y008348D01*
X013322Y008361D01*
X013332Y008361D01*
X013365Y008376D01*
X013412Y008389D01*
X013420Y008398D01*
X013436Y008398D01*
X013486Y008433D01*
X013508Y008443D01*
X013513Y008448D01*
X013534Y008448D01*
X013596Y008509D01*
X013691Y008605D01*
X013691Y008605D01*
X013754Y008668D01*
X013754Y008689D01*
X013758Y008694D01*
X013768Y008715D01*
X013804Y008766D01*
X013804Y008781D01*
X013813Y008790D01*
X013825Y008837D01*
X013841Y008870D01*
X013841Y008880D01*
X013854Y008893D01*
X013860Y008967D01*
X013863Y008978D01*
X013863Y008981D01*
X013871Y008989D01*
X013871Y009089D01*
X013871Y009124D01*
X013871Y015904D01*
X013965Y015676D01*
X014176Y015465D01*
X014452Y015351D01*
X014750Y015351D01*
X015026Y015465D01*
X015237Y015676D01*
X015351Y015952D01*
X015351Y016250D01*
X015237Y016526D01*
X015026Y016737D01*
X014750Y016851D01*
X014452Y016851D01*
X014176Y016737D01*
X013965Y016526D01*
X013857Y016266D01*
X013854Y016309D01*
X013841Y016322D01*
X013841Y016332D01*
X013825Y016365D01*
X013813Y016412D01*
X013804Y016420D01*
X013804Y016436D01*
X013768Y016486D01*
X013758Y016508D01*
X013754Y016513D01*
X013754Y016534D01*
X013692Y016596D01*
X013596Y016691D01*
X013534Y016754D01*
X013513Y016754D01*
X013508Y016758D01*
X013486Y016768D01*
X013436Y016804D01*
X013420Y016804D01*
X013412Y016813D01*
X013364Y016825D01*
X014390Y016825D01*
X014225Y016757D02*
X013510Y016757D01*
X013599Y016688D02*
X014128Y016688D01*
X014059Y016620D02*
X013668Y016620D01*
X013737Y016551D02*
X013991Y016551D01*
X013947Y016483D02*
X013771Y016483D01*
X013810Y016414D02*
X013919Y016414D01*
X013890Y016346D02*
X013834Y016346D01*
X013856Y016277D02*
X013862Y016277D01*
X013588Y016208D02*
X012056Y016208D01*
X012056Y016241D02*
X011949Y016501D01*
X011849Y016601D01*
X013101Y016601D01*
X013188Y016593D01*
X013272Y016571D01*
X013351Y016534D01*
X013422Y016484D01*
X013484Y016422D01*
X013534Y016351D01*
X013571Y016272D01*
X013593Y016188D01*
X013601Y016101D01*
X013601Y009101D01*
X013593Y009014D01*
X013571Y008930D01*
X013534Y008851D01*
X013517Y008826D01*
X013590Y009003D01*
X013590Y009066D01*
X013136Y009066D01*
X013136Y008611D01*
X013198Y008611D01*
X013375Y008685D01*
X013351Y008668D01*
X013272Y008631D01*
X013188Y008608D01*
X013101Y008601D01*
X003351Y008601D01*
X003264Y008608D01*
X003180Y008631D01*
X003101Y008668D01*
X003029Y008718D01*
X002968Y008779D01*
X002918Y008851D01*
X002881Y008930D01*
X002858Y009014D01*
X002851Y009101D01*
X002851Y013351D01*
X002858Y013438D01*
X002881Y013522D01*
X002918Y013601D01*
X002968Y013672D01*
X003029Y013734D01*
X003101Y013784D01*
X003180Y013821D01*
X003264Y013843D01*
X003351Y013851D01*
X006851Y013851D01*
X006938Y013858D01*
X007022Y013881D01*
X007101Y013918D01*
X007172Y013968D01*
X007234Y014029D01*
X007284Y014101D01*
X007321Y014180D01*
X007343Y014264D01*
X007351Y014351D01*
X007351Y016101D01*
X007358Y016188D01*
X007381Y016272D01*
X007418Y016351D01*
X007468Y016422D01*
X007529Y016484D01*
X007601Y016534D01*
X007680Y016571D01*
X007764Y016593D01*
X007851Y016601D01*
X010848Y016601D01*
X010749Y016501D01*
X010641Y016241D01*
X010641Y015960D01*
X010749Y015700D01*
X010948Y015501D01*
X011208Y015393D01*
X011490Y015393D01*
X011750Y015501D01*
X011949Y015700D01*
X012056Y015960D01*
X012056Y016241D01*
X012042Y016277D02*
X013568Y016277D01*
X013536Y016346D02*
X012013Y016346D01*
X011985Y016414D02*
X013489Y016414D01*
X013423Y016483D02*
X011956Y016483D01*
X011899Y016551D02*
X013314Y016551D01*
X013364Y016825D02*
X013332Y016841D01*
X013322Y016841D01*
X013309Y016854D01*
X013235Y016860D01*
X013223Y016863D01*
X013220Y016863D01*
X013213Y016871D01*
X013113Y016871D01*
X013045Y016871D01*
X007963Y016871D01*
X007839Y016871D01*
X007739Y016871D01*
X007731Y016863D01*
X007728Y016863D01*
X007717Y016860D01*
X007643Y016854D01*
X007630Y016841D01*
X007620Y016841D01*
X007587Y016825D01*
X007540Y016813D01*
X007531Y016804D01*
X007516Y016804D01*
X007465Y016768D01*
X007444Y016758D01*
X007439Y016754D01*
X007418Y016754D01*
X007356Y016692D01*
X007355Y016691D01*
X007346Y016682D01*
X007260Y016596D01*
X007198Y016534D01*
X007198Y016513D01*
X007193Y016508D01*
X007183Y016486D01*
X007148Y016436D01*
X007148Y016420D01*
X007139Y016412D01*
X007126Y016365D01*
X007111Y016332D01*
X007111Y016322D01*
X007098Y016309D01*
X007091Y016235D01*
X007088Y016223D01*
X007088Y016220D01*
X007081Y016213D01*
X007081Y015891D01*
X007006Y015966D01*
X006991Y015966D01*
X006991Y016481D01*
X006891Y016581D01*
X006826Y016646D01*
X006826Y016747D01*
X006782Y016852D01*
X006702Y016932D01*
X006597Y016976D01*
X006484Y016976D01*
X006379Y016932D01*
X006299Y016852D01*
X006256Y016747D01*
X006256Y016634D01*
X006299Y016529D01*
X006379Y016449D01*
X006484Y016406D01*
X006585Y016406D01*
X006651Y016340D01*
X006651Y015921D01*
X006476Y015746D01*
X006476Y014955D01*
X006695Y014736D01*
X007006Y014736D01*
X007081Y014811D01*
X007081Y014362D01*
X007076Y014311D01*
X007066Y014272D01*
X007049Y014236D01*
X007026Y014204D01*
X006998Y014175D01*
X006965Y014152D01*
X001741Y014152D01*
X001741Y014084D02*
X003105Y014084D01*
X003120Y014091D02*
X003087Y014075D01*
X003040Y014063D01*
X003031Y014054D01*
X003016Y014054D01*
X002965Y014018D01*
X002944Y014008D01*
X002939Y014004D01*
X002918Y014004D01*
X002856Y013942D01*
X002760Y013846D01*
X002698Y013784D01*
X002698Y013763D01*
X002693Y013758D01*
X002683Y013736D01*
X002648Y013686D01*
X002648Y013670D01*
X002639Y013662D01*
X002626Y013614D01*
X002611Y013582D01*
X002611Y013572D01*
X002598Y013559D01*
X002591Y013485D01*
X002588Y013473D01*
X002588Y013470D01*
X002581Y013463D01*
X002581Y009213D01*
X002581Y009089D01*
X002581Y008989D01*
X002588Y008981D01*
X002588Y008978D01*
X002591Y008967D01*
X002598Y008893D01*
X002611Y008880D01*
X002611Y008870D01*
X002626Y008837D01*
X002639Y008790D01*
X002648Y008781D01*
X002648Y008766D01*
X002683Y008715D01*
X002693Y008694D01*
X002698Y008689D01*
X002698Y008668D01*
X002759Y008606D01*
X002855Y008510D01*
X002855Y008510D01*
X002918Y008448D01*
X002939Y008448D01*
X002944Y008443D01*
X002965Y008433D01*
X003016Y008398D01*
X003031Y008398D01*
X003040Y008389D01*
X003087Y008376D01*
X003120Y008361D01*
X003130Y008361D01*
X003143Y008348D01*
X003217Y008341D01*
X003228Y008338D01*
X003231Y008338D01*
X003239Y008331D01*
X012989Y008331D01*
X013003Y008611D02*
X012824Y008686D01*
X012686Y008824D01*
X012611Y009003D01*
X012611Y009066D01*
X013066Y009066D01*
X013066Y008611D01*
X013003Y008611D01*
X013066Y008669D02*
X013136Y008669D01*
X013136Y008737D02*
X013066Y008737D01*
X013066Y008806D02*
X013136Y008806D01*
X013136Y008874D02*
X013066Y008874D01*
X013066Y008943D02*
X013136Y008943D01*
X013136Y009011D02*
X013066Y009011D01*
X013066Y009136D02*
X013066Y009590D01*
X013003Y009590D01*
X012824Y009516D01*
X012686Y009378D01*
X012611Y009198D01*
X012611Y009136D01*
X013066Y009136D01*
X013066Y009149D02*
X013136Y009149D01*
X013136Y009136D02*
X013590Y009136D01*
X013590Y009198D01*
X013516Y009378D01*
X013378Y009516D01*
X013198Y009590D01*
X013136Y009590D01*
X013136Y009136D01*
X013136Y009217D02*
X013066Y009217D01*
X013066Y009286D02*
X013136Y009286D01*
X013136Y009354D02*
X013066Y009354D01*
X013066Y009423D02*
X013136Y009423D01*
X013136Y009491D02*
X013066Y009491D01*
X013066Y009560D02*
X013136Y009560D01*
X013271Y009560D02*
X013601Y009560D01*
X013601Y009628D02*
X002851Y009628D01*
X002851Y009560D02*
X003509Y009560D01*
X003575Y009626D02*
X003356Y009406D01*
X003356Y009286D01*
X003696Y009286D01*
X003696Y009626D01*
X003575Y009626D01*
X003696Y009560D02*
X003766Y009560D01*
X003766Y009626D02*
X003766Y009286D01*
X004106Y009286D01*
X004106Y009406D01*
X003886Y009626D01*
X003766Y009626D01*
X003766Y009491D02*
X003696Y009491D01*
X003696Y009423D02*
X003766Y009423D01*
X003766Y009354D02*
X003696Y009354D01*
X003696Y009216D02*
X003356Y009216D01*
X003356Y009095D01*
X003575Y008876D01*
X003696Y008876D01*
X003696Y009216D01*
X003696Y009149D02*
X003766Y009149D01*
X003766Y009216D02*
X003766Y008876D01*
X003886Y008876D01*
X004106Y009095D01*
X004106Y009216D01*
X003766Y009216D01*
X003766Y009080D02*
X003696Y009080D01*
X003696Y009011D02*
X003766Y009011D01*
X003766Y008943D02*
X003696Y008943D01*
X003508Y008943D02*
X002877Y008943D01*
X002859Y009011D02*
X003440Y009011D01*
X003371Y009080D02*
X002853Y009080D01*
X002851Y009149D02*
X003356Y009149D01*
X003356Y009354D02*
X002851Y009354D01*
X002851Y009286D02*
X012648Y009286D01*
X012676Y009354D02*
X004106Y009354D01*
X004089Y009423D02*
X012731Y009423D01*
X012799Y009491D02*
X004021Y009491D01*
X003952Y009560D02*
X012930Y009560D01*
X012619Y009217D02*
X002851Y009217D01*
X002851Y009423D02*
X003372Y009423D01*
X003441Y009491D02*
X002851Y009491D01*
X002851Y009697D02*
X010826Y009697D01*
X010700Y009749D02*
X010960Y009641D01*
X011241Y009641D01*
X011501Y009749D01*
X011701Y009948D01*
X011808Y010208D01*
X011808Y010490D01*
X011701Y010750D01*
X011501Y010949D01*
X011241Y011056D01*
X010960Y011056D01*
X010700Y010949D01*
X010501Y010750D01*
X010393Y010490D01*
X010393Y010208D01*
X010501Y009948D01*
X010700Y009749D01*
X010684Y009765D02*
X002851Y009765D01*
X002851Y009834D02*
X010615Y009834D01*
X010547Y009902D02*
X002851Y009902D01*
X002851Y009971D02*
X010491Y009971D01*
X010463Y010040D02*
X002851Y010040D01*
X002851Y010108D02*
X010435Y010108D01*
X010406Y010177D02*
X002851Y010177D01*
X002851Y010245D02*
X010393Y010245D01*
X010393Y010314D02*
X002851Y010314D01*
X002851Y010382D02*
X010393Y010382D01*
X010393Y010451D02*
X002851Y010451D01*
X002851Y010519D02*
X010406Y010519D01*
X010434Y010588D02*
X002851Y010588D01*
X002851Y010656D02*
X010462Y010656D01*
X010491Y010725D02*
X002851Y010725D01*
X002851Y010794D02*
X010545Y010794D01*
X010614Y010862D02*
X002851Y010862D01*
X002851Y010931D02*
X010682Y010931D01*
X010822Y010999D02*
X002851Y010999D01*
X002851Y011068D02*
X013601Y011068D01*
X013601Y011136D02*
X002851Y011136D01*
X002851Y011205D02*
X013601Y011205D01*
X013601Y011273D02*
X002851Y011273D01*
X002851Y011342D02*
X013601Y011342D01*
X013601Y011410D02*
X002851Y011410D01*
X002851Y011479D02*
X013601Y011479D01*
X013601Y011548D02*
X002851Y011548D01*
X002851Y011616D02*
X013601Y011616D01*
X013601Y011685D02*
X009096Y011685D01*
X009048Y011636D02*
X009326Y011914D01*
X009326Y012788D01*
X009048Y013066D01*
X008654Y013066D01*
X008376Y012788D01*
X008376Y011914D01*
X008654Y011636D01*
X009048Y011636D01*
X009165Y011753D02*
X013601Y011753D01*
X013601Y011822D02*
X009233Y011822D01*
X009302Y011890D02*
X013601Y011890D01*
X013601Y011959D02*
X009326Y011959D01*
X009326Y012027D02*
X013601Y012027D01*
X013601Y012096D02*
X009326Y012096D01*
X009326Y012164D02*
X013601Y012164D01*
X013601Y012233D02*
X009326Y012233D01*
X009326Y012301D02*
X013601Y012301D01*
X013601Y012370D02*
X009326Y012370D01*
X009326Y012439D02*
X013601Y012439D01*
X013601Y012507D02*
X009326Y012507D01*
X009326Y012576D02*
X013601Y012576D01*
X013601Y012644D02*
X009326Y012644D01*
X009326Y012713D02*
X013601Y012713D01*
X013601Y012781D02*
X009326Y012781D01*
X009263Y012850D02*
X013601Y012850D01*
X013601Y012918D02*
X009195Y012918D01*
X009126Y012987D02*
X013601Y012987D01*
X013601Y013055D02*
X009058Y013055D01*
X008644Y013055D02*
X008058Y013055D01*
X008048Y013066D02*
X007654Y013066D01*
X007376Y012788D01*
X007376Y011914D01*
X007654Y011636D01*
X008048Y011636D01*
X008326Y011914D01*
X008326Y012788D01*
X008048Y013066D01*
X008126Y012987D02*
X008575Y012987D01*
X008507Y012918D02*
X008195Y012918D01*
X008263Y012850D02*
X008438Y012850D01*
X008376Y012781D02*
X008326Y012781D01*
X008326Y012713D02*
X008376Y012713D01*
X008376Y012644D02*
X008326Y012644D01*
X008326Y012576D02*
X008376Y012576D01*
X008376Y012507D02*
X008326Y012507D01*
X008326Y012439D02*
X008376Y012439D01*
X008376Y012370D02*
X008326Y012370D01*
X008326Y012301D02*
X008376Y012301D01*
X008376Y012233D02*
X008326Y012233D01*
X008326Y012164D02*
X008376Y012164D01*
X008376Y012096D02*
X008326Y012096D01*
X008326Y012027D02*
X008376Y012027D01*
X008376Y011959D02*
X008326Y011959D01*
X008302Y011890D02*
X008400Y011890D01*
X008468Y011822D02*
X008233Y011822D01*
X008165Y011753D02*
X008537Y011753D01*
X008605Y011685D02*
X008096Y011685D01*
X007605Y011685D02*
X007096Y011685D01*
X007048Y011636D02*
X007326Y011914D01*
X007326Y012788D01*
X007048Y013066D01*
X006654Y013066D01*
X006376Y012788D01*
X006376Y011914D01*
X006654Y011636D01*
X007048Y011636D01*
X007165Y011753D02*
X007537Y011753D01*
X007468Y011822D02*
X007233Y011822D01*
X007302Y011890D02*
X007400Y011890D01*
X007376Y011959D02*
X007326Y011959D01*
X007326Y012027D02*
X007376Y012027D01*
X007376Y012096D02*
X007326Y012096D01*
X007326Y012164D02*
X007376Y012164D01*
X007376Y012233D02*
X007326Y012233D01*
X007326Y012301D02*
X007376Y012301D01*
X007376Y012370D02*
X007326Y012370D01*
X007326Y012439D02*
X007376Y012439D01*
X007376Y012507D02*
X007326Y012507D01*
X007326Y012576D02*
X007376Y012576D01*
X007376Y012644D02*
X007326Y012644D01*
X007326Y012713D02*
X007376Y012713D01*
X007376Y012781D02*
X007326Y012781D01*
X007263Y012850D02*
X007438Y012850D01*
X007507Y012918D02*
X007195Y012918D01*
X007126Y012987D02*
X007575Y012987D01*
X007644Y013055D02*
X007058Y013055D01*
X006644Y013055D02*
X006058Y013055D01*
X006048Y013066D02*
X005654Y013066D01*
X005376Y012788D01*
X005376Y011914D01*
X005654Y011636D01*
X006048Y011636D01*
X006326Y011914D01*
X006326Y012788D01*
X006048Y013066D01*
X006126Y012987D02*
X006575Y012987D01*
X006507Y012918D02*
X006195Y012918D01*
X006263Y012850D02*
X006438Y012850D01*
X006376Y012781D02*
X006326Y012781D01*
X006326Y012713D02*
X006376Y012713D01*
X006376Y012644D02*
X006326Y012644D01*
X006326Y012576D02*
X006376Y012576D01*
X006376Y012507D02*
X006326Y012507D01*
X006326Y012439D02*
X006376Y012439D01*
X006376Y012370D02*
X006326Y012370D01*
X006326Y012301D02*
X006376Y012301D01*
X006376Y012233D02*
X006326Y012233D01*
X006326Y012164D02*
X006376Y012164D01*
X006376Y012096D02*
X006326Y012096D01*
X006326Y012027D02*
X006376Y012027D01*
X006376Y011959D02*
X006326Y011959D01*
X006302Y011890D02*
X006400Y011890D01*
X006468Y011822D02*
X006233Y011822D01*
X006165Y011753D02*
X006537Y011753D01*
X006605Y011685D02*
X006096Y011685D01*
X005605Y011685D02*
X002851Y011685D01*
X002851Y011753D02*
X005537Y011753D01*
X005468Y011822D02*
X002851Y011822D01*
X002851Y011890D02*
X005400Y011890D01*
X005376Y011959D02*
X002851Y011959D01*
X002851Y012027D02*
X005376Y012027D01*
X005376Y012096D02*
X002851Y012096D01*
X002851Y012164D02*
X005376Y012164D01*
X005376Y012233D02*
X002851Y012233D01*
X002851Y012301D02*
X005376Y012301D01*
X005376Y012370D02*
X002851Y012370D01*
X002851Y012439D02*
X005376Y012439D01*
X005376Y012507D02*
X002851Y012507D01*
X002851Y012576D02*
X005376Y012576D01*
X005376Y012644D02*
X002851Y012644D01*
X002851Y012713D02*
X005376Y012713D01*
X005376Y012781D02*
X002851Y012781D01*
X002851Y012850D02*
X005438Y012850D01*
X005507Y012918D02*
X002851Y012918D01*
X002851Y012987D02*
X005575Y012987D01*
X005644Y013055D02*
X002851Y013055D01*
X002851Y013124D02*
X013601Y013124D01*
X013601Y013193D02*
X002851Y013193D01*
X002851Y013261D02*
X013601Y013261D01*
X013601Y013330D02*
X002851Y013330D01*
X002855Y013398D02*
X013601Y013398D01*
X013601Y013467D02*
X002866Y013467D01*
X002887Y013535D02*
X013601Y013535D01*
X013601Y013604D02*
X002920Y013604D01*
X002968Y013672D02*
X013601Y013672D01*
X013601Y013741D02*
X003039Y013741D01*
X003156Y013809D02*
X013601Y013809D01*
X013601Y013878D02*
X007011Y013878D01*
X007142Y013947D02*
X013601Y013947D01*
X013601Y014015D02*
X007219Y014015D01*
X007272Y014084D02*
X013601Y014084D01*
X013601Y014152D02*
X007308Y014152D01*
X007332Y014221D02*
X013601Y014221D01*
X013601Y014289D02*
X007345Y014289D01*
X007351Y014358D02*
X013601Y014358D01*
X013601Y014426D02*
X013100Y014426D01*
X013128Y014438D02*
X013266Y014576D01*
X013340Y014755D01*
X013340Y014818D01*
X012886Y014818D01*
X012886Y014363D01*
X012948Y014363D01*
X013128Y014438D01*
X013185Y014495D02*
X013601Y014495D01*
X013601Y014563D02*
X013253Y014563D01*
X013289Y014632D02*
X013601Y014632D01*
X013601Y014701D02*
X013317Y014701D01*
X013340Y014769D02*
X013601Y014769D01*
X013601Y014838D02*
X009249Y014838D01*
X009318Y014906D02*
X012361Y014906D01*
X012361Y014888D02*
X012816Y014888D01*
X012816Y015342D01*
X012753Y015342D01*
X012574Y015268D01*
X012436Y015130D01*
X012361Y014950D01*
X012361Y014888D01*
X012361Y014818D02*
X012361Y014755D01*
X012436Y014576D01*
X012574Y014438D01*
X012753Y014363D01*
X012816Y014363D01*
X012816Y014818D01*
X012361Y014818D01*
X012361Y014769D02*
X009181Y014769D01*
X009112Y014701D02*
X012384Y014701D01*
X012413Y014632D02*
X007351Y014632D01*
X007351Y014701D02*
X007589Y014701D01*
X007654Y014636D02*
X007376Y014914D01*
X007376Y015788D01*
X007654Y016066D01*
X008048Y016066D01*
X008326Y015788D01*
X008326Y014914D01*
X008048Y014636D01*
X007654Y014636D01*
X007521Y014769D02*
X007351Y014769D01*
X007351Y014838D02*
X007452Y014838D01*
X007384Y014906D02*
X007351Y014906D01*
X007351Y014975D02*
X007376Y014975D01*
X007376Y015043D02*
X007351Y015043D01*
X007351Y015112D02*
X007376Y015112D01*
X007376Y015180D02*
X007351Y015180D01*
X007351Y015249D02*
X007376Y015249D01*
X007376Y015317D02*
X007351Y015317D01*
X007351Y015386D02*
X007376Y015386D01*
X007376Y015454D02*
X007351Y015454D01*
X007351Y015523D02*
X007376Y015523D01*
X007376Y015592D02*
X007351Y015592D01*
X007351Y015660D02*
X007376Y015660D01*
X007376Y015729D02*
X007351Y015729D01*
X007351Y015797D02*
X007385Y015797D01*
X007351Y015866D02*
X007454Y015866D01*
X007523Y015934D02*
X007351Y015934D01*
X007351Y016003D02*
X007591Y016003D01*
X007364Y016208D02*
X010641Y016208D01*
X010641Y016140D02*
X007354Y016140D01*
X007351Y016071D02*
X010641Y016071D01*
X010641Y016003D02*
X009110Y016003D01*
X009048Y016066D02*
X008654Y016066D01*
X008376Y015788D01*
X008376Y014914D01*
X008654Y014636D01*
X009048Y014636D01*
X009326Y014914D01*
X009326Y015788D01*
X009048Y016066D01*
X009179Y015934D02*
X010652Y015934D01*
X010680Y015866D02*
X009248Y015866D01*
X009316Y015797D02*
X010709Y015797D01*
X010737Y015729D02*
X009326Y015729D01*
X009326Y015660D02*
X010789Y015660D01*
X010858Y015592D02*
X009326Y015592D01*
X009326Y015523D02*
X010926Y015523D01*
X011060Y015454D02*
X009326Y015454D01*
X009326Y015386D02*
X013601Y015386D01*
X013601Y015454D02*
X011637Y015454D01*
X011772Y015523D02*
X013601Y015523D01*
X013601Y015592D02*
X011840Y015592D01*
X011909Y015660D02*
X013601Y015660D01*
X013601Y015729D02*
X011960Y015729D01*
X011989Y015797D02*
X013601Y015797D01*
X013601Y015866D02*
X012017Y015866D01*
X012046Y015934D02*
X013601Y015934D01*
X013601Y016003D02*
X012056Y016003D01*
X012056Y016071D02*
X013601Y016071D01*
X013597Y016140D02*
X012056Y016140D01*
X012555Y015249D02*
X009326Y015249D01*
X009326Y015317D02*
X012694Y015317D01*
X012816Y015317D02*
X012886Y015317D01*
X012886Y015342D02*
X012886Y014888D01*
X013340Y014888D01*
X013340Y014950D01*
X013266Y015130D01*
X013128Y015268D01*
X012948Y015342D01*
X012886Y015342D01*
X012886Y015249D02*
X012816Y015249D01*
X012816Y015180D02*
X012886Y015180D01*
X012886Y015112D02*
X012816Y015112D01*
X012816Y015043D02*
X012886Y015043D01*
X012886Y014975D02*
X012816Y014975D01*
X012816Y014906D02*
X012886Y014906D01*
X012886Y014769D02*
X012816Y014769D01*
X012816Y014701D02*
X012886Y014701D01*
X012886Y014632D02*
X012816Y014632D01*
X012816Y014563D02*
X012886Y014563D01*
X012886Y014495D02*
X012816Y014495D01*
X012816Y014426D02*
X012886Y014426D01*
X012601Y014426D02*
X007351Y014426D01*
X007351Y014495D02*
X012517Y014495D01*
X012448Y014563D02*
X007351Y014563D01*
X007081Y014563D02*
X001741Y014563D01*
X001741Y014495D02*
X007081Y014495D01*
X007081Y014426D02*
X001741Y014426D01*
X001741Y014358D02*
X007080Y014358D01*
X007071Y014289D02*
X001741Y014289D01*
X001741Y014221D02*
X007038Y014221D01*
X006965Y014152D02*
X006929Y014136D01*
X006891Y014125D01*
X006839Y014121D01*
X003463Y014121D01*
X003339Y014121D01*
X003239Y014121D01*
X003231Y014113D01*
X003228Y014113D01*
X003217Y014110D01*
X003143Y014104D01*
X003130Y014091D01*
X003120Y014091D01*
X002958Y014015D02*
X001741Y014015D01*
X001741Y013947D02*
X002860Y013947D01*
X002792Y013878D02*
X001741Y013878D01*
X001741Y013809D02*
X002723Y013809D01*
X002685Y013741D02*
X001741Y013741D01*
X001741Y013672D02*
X002648Y013672D01*
X002621Y013604D02*
X001741Y013604D01*
X001741Y013535D02*
X002596Y013535D01*
X002585Y013467D02*
X001741Y013467D01*
X001741Y013398D02*
X002581Y013398D01*
X002581Y013330D02*
X001741Y013330D01*
X001741Y013261D02*
X002581Y013261D01*
X002581Y013193D02*
X001741Y013193D01*
X001741Y013124D02*
X002581Y013124D01*
X002581Y013055D02*
X001741Y013055D01*
X001741Y012987D02*
X002581Y012987D01*
X002581Y012918D02*
X001741Y012918D01*
X001741Y012850D02*
X002581Y012850D01*
X002581Y012781D02*
X001741Y012781D01*
X001741Y012713D02*
X002581Y012713D01*
X002581Y012644D02*
X001741Y012644D01*
X001741Y012576D02*
X002581Y012576D01*
X002581Y012507D02*
X001741Y012507D01*
X001741Y012439D02*
X002581Y012439D01*
X002581Y012370D02*
X001741Y012370D01*
X001741Y012301D02*
X002581Y012301D01*
X002581Y012233D02*
X001741Y012233D01*
X001741Y012164D02*
X002581Y012164D01*
X002581Y012096D02*
X001741Y012096D01*
X001741Y012027D02*
X002581Y012027D01*
X002581Y011959D02*
X001741Y011959D01*
X001741Y011890D02*
X002581Y011890D01*
X002581Y011822D02*
X001741Y011822D01*
X001741Y011753D02*
X002581Y011753D01*
X002581Y011685D02*
X001741Y011685D01*
X001741Y011616D02*
X002581Y011616D01*
X002581Y011548D02*
X001741Y011548D01*
X001741Y011479D02*
X002581Y011479D01*
X002581Y011410D02*
X001741Y011410D01*
X001741Y011342D02*
X002581Y011342D01*
X002581Y011273D02*
X001741Y011273D01*
X001741Y011205D02*
X002581Y011205D01*
X002581Y011136D02*
X001741Y011136D01*
X001741Y011068D02*
X002581Y011068D01*
X002581Y010999D02*
X001741Y010999D01*
X001741Y010931D02*
X002581Y010931D01*
X002581Y010862D02*
X001741Y010862D01*
X001741Y010794D02*
X002581Y010794D01*
X002581Y010725D02*
X001741Y010725D01*
X001741Y010656D02*
X002581Y010656D01*
X002581Y010588D02*
X001741Y010588D01*
X001741Y010519D02*
X002581Y010519D01*
X002581Y010451D02*
X001741Y010451D01*
X001741Y010382D02*
X002581Y010382D01*
X002581Y010314D02*
X001741Y010314D01*
X001741Y010245D02*
X002581Y010245D01*
X002581Y010177D02*
X001741Y010177D01*
X001741Y010108D02*
X002581Y010108D01*
X002581Y010040D02*
X001741Y010040D01*
X001741Y009971D02*
X002581Y009971D01*
X002581Y009902D02*
X001741Y009902D01*
X001741Y009834D02*
X002581Y009834D01*
X002581Y009765D02*
X001741Y009765D01*
X001741Y009697D02*
X002581Y009697D01*
X002581Y009628D02*
X001741Y009628D01*
X001741Y009560D02*
X002581Y009560D01*
X002581Y009491D02*
X001741Y009491D01*
X001741Y009423D02*
X002581Y009423D01*
X002581Y009354D02*
X001741Y009354D01*
X001741Y009286D02*
X002581Y009286D01*
X002581Y009217D02*
X001741Y009217D01*
X001741Y009149D02*
X002581Y009149D01*
X002581Y009080D02*
X001741Y009080D01*
X001741Y009011D02*
X002581Y009011D01*
X002594Y008943D02*
X001741Y008943D01*
X001741Y008874D02*
X002611Y008874D01*
X002635Y008806D02*
X001741Y008806D01*
X001741Y008737D02*
X002668Y008737D01*
X002698Y008669D02*
X001741Y008669D01*
X001741Y008600D02*
X002765Y008600D01*
X002834Y008532D02*
X001741Y008532D01*
X001741Y008463D02*
X002902Y008463D01*
X003034Y008395D02*
X001741Y008395D01*
X001741Y008326D02*
X017101Y008326D01*
X017101Y008395D02*
X016855Y008395D01*
X017021Y008463D02*
X017101Y008463D01*
X017092Y008532D02*
X017101Y008532D01*
X017101Y008257D02*
X001741Y008257D01*
X001741Y008189D02*
X017101Y008189D01*
X017065Y009697D02*
X017101Y009697D01*
X017101Y009765D02*
X016956Y009765D01*
X017101Y009834D02*
X016790Y009834D01*
X016411Y009834D02*
X013871Y009834D01*
X013871Y009902D02*
X017101Y009902D01*
X017101Y009971D02*
X013871Y009971D01*
X013871Y010040D02*
X017101Y010040D01*
X017101Y010108D02*
X013871Y010108D01*
X013871Y010177D02*
X017101Y010177D01*
X017101Y010245D02*
X013871Y010245D01*
X013871Y010314D02*
X017101Y010314D01*
X017101Y010382D02*
X013871Y010382D01*
X013871Y010451D02*
X017101Y010451D01*
X017101Y010519D02*
X013871Y010519D01*
X013871Y010588D02*
X017101Y010588D01*
X017101Y010656D02*
X013871Y010656D01*
X013871Y010725D02*
X017101Y010725D01*
X017101Y010794D02*
X013871Y010794D01*
X013871Y010862D02*
X017101Y010862D01*
X017101Y010931D02*
X013871Y010931D01*
X013871Y010999D02*
X017101Y010999D01*
X017101Y011068D02*
X013871Y011068D01*
X013871Y011136D02*
X014142Y011136D01*
X014149Y011129D02*
X014254Y011086D01*
X014367Y011086D01*
X014472Y011129D01*
X014552Y011209D01*
X014596Y011314D01*
X014596Y011427D01*
X014552Y011532D01*
X014481Y011604D01*
X014481Y013938D01*
X014544Y014001D01*
X015431Y014001D01*
X015531Y014100D01*
X015531Y014100D01*
X015811Y014380D01*
X015811Y014521D01*
X015811Y016738D01*
X015882Y016809D01*
X015926Y016914D01*
X015926Y017027D01*
X015882Y017132D01*
X015802Y017212D01*
X015697Y017256D01*
X015584Y017256D01*
X015479Y017212D01*
X015399Y017132D01*
X015356Y017027D01*
X015356Y016914D01*
X015399Y016809D01*
X015471Y016738D01*
X015471Y014521D01*
X015290Y014341D01*
X014544Y014341D01*
X014472Y014412D01*
X014367Y014456D01*
X014254Y014456D01*
X014149Y014412D01*
X014069Y014332D01*
X014026Y014227D01*
X014026Y014114D01*
X014069Y014009D01*
X014141Y013938D01*
X014141Y011604D01*
X014069Y011532D01*
X014026Y011427D01*
X014026Y011314D01*
X014069Y011209D01*
X014149Y011129D01*
X014074Y011205D02*
X013871Y011205D01*
X013871Y011273D02*
X014043Y011273D01*
X014026Y011342D02*
X013871Y011342D01*
X013871Y011410D02*
X014026Y011410D01*
X014047Y011479D02*
X013871Y011479D01*
X013871Y011548D02*
X014084Y011548D01*
X014141Y011616D02*
X013871Y011616D01*
X013871Y011685D02*
X014141Y011685D01*
X014141Y011753D02*
X013871Y011753D01*
X013871Y011822D02*
X014141Y011822D01*
X014141Y011890D02*
X013871Y011890D01*
X013871Y011959D02*
X014141Y011959D01*
X014141Y012027D02*
X013871Y012027D01*
X013871Y012096D02*
X014141Y012096D01*
X014141Y012164D02*
X013871Y012164D01*
X013871Y012233D02*
X014141Y012233D01*
X014141Y012301D02*
X013871Y012301D01*
X013871Y012370D02*
X014141Y012370D01*
X014141Y012439D02*
X013871Y012439D01*
X013871Y012507D02*
X014141Y012507D01*
X014141Y012576D02*
X013871Y012576D01*
X013871Y012644D02*
X014141Y012644D01*
X014141Y012713D02*
X013871Y012713D01*
X013871Y012781D02*
X014141Y012781D01*
X014141Y012850D02*
X013871Y012850D01*
X013871Y012918D02*
X014141Y012918D01*
X014141Y012987D02*
X013871Y012987D01*
X013871Y013055D02*
X014141Y013055D01*
X014141Y013124D02*
X013871Y013124D01*
X013871Y013193D02*
X014141Y013193D01*
X014141Y013261D02*
X013871Y013261D01*
X013871Y013330D02*
X014141Y013330D01*
X014141Y013398D02*
X013871Y013398D01*
X013871Y013467D02*
X014141Y013467D01*
X014141Y013535D02*
X013871Y013535D01*
X013871Y013604D02*
X014141Y013604D01*
X014141Y013672D02*
X013871Y013672D01*
X013871Y013741D02*
X014141Y013741D01*
X014141Y013809D02*
X013871Y013809D01*
X013871Y013878D02*
X014141Y013878D01*
X014132Y013947D02*
X013871Y013947D01*
X013871Y014015D02*
X014067Y014015D01*
X014038Y014084D02*
X013871Y014084D01*
X013871Y014152D02*
X014026Y014152D01*
X014026Y014221D02*
X013871Y014221D01*
X013871Y014289D02*
X014051Y014289D01*
X014095Y014358D02*
X013871Y014358D01*
X013871Y014426D02*
X014183Y014426D01*
X014439Y014426D02*
X015376Y014426D01*
X015307Y014358D02*
X014527Y014358D01*
X014311Y014171D02*
X015361Y014171D01*
X015641Y014451D01*
X015641Y016971D01*
X015846Y017168D02*
X017101Y017168D01*
X017101Y017100D02*
X015896Y017100D01*
X015924Y017031D02*
X017101Y017031D01*
X017101Y016962D02*
X015926Y016962D01*
X015917Y016894D02*
X017101Y016894D01*
X017101Y016825D02*
X015889Y016825D01*
X015830Y016757D02*
X017101Y016757D01*
X017101Y016688D02*
X015811Y016688D01*
X015811Y016620D02*
X017101Y016620D01*
X017101Y016551D02*
X015811Y016551D01*
X015811Y016483D02*
X017101Y016483D01*
X017101Y016414D02*
X015811Y016414D01*
X015811Y016346D02*
X017101Y016346D01*
X017101Y016277D02*
X015811Y016277D01*
X015811Y016208D02*
X017101Y016208D01*
X017101Y016140D02*
X015811Y016140D01*
X015811Y016071D02*
X017101Y016071D01*
X017101Y016003D02*
X015811Y016003D01*
X015811Y015934D02*
X017101Y015934D01*
X017101Y015866D02*
X015811Y015866D01*
X015811Y015797D02*
X017101Y015797D01*
X017101Y015729D02*
X015811Y015729D01*
X015811Y015660D02*
X017101Y015660D01*
X017101Y015592D02*
X015811Y015592D01*
X015811Y015523D02*
X017101Y015523D01*
X017101Y015454D02*
X015811Y015454D01*
X015811Y015386D02*
X017101Y015386D01*
X017101Y015317D02*
X015811Y015317D01*
X015811Y015249D02*
X017101Y015249D01*
X017101Y015180D02*
X015811Y015180D01*
X015811Y015112D02*
X017101Y015112D01*
X017101Y015043D02*
X015811Y015043D01*
X015811Y014975D02*
X017101Y014975D01*
X017101Y014906D02*
X015811Y014906D01*
X015811Y014838D02*
X017101Y014838D01*
X017101Y014769D02*
X015811Y014769D01*
X015811Y014701D02*
X017101Y014701D01*
X017101Y014632D02*
X015811Y014632D01*
X015811Y014563D02*
X017101Y014563D01*
X017101Y014495D02*
X015811Y014495D01*
X015811Y014426D02*
X017101Y014426D01*
X017101Y014358D02*
X015788Y014358D01*
X015720Y014289D02*
X017101Y014289D01*
X017101Y014221D02*
X015651Y014221D01*
X015583Y014152D02*
X017101Y014152D01*
X017101Y014084D02*
X015514Y014084D01*
X015445Y014015D02*
X017101Y014015D01*
X017101Y013947D02*
X014490Y013947D01*
X014481Y013878D02*
X017101Y013878D01*
X017101Y013809D02*
X014481Y013809D01*
X014481Y013741D02*
X017101Y013741D01*
X017101Y013672D02*
X014481Y013672D01*
X014481Y013604D02*
X017101Y013604D01*
X017101Y013535D02*
X014481Y013535D01*
X014481Y013467D02*
X017101Y013467D01*
X017101Y013398D02*
X014481Y013398D01*
X014481Y013330D02*
X017101Y013330D01*
X017101Y013261D02*
X014481Y013261D01*
X014481Y013193D02*
X017101Y013193D01*
X017101Y013124D02*
X014481Y013124D01*
X014481Y013055D02*
X017101Y013055D01*
X017101Y012987D02*
X014481Y012987D01*
X014481Y012918D02*
X017101Y012918D01*
X017101Y012850D02*
X014481Y012850D01*
X014481Y012781D02*
X017101Y012781D01*
X017101Y012713D02*
X014481Y012713D01*
X014481Y012644D02*
X017101Y012644D01*
X017101Y012576D02*
X014481Y012576D01*
X014481Y012507D02*
X017101Y012507D01*
X017101Y012439D02*
X014481Y012439D01*
X014481Y012370D02*
X017101Y012370D01*
X017101Y012301D02*
X014481Y012301D01*
X014481Y012233D02*
X017101Y012233D01*
X017101Y012164D02*
X014481Y012164D01*
X014481Y012096D02*
X017101Y012096D01*
X017101Y012027D02*
X014481Y012027D01*
X014481Y011959D02*
X017101Y011959D01*
X017101Y011890D02*
X014481Y011890D01*
X014481Y011822D02*
X017101Y011822D01*
X017101Y011753D02*
X014481Y011753D01*
X014481Y011685D02*
X017101Y011685D01*
X017101Y011616D02*
X014481Y011616D01*
X014537Y011548D02*
X017101Y011548D01*
X017101Y011479D02*
X014574Y011479D01*
X014596Y011410D02*
X017101Y011410D01*
X017101Y011342D02*
X014596Y011342D01*
X014579Y011273D02*
X017101Y011273D01*
X017101Y011205D02*
X014548Y011205D01*
X014479Y011136D02*
X017101Y011136D01*
X016246Y009765D02*
X013871Y009765D01*
X013871Y009697D02*
X016136Y009697D01*
X016068Y009628D02*
X013871Y009628D01*
X013871Y009560D02*
X015999Y009560D01*
X015951Y009491D02*
X013871Y009491D01*
X013871Y009423D02*
X015922Y009423D01*
X015894Y009354D02*
X013871Y009354D01*
X013871Y009286D02*
X015866Y009286D01*
X015851Y009217D02*
X013871Y009217D01*
X013871Y009149D02*
X015851Y009149D01*
X015851Y009080D02*
X013871Y009080D01*
X013871Y009011D02*
X015851Y009011D01*
X015854Y008943D02*
X013858Y008943D01*
X013841Y008874D02*
X015883Y008874D01*
X015911Y008806D02*
X013817Y008806D01*
X013784Y008737D02*
X015940Y008737D01*
X015972Y008669D02*
X013754Y008669D01*
X013686Y008600D02*
X016041Y008600D01*
X016109Y008532D02*
X013618Y008532D01*
X013549Y008463D02*
X016181Y008463D01*
X016346Y008395D02*
X013417Y008395D01*
X013352Y008669D02*
X013336Y008669D01*
X013537Y008874D02*
X013545Y008874D01*
X013565Y008943D02*
X013574Y008943D01*
X013590Y009011D02*
X013593Y009011D01*
X013599Y009080D02*
X004090Y009080D01*
X004106Y009149D02*
X012611Y009149D01*
X012611Y009011D02*
X004022Y009011D01*
X003953Y008943D02*
X012637Y008943D01*
X012665Y008874D02*
X002907Y008874D01*
X002949Y008806D02*
X012704Y008806D01*
X012772Y008737D02*
X003010Y008737D01*
X003099Y008669D02*
X012865Y008669D01*
X013402Y009491D02*
X013601Y009491D01*
X013601Y009423D02*
X013471Y009423D01*
X013525Y009354D02*
X013601Y009354D01*
X013601Y009286D02*
X013554Y009286D01*
X013582Y009217D02*
X013601Y009217D01*
X013590Y009149D02*
X013601Y009149D01*
X013601Y009697D02*
X011375Y009697D01*
X011518Y009765D02*
X013601Y009765D01*
X013601Y009834D02*
X011586Y009834D01*
X011655Y009902D02*
X013601Y009902D01*
X013601Y009971D02*
X011710Y009971D01*
X011738Y010040D02*
X013601Y010040D01*
X013601Y010108D02*
X011767Y010108D01*
X011795Y010177D02*
X013601Y010177D01*
X013601Y010245D02*
X011808Y010245D01*
X011808Y010314D02*
X013601Y010314D01*
X013601Y010382D02*
X011808Y010382D01*
X011808Y010451D02*
X013601Y010451D01*
X013601Y010519D02*
X011796Y010519D01*
X011767Y010588D02*
X013601Y010588D01*
X013601Y010656D02*
X011739Y010656D01*
X011711Y010725D02*
X013601Y010725D01*
X013601Y010794D02*
X011656Y010794D01*
X011588Y010862D02*
X013601Y010862D01*
X013601Y010931D02*
X011519Y010931D01*
X011379Y010999D02*
X013601Y010999D01*
X014311Y011371D02*
X014311Y014171D01*
X014367Y015386D02*
X013871Y015386D01*
X013871Y015454D02*
X014201Y015454D01*
X014118Y015523D02*
X013871Y015523D01*
X013871Y015592D02*
X014049Y015592D01*
X013981Y015660D02*
X013871Y015660D01*
X013871Y015729D02*
X013943Y015729D01*
X013915Y015797D02*
X013871Y015797D01*
X013871Y015866D02*
X013886Y015866D01*
X013871Y015317D02*
X015471Y015317D01*
X015471Y015249D02*
X013871Y015249D01*
X013871Y015180D02*
X015471Y015180D01*
X015471Y015112D02*
X013871Y015112D01*
X013871Y015043D02*
X015471Y015043D01*
X015471Y014975D02*
X013871Y014975D01*
X013871Y014906D02*
X015471Y014906D01*
X015471Y014838D02*
X013871Y014838D01*
X013871Y014769D02*
X015471Y014769D01*
X015471Y014701D02*
X013871Y014701D01*
X013871Y014632D02*
X015471Y014632D01*
X015471Y014563D02*
X013871Y014563D01*
X013871Y014495D02*
X015445Y014495D01*
X015471Y015386D02*
X014835Y015386D01*
X015000Y015454D02*
X015471Y015454D01*
X015471Y015523D02*
X015084Y015523D01*
X015152Y015592D02*
X015471Y015592D01*
X015471Y015660D02*
X015221Y015660D01*
X015258Y015729D02*
X015471Y015729D01*
X015471Y015797D02*
X015287Y015797D01*
X015315Y015866D02*
X015471Y015866D01*
X015471Y015934D02*
X015344Y015934D01*
X015351Y016003D02*
X015471Y016003D01*
X015471Y016071D02*
X015351Y016071D01*
X015351Y016140D02*
X015471Y016140D01*
X015471Y016208D02*
X015351Y016208D01*
X015340Y016277D02*
X015471Y016277D01*
X015471Y016346D02*
X015311Y016346D01*
X015283Y016414D02*
X015471Y016414D01*
X015471Y016483D02*
X015254Y016483D01*
X015211Y016551D02*
X015471Y016551D01*
X015471Y016620D02*
X015142Y016620D01*
X015074Y016688D02*
X015471Y016688D01*
X015452Y016757D02*
X014977Y016757D01*
X014811Y016825D02*
X015393Y016825D01*
X015364Y016894D02*
X006741Y016894D01*
X006794Y016825D02*
X007587Y016825D01*
X007442Y016757D02*
X006822Y016757D01*
X006826Y016688D02*
X007352Y016688D01*
X007284Y016620D02*
X006852Y016620D01*
X006921Y016551D02*
X007215Y016551D01*
X007181Y016483D02*
X006989Y016483D01*
X006991Y016414D02*
X007141Y016414D01*
X007117Y016346D02*
X006991Y016346D01*
X006991Y016277D02*
X007095Y016277D01*
X007081Y016208D02*
X006991Y016208D01*
X006991Y016140D02*
X007081Y016140D01*
X007081Y016071D02*
X006991Y016071D01*
X006991Y016003D02*
X007081Y016003D01*
X007081Y015934D02*
X007038Y015934D01*
X006821Y016411D02*
X006821Y015381D01*
X006851Y015351D01*
X006525Y014906D02*
X006176Y014906D01*
X006226Y014955D02*
X006226Y015316D01*
X005886Y015316D01*
X005886Y014736D01*
X006006Y014736D01*
X006226Y014955D01*
X006226Y014975D02*
X006476Y014975D01*
X006476Y015043D02*
X006226Y015043D01*
X006226Y015112D02*
X006476Y015112D01*
X006476Y015180D02*
X006226Y015180D01*
X006226Y015249D02*
X006476Y015249D01*
X006476Y015317D02*
X004106Y015317D01*
X004106Y015286D02*
X004106Y015406D01*
X003886Y015626D01*
X003766Y015626D01*
X003766Y015286D01*
X004106Y015286D01*
X004106Y015216D02*
X003766Y015216D01*
X003766Y014876D01*
X003886Y014876D01*
X004106Y015095D01*
X004106Y015216D01*
X004106Y015180D02*
X005476Y015180D01*
X005476Y015112D02*
X004106Y015112D01*
X004054Y015043D02*
X005476Y015043D01*
X005476Y014975D02*
X003985Y014975D01*
X003916Y014906D02*
X005525Y014906D01*
X005476Y014955D02*
X005695Y014736D01*
X005816Y014736D01*
X005816Y015316D01*
X005476Y015316D01*
X005476Y014955D01*
X005594Y014838D02*
X001741Y014838D01*
X001741Y014906D02*
X003545Y014906D01*
X003575Y014876D02*
X003356Y015095D01*
X003356Y015216D01*
X003696Y015216D01*
X003696Y014876D01*
X003575Y014876D01*
X003696Y014906D02*
X003766Y014906D01*
X003766Y014975D02*
X003696Y014975D01*
X003696Y015043D02*
X003766Y015043D01*
X003766Y015112D02*
X003696Y015112D01*
X003696Y015180D02*
X003766Y015180D01*
X003696Y015286D02*
X003696Y015626D01*
X003575Y015626D01*
X003356Y015406D01*
X003356Y015286D01*
X003696Y015286D01*
X003696Y015317D02*
X003766Y015317D01*
X003766Y015386D02*
X003696Y015386D01*
X003696Y015454D02*
X003766Y015454D01*
X003766Y015523D02*
X003696Y015523D01*
X003696Y015592D02*
X003766Y015592D01*
X003920Y015592D02*
X005476Y015592D01*
X005476Y015660D02*
X001741Y015660D01*
X001741Y015592D02*
X003541Y015592D01*
X003473Y015523D02*
X001741Y015523D01*
X001741Y015454D02*
X003404Y015454D01*
X003356Y015386D02*
X001741Y015386D01*
X001741Y015317D02*
X003356Y015317D01*
X003356Y015180D02*
X001741Y015180D01*
X001741Y015112D02*
X003356Y015112D01*
X003408Y015043D02*
X001741Y015043D01*
X001741Y014975D02*
X003477Y014975D01*
X003989Y015523D02*
X005476Y015523D01*
X005476Y015454D02*
X004057Y015454D01*
X004106Y015386D02*
X005476Y015386D01*
X005816Y015386D01*
X005886Y015386D01*
X006226Y015386D01*
X006476Y015386D01*
X006476Y015454D02*
X006226Y015454D01*
X006226Y015386D02*
X006226Y015746D01*
X006006Y015966D01*
X005886Y015966D01*
X005886Y015386D01*
X005886Y015454D02*
X005816Y015454D01*
X005816Y015386D02*
X005816Y015966D01*
X005695Y015966D01*
X005476Y015746D01*
X005476Y015386D01*
X005476Y015249D02*
X001741Y015249D01*
X001741Y014769D02*
X005662Y014769D01*
X005816Y014769D02*
X005886Y014769D01*
X005886Y014838D02*
X005816Y014838D01*
X005816Y014906D02*
X005886Y014906D01*
X005886Y014975D02*
X005816Y014975D01*
X005816Y015043D02*
X005886Y015043D01*
X005886Y015112D02*
X005816Y015112D01*
X005816Y015180D02*
X005886Y015180D01*
X005886Y015249D02*
X005816Y015249D01*
X005816Y015523D02*
X005886Y015523D01*
X005886Y015592D02*
X005816Y015592D01*
X005816Y015660D02*
X005886Y015660D01*
X005886Y015729D02*
X005816Y015729D01*
X005816Y015797D02*
X005886Y015797D01*
X005886Y015866D02*
X005816Y015866D01*
X005816Y015934D02*
X005886Y015934D01*
X006038Y015934D02*
X006651Y015934D01*
X006651Y016003D02*
X001845Y016003D01*
X001856Y015934D02*
X005664Y015934D01*
X005595Y015866D02*
X001856Y015866D01*
X001828Y015797D02*
X005527Y015797D01*
X005476Y015729D02*
X001782Y015729D01*
X001571Y015921D02*
X001571Y004091D01*
X001781Y003881D01*
X003181Y003881D01*
X003074Y004145D02*
X001757Y004145D01*
X001826Y004076D02*
X002973Y004076D01*
X002831Y003741D02*
X003111Y003461D01*
X002826Y003459D02*
X001101Y003459D01*
X001101Y003391D02*
X002831Y003391D01*
X002860Y003322D02*
X001101Y003322D01*
X001101Y003254D02*
X002915Y003254D01*
X002803Y003528D02*
X001101Y003528D01*
X001101Y003596D02*
X001615Y003596D01*
X001546Y003665D02*
X001101Y003665D01*
X001101Y003734D02*
X001478Y003734D01*
X001409Y003802D02*
X001101Y003802D01*
X001101Y003871D02*
X001340Y003871D01*
X001272Y003939D02*
X001101Y003939D01*
X001101Y004008D02*
X001261Y004008D01*
X001261Y004076D02*
X001101Y004076D01*
X001101Y004145D02*
X001261Y004145D01*
X001261Y004213D02*
X001101Y004213D01*
X001101Y004282D02*
X001261Y004282D01*
X001261Y004350D02*
X001101Y004350D01*
X001101Y004419D02*
X001261Y004419D01*
X001261Y004488D02*
X001101Y004488D01*
X001101Y004556D02*
X001261Y004556D01*
X001261Y004625D02*
X001101Y004625D01*
X001101Y004693D02*
X001261Y004693D01*
X001261Y004762D02*
X001101Y004762D01*
X001101Y004830D02*
X001261Y004830D01*
X001261Y004899D02*
X001101Y004899D01*
X001101Y004967D02*
X001261Y004967D01*
X001261Y005036D02*
X001101Y005036D01*
X001101Y005104D02*
X001261Y005104D01*
X001261Y005173D02*
X001101Y005173D01*
X001101Y005242D02*
X001261Y005242D01*
X001261Y005310D02*
X001101Y005310D01*
X001101Y005379D02*
X001261Y005379D01*
X001261Y005447D02*
X001101Y005447D01*
X001101Y005516D02*
X001261Y005516D01*
X001261Y005584D02*
X001101Y005584D01*
X001101Y005653D02*
X001261Y005653D01*
X001261Y005721D02*
X001101Y005721D01*
X001101Y005790D02*
X001261Y005790D01*
X001261Y005858D02*
X001101Y005858D01*
X001101Y005927D02*
X001261Y005927D01*
X001261Y005996D02*
X001101Y005996D01*
X001101Y006064D02*
X001261Y006064D01*
X001261Y006133D02*
X001101Y006133D01*
X001101Y006201D02*
X001261Y006201D01*
X001261Y006270D02*
X001101Y006270D01*
X001101Y006338D02*
X001261Y006338D01*
X001261Y006407D02*
X001101Y006407D01*
X001101Y006475D02*
X001261Y006475D01*
X001261Y006544D02*
X001101Y006544D01*
X001101Y006612D02*
X001261Y006612D01*
X001261Y006681D02*
X001101Y006681D01*
X001101Y006749D02*
X001261Y006749D01*
X001261Y006818D02*
X001101Y006818D01*
X001101Y006887D02*
X001261Y006887D01*
X001261Y006955D02*
X001101Y006955D01*
X001101Y007024D02*
X001261Y007024D01*
X001261Y007092D02*
X001101Y007092D01*
X001101Y007161D02*
X001261Y007161D01*
X001261Y007229D02*
X001101Y007229D01*
X001101Y007298D02*
X001261Y007298D01*
X001261Y007366D02*
X001101Y007366D01*
X001101Y007435D02*
X001261Y007435D01*
X001261Y007503D02*
X001101Y007503D01*
X001101Y007572D02*
X001261Y007572D01*
X001261Y007641D02*
X001101Y007641D01*
X001101Y007709D02*
X001261Y007709D01*
X001261Y007778D02*
X001101Y007778D01*
X001101Y007846D02*
X001261Y007846D01*
X001261Y007915D02*
X001101Y007915D01*
X001101Y007983D02*
X001261Y007983D01*
X001261Y008052D02*
X001101Y008052D01*
X001101Y008120D02*
X001261Y008120D01*
X001261Y008189D02*
X001101Y008189D01*
X001101Y008257D02*
X001261Y008257D01*
X001261Y008326D02*
X001101Y008326D01*
X001101Y008395D02*
X001261Y008395D01*
X001261Y008463D02*
X001101Y008463D01*
X001101Y008532D02*
X001261Y008532D01*
X001261Y008600D02*
X001101Y008600D01*
X001101Y008669D02*
X001261Y008669D01*
X001261Y008737D02*
X001101Y008737D01*
X001101Y008806D02*
X001261Y008806D01*
X001261Y008874D02*
X001101Y008874D01*
X001101Y008943D02*
X001261Y008943D01*
X001261Y009011D02*
X001101Y009011D01*
X001101Y009080D02*
X001261Y009080D01*
X001261Y009149D02*
X001101Y009149D01*
X001101Y009217D02*
X001261Y009217D01*
X001261Y009286D02*
X001101Y009286D01*
X001101Y009354D02*
X001261Y009354D01*
X001261Y009423D02*
X001101Y009423D01*
X001101Y009491D02*
X001261Y009491D01*
X001261Y009560D02*
X001101Y009560D01*
X001101Y009628D02*
X001261Y009628D01*
X001261Y009697D02*
X001101Y009697D01*
X001101Y009765D02*
X001261Y009765D01*
X001261Y009834D02*
X001101Y009834D01*
X001101Y009902D02*
X001261Y009902D01*
X001261Y009971D02*
X001101Y009971D01*
X001101Y010040D02*
X001261Y010040D01*
X001261Y010108D02*
X001101Y010108D01*
X001101Y010177D02*
X001261Y010177D01*
X001261Y010245D02*
X001101Y010245D01*
X001101Y010314D02*
X001261Y010314D01*
X001261Y010382D02*
X001101Y010382D01*
X001101Y010451D02*
X001261Y010451D01*
X001261Y010519D02*
X001101Y010519D01*
X001101Y010588D02*
X001261Y010588D01*
X001261Y010656D02*
X001101Y010656D01*
X001101Y010725D02*
X001261Y010725D01*
X001261Y010794D02*
X001101Y010794D01*
X001101Y010862D02*
X001261Y010862D01*
X001261Y010931D02*
X001101Y010931D01*
X001101Y010999D02*
X001261Y010999D01*
X001261Y011068D02*
X001101Y011068D01*
X001101Y011136D02*
X001261Y011136D01*
X001261Y011205D02*
X001101Y011205D01*
X001101Y011273D02*
X001261Y011273D01*
X001261Y011342D02*
X001101Y011342D01*
X001101Y011410D02*
X001261Y011410D01*
X001261Y011479D02*
X001101Y011479D01*
X001101Y011548D02*
X001261Y011548D01*
X001261Y011616D02*
X001101Y011616D01*
X001101Y011685D02*
X001261Y011685D01*
X001261Y011753D02*
X001101Y011753D01*
X001101Y011822D02*
X001261Y011822D01*
X001261Y011890D02*
X001101Y011890D01*
X001101Y011959D02*
X001261Y011959D01*
X001261Y012027D02*
X001101Y012027D01*
X001101Y012096D02*
X001261Y012096D01*
X001261Y012164D02*
X001101Y012164D01*
X001101Y012233D02*
X001261Y012233D01*
X001261Y012301D02*
X001101Y012301D01*
X001101Y012370D02*
X001261Y012370D01*
X001261Y012439D02*
X001101Y012439D01*
X001101Y012507D02*
X001261Y012507D01*
X001261Y012576D02*
X001101Y012576D01*
X001101Y012644D02*
X001261Y012644D01*
X001261Y012713D02*
X001101Y012713D01*
X001101Y012781D02*
X001261Y012781D01*
X001261Y012850D02*
X001101Y012850D01*
X001101Y012918D02*
X001261Y012918D01*
X001261Y012987D02*
X001101Y012987D01*
X001101Y013055D02*
X001261Y013055D01*
X001261Y013124D02*
X001101Y013124D01*
X001101Y013193D02*
X001261Y013193D01*
X001261Y013261D02*
X001101Y013261D01*
X001101Y013330D02*
X001261Y013330D01*
X001261Y013398D02*
X001101Y013398D01*
X001101Y013467D02*
X001261Y013467D01*
X001261Y013535D02*
X001101Y013535D01*
X001101Y013604D02*
X001261Y013604D01*
X001261Y013672D02*
X001101Y013672D01*
X001101Y013741D02*
X001261Y013741D01*
X001261Y013809D02*
X001101Y013809D01*
X001101Y013878D02*
X001261Y013878D01*
X001261Y013947D02*
X001101Y013947D01*
X001101Y014015D02*
X001261Y014015D01*
X001261Y014084D02*
X001101Y014084D01*
X001101Y014152D02*
X001261Y014152D01*
X001261Y014221D02*
X001101Y014221D01*
X001101Y014289D02*
X001261Y014289D01*
X001261Y014358D02*
X001101Y014358D01*
X001101Y014426D02*
X001261Y014426D01*
X001261Y014495D02*
X001101Y014495D01*
X001101Y014563D02*
X001261Y014563D01*
X001261Y014632D02*
X001101Y014632D01*
X001101Y014701D02*
X001261Y014701D01*
X001261Y014769D02*
X001101Y014769D01*
X001101Y014838D02*
X001261Y014838D01*
X001261Y014906D02*
X001101Y014906D01*
X001101Y014975D02*
X001261Y014975D01*
X001261Y015043D02*
X001101Y015043D01*
X001101Y015112D02*
X001261Y015112D01*
X001261Y015180D02*
X001101Y015180D01*
X001101Y015249D02*
X001261Y015249D01*
X001261Y015317D02*
X001101Y015317D01*
X001101Y015386D02*
X001261Y015386D01*
X001261Y015454D02*
X001101Y015454D01*
X001101Y015523D02*
X001238Y015523D01*
X001170Y015592D02*
X001101Y015592D01*
X001101Y015660D02*
X001121Y015660D01*
X001121Y015729D02*
X001101Y015729D01*
X001101Y015797D02*
X001121Y015797D01*
X001121Y015866D02*
X001101Y015866D01*
X001101Y015934D02*
X001121Y015934D01*
X001121Y016003D02*
X001101Y016003D01*
X001101Y016071D02*
X001121Y016071D01*
X001121Y016140D02*
X001101Y016140D01*
X001101Y016208D02*
X001121Y016208D01*
X001121Y016277D02*
X001101Y016277D01*
X001101Y016346D02*
X001121Y016346D01*
X001121Y016414D02*
X001101Y016414D01*
X001101Y016483D02*
X001121Y016483D01*
X001121Y016551D02*
X001101Y016551D01*
X001101Y016620D02*
X001121Y016620D01*
X001121Y016688D02*
X001101Y016688D01*
X001101Y016757D02*
X001121Y016757D01*
X001121Y016825D02*
X001101Y016825D01*
X001101Y016894D02*
X001121Y016894D01*
X001121Y016962D02*
X001101Y016962D01*
X001101Y017031D02*
X001121Y017031D01*
X001121Y017100D02*
X001101Y017100D01*
X001101Y017168D02*
X001121Y017168D01*
X001121Y017237D02*
X001101Y017237D01*
X001101Y017305D02*
X001121Y017305D01*
X001121Y017374D02*
X001101Y017374D01*
X001101Y017442D02*
X001121Y017442D01*
X001121Y017511D02*
X001101Y017511D01*
X001101Y017579D02*
X001121Y017579D01*
X001121Y017648D02*
X001101Y017648D01*
X001101Y017716D02*
X001121Y017716D01*
X001121Y017785D02*
X001101Y017785D01*
X001101Y017854D02*
X001121Y017854D01*
X001121Y017922D02*
X001101Y017922D01*
X001101Y017991D02*
X001121Y017991D01*
X001121Y018059D02*
X001101Y018059D01*
X001101Y018128D02*
X001121Y018128D01*
X001121Y018196D02*
X001101Y018196D01*
X001101Y018265D02*
X001121Y018265D01*
X001121Y018333D02*
X001101Y018333D01*
X001101Y018402D02*
X001121Y018402D01*
X001121Y018470D02*
X001101Y018470D01*
X001101Y018539D02*
X001121Y018539D01*
X001121Y018607D02*
X001101Y018607D01*
X001101Y018676D02*
X001121Y018676D01*
X001121Y018745D02*
X001101Y018745D01*
X001101Y018813D02*
X001121Y018813D01*
X001121Y018882D02*
X001101Y018882D01*
X001101Y018950D02*
X001121Y018950D01*
X001121Y019019D02*
X001101Y019019D01*
X001101Y019087D02*
X001121Y019087D01*
X001121Y019156D02*
X001101Y019156D01*
X001101Y019224D02*
X001121Y019224D01*
X001121Y019293D02*
X001101Y019293D01*
X001101Y019361D02*
X001121Y019361D01*
X001121Y019430D02*
X001101Y019430D01*
X001101Y019499D02*
X001121Y019499D01*
X001121Y019567D02*
X001101Y019567D01*
X001101Y019636D02*
X001121Y019636D01*
X001121Y019704D02*
X001101Y019704D01*
X001101Y019773D02*
X001121Y019773D01*
X001121Y019841D02*
X001101Y019841D01*
X001101Y019910D02*
X001121Y019910D01*
X001121Y019978D02*
X001101Y019978D01*
X001101Y020047D02*
X001121Y020047D01*
X001121Y020115D02*
X001101Y020115D01*
X001101Y020184D02*
X001121Y020184D01*
X001121Y020253D02*
X001101Y020253D01*
X001101Y020321D02*
X001121Y020321D01*
X001121Y020390D02*
X001101Y020390D01*
X001101Y020458D02*
X001121Y020458D01*
X001121Y020527D02*
X001101Y020527D01*
X001101Y020595D02*
X001121Y020595D01*
X001121Y020664D02*
X001101Y020664D01*
X001101Y020732D02*
X001121Y020732D01*
X001121Y020801D02*
X001101Y020801D01*
X001101Y020869D02*
X001121Y020869D01*
X001121Y020938D02*
X001101Y020938D01*
X001101Y021006D02*
X001121Y021006D01*
X001121Y021075D02*
X001101Y021075D01*
X001101Y021144D02*
X001121Y021144D01*
X001121Y021212D02*
X001101Y021212D01*
X001101Y021281D02*
X001121Y021281D01*
X001121Y021349D02*
X001101Y021349D01*
X001101Y021418D02*
X001121Y021418D01*
X001121Y021486D02*
X001101Y021486D01*
X001101Y021555D02*
X001121Y021555D01*
X001121Y021623D02*
X001101Y021623D01*
X001101Y021692D02*
X001121Y021692D01*
X001121Y021760D02*
X001101Y021760D01*
X001101Y021829D02*
X001121Y021829D01*
X001121Y021898D02*
X001101Y021898D01*
X001101Y021966D02*
X001121Y021966D01*
X001121Y022035D02*
X001101Y022035D01*
X001101Y022103D02*
X001121Y022103D01*
X001121Y022172D02*
X001101Y022172D01*
X001101Y022240D02*
X001121Y022240D01*
X001121Y022309D02*
X001101Y022309D01*
X001101Y022377D02*
X001121Y022377D01*
X001121Y022446D02*
X001101Y022446D01*
X001101Y022514D02*
X001121Y022514D01*
X001121Y022583D02*
X001101Y022583D01*
X001101Y022652D02*
X001121Y022652D01*
X001121Y022720D02*
X001101Y022720D01*
X001101Y022789D02*
X001121Y022789D01*
X001121Y022857D02*
X001101Y022857D01*
X001101Y022926D02*
X001121Y022926D01*
X001121Y022994D02*
X001101Y022994D01*
X001101Y023063D02*
X001121Y023063D01*
X001121Y023131D02*
X001101Y023131D01*
X001101Y023200D02*
X001121Y023200D01*
X001121Y023268D02*
X001101Y023268D01*
X001101Y023337D02*
X001121Y023337D01*
X001121Y023406D02*
X001101Y023406D01*
X001101Y023474D02*
X001121Y023474D01*
X001121Y023543D02*
X001101Y023543D01*
X001101Y023611D02*
X001121Y023611D01*
X001121Y023680D02*
X001101Y023680D01*
X001101Y023748D02*
X001121Y023748D01*
X001121Y023817D02*
X001101Y023817D01*
X001101Y023885D02*
X001121Y023885D01*
X001121Y023954D02*
X001101Y023954D01*
X001101Y024022D02*
X001121Y024022D01*
X001121Y024091D02*
X001101Y024091D01*
X001101Y024159D02*
X001121Y024159D01*
X001121Y024228D02*
X001101Y024228D01*
X001101Y024297D02*
X001121Y024297D01*
X001121Y024365D02*
X001101Y024365D01*
X001101Y024434D02*
X001121Y024434D01*
X001121Y024502D02*
X001101Y024502D01*
X001101Y024571D02*
X001121Y024571D01*
X001121Y024639D02*
X001101Y024639D01*
X001101Y024708D02*
X001121Y024708D01*
X001121Y024776D02*
X001101Y024776D01*
X001101Y024845D02*
X001121Y024845D01*
X001121Y024913D02*
X001101Y024913D01*
X001101Y024982D02*
X001121Y024982D01*
X001121Y025051D02*
X001101Y025051D01*
X001101Y025119D02*
X001121Y025119D01*
X001121Y025188D02*
X001101Y025188D01*
X001101Y025256D02*
X001121Y025256D01*
X001121Y025325D02*
X001101Y025325D01*
X001101Y025393D02*
X001121Y025393D01*
X001121Y025462D02*
X001101Y025462D01*
X001101Y025530D02*
X001121Y025530D01*
X001121Y025599D02*
X001101Y025599D01*
X001101Y025667D02*
X001121Y025667D01*
X001121Y025736D02*
X001101Y025736D01*
X001101Y025805D02*
X001121Y025805D01*
X001121Y025873D02*
X001101Y025873D01*
X001101Y025942D02*
X001121Y025942D01*
X001121Y026010D02*
X001101Y026010D01*
X001101Y026079D02*
X001121Y026079D01*
X001121Y026147D02*
X001101Y026147D01*
X001101Y026216D02*
X001121Y026216D01*
X001121Y026284D02*
X001101Y026284D01*
X001101Y026353D02*
X001121Y026353D01*
X001121Y026421D02*
X001101Y026421D01*
X001101Y026490D02*
X001121Y026490D01*
X001121Y026559D02*
X001101Y026559D01*
X001101Y026627D02*
X001121Y026627D01*
X001121Y026696D02*
X001101Y026696D01*
X001101Y026764D02*
X001121Y026764D01*
X001121Y026833D02*
X001101Y026833D01*
X001101Y026901D02*
X001121Y026901D01*
X001121Y026970D02*
X001101Y026970D01*
X001101Y027038D02*
X001121Y027038D01*
X001121Y027107D02*
X001101Y027107D01*
X001101Y027175D02*
X001121Y027175D01*
X001121Y027244D02*
X001101Y027244D01*
X001101Y027312D02*
X001121Y027312D01*
X001121Y027381D02*
X001101Y027381D01*
X001101Y027450D02*
X001121Y027450D01*
X001121Y027518D02*
X001101Y027518D01*
X001101Y027587D02*
X001121Y027587D01*
X001121Y027655D02*
X001101Y027655D01*
X001101Y027724D02*
X001121Y027724D01*
X001121Y027792D02*
X001101Y027792D01*
X001101Y027861D02*
X001121Y027861D01*
X001121Y027929D02*
X001101Y027929D01*
X001101Y027998D02*
X001121Y027998D01*
X001121Y028066D02*
X001101Y028066D01*
X001101Y028135D02*
X001121Y028135D01*
X001121Y028204D02*
X001101Y028204D01*
X001101Y028272D02*
X001121Y028272D01*
X001121Y028341D02*
X001101Y028341D01*
X001101Y028409D02*
X001121Y028409D01*
X001121Y028478D02*
X001101Y028478D01*
X001101Y028546D02*
X001121Y028546D01*
X001121Y028615D02*
X001101Y028615D01*
X001101Y028683D02*
X001121Y028683D01*
X001121Y028752D02*
X001101Y028752D01*
X001101Y028820D02*
X001121Y028820D01*
X001121Y028889D02*
X001101Y028889D01*
X001101Y028958D02*
X001121Y028958D01*
X001121Y029026D02*
X001101Y029026D01*
X001101Y029095D02*
X001121Y029095D01*
X001121Y029163D02*
X001101Y029163D01*
X001101Y029232D02*
X001121Y029232D01*
X001121Y029300D02*
X001101Y029300D01*
X001101Y029369D02*
X001121Y029369D01*
X001121Y029437D02*
X001101Y029437D01*
X001101Y029506D02*
X001121Y029506D01*
X001121Y029574D02*
X001101Y029574D01*
X001101Y029643D02*
X001121Y029643D01*
X001121Y029711D02*
X001101Y029711D01*
X001101Y029780D02*
X001121Y029780D01*
X001121Y029849D02*
X001101Y029849D01*
X001101Y029917D02*
X001121Y029917D01*
X001121Y029986D02*
X001101Y029986D01*
X001101Y030054D02*
X001121Y030054D01*
X001121Y030123D02*
X001101Y030123D01*
X001101Y030191D02*
X001121Y030191D01*
X001121Y030260D02*
X001101Y030260D01*
X001101Y030328D02*
X001121Y030328D01*
X001121Y030397D02*
X001101Y030397D01*
X001101Y030465D02*
X001121Y030465D01*
X001121Y030534D02*
X001101Y030534D01*
X001101Y030603D02*
X001121Y030603D01*
X001121Y030671D02*
X001101Y030671D01*
X001101Y030740D02*
X001121Y030740D01*
X001121Y030808D02*
X001101Y030808D01*
X001101Y030877D02*
X001121Y030877D01*
X001121Y030945D02*
X001101Y030945D01*
X001101Y031014D02*
X001121Y031014D01*
X001121Y031082D02*
X001101Y031082D01*
X001101Y031151D02*
X001121Y031151D01*
X001121Y031219D02*
X001101Y031219D01*
X001101Y031288D02*
X001121Y031288D01*
X001121Y031357D02*
X001101Y031357D01*
X001101Y031425D02*
X001121Y031425D01*
X001121Y031494D02*
X001101Y031494D01*
X001101Y031562D02*
X001121Y031562D01*
X001121Y031631D02*
X001101Y031631D01*
X001101Y031699D02*
X001121Y031699D01*
X001121Y031768D02*
X001101Y031768D01*
X001101Y031836D02*
X001121Y031836D01*
X001121Y031905D02*
X001101Y031905D01*
X001101Y031973D02*
X001121Y031973D01*
X001121Y032042D02*
X001101Y032042D01*
X001101Y032111D02*
X001121Y032111D01*
X001121Y032179D02*
X001101Y032179D01*
X001101Y032248D02*
X001121Y032248D01*
X001121Y032316D02*
X001101Y032316D01*
X001101Y032385D02*
X001121Y032385D01*
X001121Y032453D02*
X001101Y032453D01*
X001101Y032522D02*
X001121Y032522D01*
X001121Y032590D02*
X001101Y032590D01*
X001101Y032659D02*
X001121Y032659D01*
X001121Y032727D02*
X001101Y032727D01*
X001101Y032796D02*
X001121Y032796D01*
X001121Y032864D02*
X001101Y032864D01*
X001101Y032933D02*
X001121Y032933D01*
X001121Y033002D02*
X001101Y033002D01*
X001101Y033070D02*
X001121Y033070D01*
X001121Y033139D02*
X001101Y033139D01*
X001101Y033207D02*
X001121Y033207D01*
X001121Y033276D02*
X001101Y033276D01*
X001101Y033344D02*
X001121Y033344D01*
X001121Y033413D02*
X001101Y033413D01*
X001101Y033481D02*
X001121Y033481D01*
X001121Y033550D02*
X001101Y033550D01*
X001101Y033618D02*
X001121Y033618D01*
X001121Y033687D02*
X001101Y033687D01*
X001101Y033756D02*
X001121Y033756D01*
X001121Y033824D02*
X001101Y033824D01*
X001101Y033893D02*
X001121Y033893D01*
X001121Y033961D02*
X001101Y033961D01*
X001101Y034030D02*
X001121Y034030D01*
X001121Y034098D02*
X001101Y034098D01*
X001101Y034167D02*
X001121Y034167D01*
X001121Y034235D02*
X001101Y034235D01*
X001101Y034304D02*
X001121Y034304D01*
X001121Y034372D02*
X001101Y034372D01*
X001101Y034441D02*
X001121Y034441D01*
X001121Y034510D02*
X001101Y034510D01*
X001101Y034578D02*
X001121Y034578D01*
X001121Y034647D02*
X001101Y034647D01*
X001101Y034715D02*
X001121Y034715D01*
X001121Y034784D02*
X001101Y034784D01*
X001101Y034852D02*
X001121Y034852D01*
X001121Y034921D02*
X001101Y034921D01*
X001101Y034989D02*
X001121Y034989D01*
X001121Y035058D02*
X001101Y035058D01*
X001101Y035126D02*
X001121Y035126D01*
X001121Y035195D02*
X001101Y035195D01*
X001101Y035264D02*
X001121Y035264D01*
X001121Y035332D02*
X001101Y035332D01*
X001101Y035401D02*
X001121Y035401D01*
X001121Y035469D02*
X001101Y035469D01*
X001101Y035538D02*
X001121Y035538D01*
X001121Y035606D02*
X001101Y035606D01*
X001101Y035675D02*
X001121Y035675D01*
X001121Y035743D02*
X001101Y035743D01*
X001101Y035812D02*
X001121Y035812D01*
X001121Y035880D02*
X001101Y035880D01*
X001101Y035949D02*
X001121Y035949D01*
X001121Y036017D02*
X001101Y036017D01*
X001101Y036086D02*
X001121Y036086D01*
X001121Y036155D02*
X001101Y036155D01*
X001101Y036223D02*
X001121Y036223D01*
X001121Y036292D02*
X001101Y036292D01*
X001101Y036360D02*
X001121Y036360D01*
X001121Y036429D02*
X001101Y036429D01*
X001101Y036497D02*
X001121Y036497D01*
X001121Y036566D02*
X001101Y036566D01*
X001101Y036634D02*
X001121Y036634D01*
X001121Y036703D02*
X001101Y036703D01*
X001101Y036771D02*
X001121Y036771D01*
X001121Y036840D02*
X001101Y036840D01*
X001101Y036909D02*
X001121Y036909D01*
X001121Y036977D02*
X001101Y036977D01*
X001101Y037046D02*
X001121Y037046D01*
X001121Y037114D02*
X001101Y037114D01*
X001101Y037183D02*
X001121Y037183D01*
X001121Y037251D02*
X001101Y037251D01*
X001101Y037320D02*
X001121Y037320D01*
X001121Y037388D02*
X001101Y037388D01*
X001101Y037457D02*
X001121Y037457D01*
X001121Y037525D02*
X001101Y037525D01*
X001101Y037594D02*
X001121Y037594D01*
X001121Y037663D02*
X001101Y037663D01*
X001101Y037731D02*
X001121Y037731D01*
X001121Y037800D02*
X001101Y037800D01*
X001101Y037868D02*
X001121Y037868D01*
X001121Y037937D02*
X001101Y037937D01*
X001101Y038005D02*
X001121Y038005D01*
X001121Y038074D02*
X001101Y038074D01*
X001101Y038142D02*
X001121Y038142D01*
X001121Y038211D02*
X001101Y038211D01*
X001101Y038279D02*
X001121Y038279D01*
X001121Y038348D02*
X001101Y038348D01*
X001101Y038416D02*
X001121Y038416D01*
X001121Y038485D02*
X001101Y038485D01*
X001101Y038554D02*
X001121Y038554D01*
X001121Y038622D02*
X001101Y038622D01*
X001101Y038691D02*
X001121Y038691D01*
X001121Y038759D02*
X001101Y038759D01*
X001101Y038828D02*
X001121Y038828D01*
X001121Y038896D02*
X001101Y038896D01*
X001101Y038965D02*
X001121Y038965D01*
X001121Y039033D02*
X001101Y039033D01*
X001101Y039102D02*
X001121Y039102D01*
X001121Y039170D02*
X001101Y039170D01*
X001101Y039239D02*
X001121Y039239D01*
X001121Y039308D02*
X001101Y039308D01*
X001101Y039376D02*
X001121Y039376D01*
X001121Y039445D02*
X001101Y039445D01*
X001101Y039513D02*
X001121Y039513D01*
X001121Y039582D02*
X001101Y039582D01*
X001101Y039650D02*
X001121Y039650D01*
X001121Y039719D02*
X001101Y039719D01*
X001101Y039787D02*
X001121Y039787D01*
X001121Y039856D02*
X001101Y039856D01*
X001101Y039924D02*
X001121Y039924D01*
X001121Y039993D02*
X001101Y039993D01*
X001101Y040062D02*
X001121Y040062D01*
X001121Y040130D02*
X001101Y040130D01*
X001101Y040199D02*
X001121Y040199D01*
X001121Y040267D02*
X001101Y040267D01*
X001101Y040336D02*
X001121Y040336D01*
X001121Y040404D02*
X001101Y040404D01*
X001101Y040473D02*
X001121Y040473D01*
X001121Y040541D02*
X001101Y040541D01*
X001101Y040610D02*
X001121Y040610D01*
X001121Y040678D02*
X001101Y040678D01*
X001101Y040747D02*
X001121Y040747D01*
X001121Y040816D02*
X001101Y040816D01*
X001101Y040884D02*
X001121Y040884D01*
X001121Y040953D02*
X001101Y040953D01*
X001101Y041021D02*
X001161Y041021D01*
X001101Y041090D02*
X001229Y041090D01*
X001298Y041158D02*
X001101Y041158D01*
X001101Y041227D02*
X001366Y041227D01*
X001587Y041364D02*
X001101Y041364D01*
X001101Y041432D02*
X001566Y041432D01*
X001566Y041501D02*
X001101Y041501D01*
X001101Y041569D02*
X001583Y041569D01*
X001615Y041638D02*
X001101Y041638D01*
X001101Y041707D02*
X001632Y041707D01*
X001609Y041729D02*
X001658Y041681D01*
X001609Y041729D02*
X001566Y041834D01*
X001566Y041947D01*
X001609Y042052D01*
X001689Y042132D01*
X001794Y042176D01*
X001907Y042176D01*
X002012Y042132D01*
X002092Y042052D01*
X002136Y041947D01*
X002136Y041846D01*
X002201Y041781D01*
X002301Y041681D01*
X002301Y041571D01*
X002546Y041571D01*
X002546Y041597D01*
X002589Y041702D01*
X002669Y041782D01*
X002774Y041826D01*
X002887Y041826D01*
X002992Y041782D01*
X003072Y041702D01*
X003116Y041597D01*
X003116Y041484D01*
X003094Y041431D01*
X003180Y041431D01*
X003851Y042101D01*
X003851Y042101D01*
X003950Y042201D01*
X004366Y042201D01*
X004366Y042227D01*
X004409Y042332D01*
X004489Y042412D01*
X004594Y042456D01*
X004707Y042456D01*
X004812Y042412D01*
X004892Y042332D01*
X004936Y042227D01*
X004936Y042114D01*
X004892Y042009D01*
X004877Y041994D01*
X004882Y041992D01*
X004962Y041912D01*
X004894Y041981D02*
X008751Y041981D01*
X008751Y042049D02*
X004909Y042049D01*
X004936Y042118D02*
X008751Y042118D01*
X008751Y042186D02*
X004936Y042186D01*
X004924Y042255D02*
X008751Y042255D01*
X008751Y042323D02*
X004896Y042323D01*
X004833Y042392D02*
X008751Y042392D01*
X008751Y042461D02*
X001101Y042461D01*
X001101Y042529D02*
X008751Y042529D01*
X008751Y042598D02*
X004347Y042598D01*
X004345Y042595D02*
X004436Y042687D01*
X004486Y042806D01*
X004486Y042935D01*
X004456Y043008D01*
X004456Y045315D01*
X004485Y045344D01*
X004543Y045485D01*
X004543Y045637D01*
X004485Y045777D01*
X004377Y045885D01*
X004237Y045943D01*
X004085Y045943D01*
X003944Y045885D01*
X003836Y045777D01*
X003778Y045637D01*
X003778Y045485D01*
X003836Y045344D01*
X003866Y045315D01*
X003866Y043008D01*
X003836Y042935D01*
X003836Y042806D01*
X003885Y042687D01*
X003977Y042595D01*
X004096Y042546D01*
X004225Y042546D01*
X004345Y042595D01*
X004416Y042666D02*
X008751Y042666D01*
X008751Y042735D02*
X004456Y042735D01*
X004485Y042803D02*
X008751Y042803D01*
X008751Y042872D02*
X004486Y042872D01*
X004484Y042940D02*
X008751Y042940D01*
X008751Y043009D02*
X004456Y043009D01*
X004456Y043077D02*
X008751Y043077D01*
X008751Y043146D02*
X004456Y043146D01*
X004456Y043215D02*
X008751Y043215D01*
X008751Y043283D02*
X004456Y043283D01*
X004456Y043352D02*
X008737Y043352D01*
X008751Y043338D02*
X008751Y032161D01*
X008751Y032020D01*
X008916Y031855D01*
X008916Y031754D01*
X008959Y031649D01*
X009039Y031569D01*
X009144Y031526D01*
X009257Y031526D01*
X009362Y031569D01*
X009442Y031649D01*
X009486Y031754D01*
X009486Y031867D01*
X009442Y031972D01*
X009362Y032052D01*
X009257Y032096D01*
X009156Y032096D01*
X009091Y032161D01*
X009091Y043338D01*
X009162Y043409D01*
X009206Y043514D01*
X009206Y043627D01*
X009162Y043732D01*
X009082Y043812D01*
X008977Y043856D01*
X008864Y043856D01*
X008759Y043812D01*
X008679Y043732D01*
X008636Y043627D01*
X008636Y043514D01*
X008679Y043409D01*
X008751Y043338D01*
X008675Y043420D02*
X004456Y043420D01*
X004456Y043489D02*
X008646Y043489D01*
X008636Y043557D02*
X004456Y043557D01*
X004456Y043626D02*
X008636Y043626D01*
X008664Y043694D02*
X004456Y043694D01*
X004456Y043763D02*
X008710Y043763D01*
X008805Y043831D02*
X004456Y043831D01*
X004456Y043900D02*
X017101Y043900D01*
X017101Y043969D02*
X004456Y043969D01*
X004456Y044037D02*
X017101Y044037D01*
X017101Y044106D02*
X012994Y044106D01*
X013010Y044112D02*
X013124Y044226D01*
X013186Y044375D01*
X013186Y044536D01*
X013124Y044685D01*
X013010Y044799D01*
X012885Y044851D01*
X013010Y044902D01*
X013124Y045016D01*
X013186Y045165D01*
X013186Y045326D01*
X013124Y045475D01*
X013010Y045589D01*
X012861Y045651D01*
X012700Y045651D01*
X012551Y045589D01*
X012437Y045475D01*
X012376Y045326D01*
X012376Y045165D01*
X012437Y045016D01*
X012551Y044902D01*
X012676Y044851D01*
X012551Y044799D01*
X012437Y044685D01*
X012376Y044536D01*
X012376Y044375D01*
X012437Y044226D01*
X012551Y044112D01*
X012700Y044051D01*
X012861Y044051D01*
X013010Y044112D01*
X013072Y044174D02*
X017101Y044174D01*
X017101Y044243D02*
X013131Y044243D01*
X013159Y044311D02*
X017101Y044311D01*
X017101Y044380D02*
X013186Y044380D01*
X013186Y044448D02*
X017101Y044448D01*
X017101Y044517D02*
X013186Y044517D01*
X013165Y044585D02*
X017101Y044585D01*
X017101Y044654D02*
X013137Y044654D01*
X013087Y044722D02*
X017101Y044722D01*
X017101Y044791D02*
X013018Y044791D01*
X012907Y044860D02*
X017101Y044860D01*
X017101Y044928D02*
X013036Y044928D01*
X013104Y044997D02*
X017101Y044997D01*
X017101Y045065D02*
X013144Y045065D01*
X013173Y045134D02*
X017101Y045134D01*
X017101Y045202D02*
X013186Y045202D01*
X013186Y045271D02*
X017101Y045271D01*
X017101Y045339D02*
X013180Y045339D01*
X013152Y045408D02*
X017101Y045408D01*
X017101Y045476D02*
X013123Y045476D01*
X013054Y045545D02*
X017101Y045545D01*
X017101Y045614D02*
X012951Y045614D01*
X012861Y045821D02*
X013010Y045882D01*
X013124Y045996D01*
X013186Y046145D01*
X013186Y046191D01*
X012816Y046191D01*
X012816Y045821D01*
X012861Y045821D01*
X012816Y045888D02*
X012746Y045888D01*
X012746Y045821D02*
X012746Y046191D01*
X012376Y046191D01*
X012376Y046145D01*
X012437Y045996D01*
X012551Y045882D01*
X012700Y045821D01*
X012746Y045821D01*
X012746Y045956D02*
X012816Y045956D01*
X012816Y046025D02*
X012746Y046025D01*
X012746Y046093D02*
X012816Y046093D01*
X012816Y046162D02*
X012746Y046162D01*
X012746Y046261D02*
X012746Y046631D01*
X012700Y046631D01*
X012551Y046569D01*
X012437Y046455D01*
X012376Y046306D01*
X012376Y046261D01*
X012746Y046261D01*
X012746Y046299D02*
X012816Y046299D01*
X012816Y046261D02*
X013186Y046261D01*
X013186Y046306D01*
X013124Y046455D01*
X013010Y046569D01*
X012861Y046631D01*
X012816Y046631D01*
X012816Y046261D01*
X012816Y046368D02*
X012746Y046368D01*
X012746Y046436D02*
X012816Y046436D01*
X012816Y046505D02*
X012746Y046505D01*
X012746Y046573D02*
X012816Y046573D01*
X013000Y046573D02*
X017101Y046573D01*
X017101Y046505D02*
X013075Y046505D01*
X013132Y046436D02*
X017101Y046436D01*
X017101Y046368D02*
X013160Y046368D01*
X013186Y046299D02*
X017101Y046299D01*
X017101Y046230D02*
X001101Y046230D01*
X001101Y046162D02*
X012376Y046162D01*
X012397Y046093D02*
X001101Y046093D01*
X001101Y046025D02*
X012426Y046025D01*
X012478Y045956D02*
X001101Y045956D01*
X001101Y045888D02*
X003951Y045888D01*
X003878Y045819D02*
X001101Y045819D01*
X001101Y045751D02*
X003825Y045751D01*
X003797Y045682D02*
X001101Y045682D01*
X001101Y045614D02*
X003778Y045614D01*
X003778Y045545D02*
X001101Y045545D01*
X001101Y045476D02*
X003782Y045476D01*
X003810Y045408D02*
X001101Y045408D01*
X001101Y045339D02*
X003841Y045339D01*
X003866Y045271D02*
X001101Y045271D01*
X001101Y045202D02*
X003866Y045202D01*
X003866Y045134D02*
X001101Y045134D01*
X001101Y045065D02*
X003866Y045065D01*
X003866Y044997D02*
X001101Y044997D01*
X001101Y044928D02*
X003866Y044928D01*
X003866Y044860D02*
X001101Y044860D01*
X001101Y044791D02*
X003866Y044791D01*
X003866Y044722D02*
X001101Y044722D01*
X001101Y044654D02*
X003866Y044654D01*
X003866Y044585D02*
X001101Y044585D01*
X001101Y044517D02*
X003866Y044517D01*
X003866Y044448D02*
X001101Y044448D01*
X001101Y044380D02*
X003866Y044380D01*
X003866Y044311D02*
X001101Y044311D01*
X001101Y044243D02*
X003866Y044243D01*
X003866Y044174D02*
X001101Y044174D01*
X001101Y044106D02*
X003866Y044106D01*
X003866Y044037D02*
X001101Y044037D01*
X001101Y043969D02*
X003866Y043969D01*
X003866Y043900D02*
X001101Y043900D01*
X001101Y043831D02*
X003866Y043831D01*
X003866Y043763D02*
X001101Y043763D01*
X001101Y043694D02*
X003866Y043694D01*
X003866Y043626D02*
X001101Y043626D01*
X001101Y043557D02*
X003866Y043557D01*
X003866Y043489D02*
X001101Y043489D01*
X001101Y043420D02*
X003866Y043420D01*
X003866Y043352D02*
X001101Y043352D01*
X001101Y043283D02*
X003866Y043283D01*
X003866Y043215D02*
X001101Y043215D01*
X001101Y043146D02*
X003866Y043146D01*
X003866Y043077D02*
X001101Y043077D01*
X001101Y043009D02*
X003866Y043009D01*
X003838Y042940D02*
X001101Y042940D01*
X001101Y042872D02*
X003836Y042872D01*
X003837Y042803D02*
X001101Y042803D01*
X001101Y042735D02*
X003865Y042735D01*
X003906Y042666D02*
X001101Y042666D01*
X001101Y042598D02*
X003974Y042598D01*
X003936Y042186D02*
X001101Y042186D01*
X001101Y042118D02*
X001675Y042118D01*
X001608Y042049D02*
X001101Y042049D01*
X001101Y041981D02*
X001580Y041981D01*
X001566Y041912D02*
X001101Y041912D01*
X001101Y041844D02*
X001566Y041844D01*
X001590Y041775D02*
X001101Y041775D01*
X001101Y041295D02*
X001623Y041295D01*
X001291Y040911D02*
X001291Y015711D01*
X001431Y015571D01*
X001431Y004021D01*
X001711Y003741D01*
X002831Y003741D01*
X001741Y014632D02*
X007081Y014632D01*
X007081Y014701D02*
X001741Y014701D01*
X001817Y016071D02*
X006651Y016071D01*
X006651Y016140D02*
X001755Y016140D01*
X001461Y016208D02*
X006651Y016208D01*
X006651Y016277D02*
X001461Y016277D01*
X001461Y016346D02*
X005130Y016346D01*
X005154Y016336D02*
X005267Y016336D01*
X005372Y016379D01*
X005452Y016459D01*
X005496Y016564D01*
X005496Y016677D01*
X005452Y016782D01*
X005381Y016854D01*
X005381Y017110D01*
X005701Y017431D01*
X005818Y017431D01*
X005889Y017359D01*
X005994Y017316D01*
X006107Y017316D01*
X006212Y017359D01*
X006292Y017439D01*
X006336Y017544D01*
X006336Y017657D01*
X006292Y017762D01*
X006212Y017842D01*
X006107Y017886D01*
X005994Y017886D01*
X005889Y017842D01*
X005818Y017771D01*
X005701Y017771D01*
X005560Y017771D01*
X005041Y017251D01*
X005041Y017110D01*
X005041Y016854D01*
X004969Y016782D01*
X004926Y016677D01*
X004926Y016564D01*
X004969Y016459D01*
X005049Y016379D01*
X005154Y016336D01*
X005291Y016346D02*
X006646Y016346D01*
X006821Y016411D02*
X006541Y016691D01*
X006341Y016894D02*
X005381Y016894D01*
X005381Y016962D02*
X006452Y016962D01*
X006630Y016962D02*
X015356Y016962D01*
X015357Y017031D02*
X005381Y017031D01*
X005381Y017100D02*
X015386Y017100D01*
X015435Y017168D02*
X013085Y017168D01*
X013128Y017186D02*
X013266Y017324D01*
X013340Y017503D01*
X013340Y017566D01*
X012886Y017566D01*
X012886Y017111D01*
X012948Y017111D01*
X013128Y017186D01*
X013179Y017237D02*
X015538Y017237D01*
X015744Y017237D02*
X017101Y017237D01*
X017101Y017305D02*
X013247Y017305D01*
X013286Y017374D02*
X017101Y017374D01*
X017101Y017442D02*
X013315Y017442D01*
X013340Y017511D02*
X017101Y017511D01*
X017101Y017579D02*
X011838Y017579D01*
X011838Y017511D02*
X012361Y017511D01*
X012361Y017503D02*
X012436Y017324D01*
X012574Y017186D01*
X012753Y017111D01*
X012816Y017111D01*
X012816Y017566D01*
X012361Y017566D01*
X012361Y017503D01*
X012387Y017442D02*
X011813Y017442D01*
X011838Y017503D02*
X011838Y017698D01*
X011764Y017878D01*
X011626Y018016D01*
X011446Y018090D01*
X011251Y018090D01*
X011072Y018016D01*
X010934Y017878D01*
X010859Y017698D01*
X010859Y017503D01*
X010934Y017324D01*
X011072Y017186D01*
X011251Y017111D01*
X011446Y017111D01*
X011626Y017186D01*
X011764Y017324D01*
X011838Y017503D01*
X011784Y017374D02*
X012415Y017374D01*
X012454Y017305D02*
X011745Y017305D01*
X011677Y017237D02*
X012523Y017237D01*
X012617Y017168D02*
X011583Y017168D01*
X011838Y017648D02*
X012361Y017648D01*
X012361Y017636D02*
X012816Y017636D01*
X012816Y018090D01*
X012753Y018090D01*
X012574Y018016D01*
X012436Y017878D01*
X012361Y017698D01*
X012361Y017636D01*
X012369Y017716D02*
X011831Y017716D01*
X011802Y017785D02*
X012397Y017785D01*
X012426Y017854D02*
X011774Y017854D01*
X011720Y017922D02*
X012480Y017922D01*
X012549Y017991D02*
X011651Y017991D01*
X011521Y018059D02*
X012679Y018059D01*
X012816Y018059D02*
X012886Y018059D01*
X012886Y018090D02*
X012886Y017636D01*
X013340Y017636D01*
X013340Y017698D01*
X013266Y017878D01*
X013128Y018016D01*
X012948Y018090D01*
X012886Y018090D01*
X012886Y017991D02*
X012816Y017991D01*
X012816Y017922D02*
X012886Y017922D01*
X012886Y017854D02*
X012816Y017854D01*
X012816Y017785D02*
X012886Y017785D01*
X012886Y017716D02*
X012816Y017716D01*
X012816Y017648D02*
X012886Y017648D01*
X012886Y017511D02*
X012816Y017511D01*
X012816Y017442D02*
X012886Y017442D01*
X012886Y017374D02*
X012816Y017374D01*
X012816Y017305D02*
X012886Y017305D01*
X012886Y017237D02*
X012816Y017237D01*
X012816Y017168D02*
X012886Y017168D01*
X013340Y017648D02*
X017101Y017648D01*
X017101Y017716D02*
X013333Y017716D01*
X013304Y017785D02*
X017101Y017785D01*
X017101Y017854D02*
X013276Y017854D01*
X013221Y017922D02*
X017101Y017922D01*
X017101Y017991D02*
X013153Y017991D01*
X013023Y018059D02*
X017101Y018059D01*
X017101Y018128D02*
X003638Y018128D01*
X003707Y018196D02*
X017101Y018196D01*
X017101Y018265D02*
X003775Y018265D01*
X003826Y018316D02*
X003481Y017970D01*
X003481Y017364D01*
X003552Y017292D01*
X003596Y017187D01*
X003596Y017074D01*
X003552Y016969D01*
X003472Y016889D01*
X003367Y016846D01*
X003254Y016846D01*
X003149Y016889D01*
X003069Y016969D01*
X003026Y017074D01*
X003026Y017187D01*
X003069Y017292D01*
X003141Y017364D01*
X003141Y018111D01*
X003240Y018211D01*
X003586Y018556D01*
X003586Y018657D01*
X003629Y018762D01*
X003709Y018842D01*
X003814Y018886D01*
X003927Y018886D01*
X004032Y018842D01*
X004112Y018762D01*
X004156Y018657D01*
X004156Y018544D01*
X004112Y018439D01*
X004032Y018359D01*
X003927Y018316D01*
X003826Y018316D01*
X003970Y018333D02*
X017101Y018333D01*
X017078Y018402D02*
X004075Y018402D01*
X004125Y018470D02*
X016921Y018470D01*
X016852Y018539D02*
X011580Y018539D01*
X011470Y018493D02*
X011693Y018586D01*
X011864Y018757D01*
X011956Y018980D01*
X011956Y019222D01*
X011864Y019445D01*
X011693Y019616D01*
X011470Y019708D01*
X011228Y019708D01*
X011005Y019616D01*
X010834Y019445D01*
X010741Y019222D01*
X010741Y018980D01*
X010834Y018757D01*
X011005Y018586D01*
X011228Y018493D01*
X011470Y018493D01*
X011177Y018059D02*
X003570Y018059D01*
X003501Y017991D02*
X011047Y017991D01*
X010978Y017922D02*
X003481Y017922D01*
X003481Y017854D02*
X005916Y017854D01*
X005832Y017785D02*
X003481Y017785D01*
X003481Y017716D02*
X005506Y017716D01*
X005437Y017648D02*
X003481Y017648D01*
X003481Y017579D02*
X005369Y017579D01*
X005300Y017511D02*
X003481Y017511D01*
X003481Y017442D02*
X005232Y017442D01*
X005163Y017374D02*
X003481Y017374D01*
X003539Y017305D02*
X005095Y017305D01*
X005041Y017237D02*
X003575Y017237D01*
X003596Y017168D02*
X005041Y017168D01*
X005041Y017100D02*
X003596Y017100D01*
X003578Y017031D02*
X005041Y017031D01*
X005041Y016962D02*
X003545Y016962D01*
X003477Y016894D02*
X005041Y016894D01*
X005012Y016825D02*
X001461Y016825D01*
X001461Y016757D02*
X004959Y016757D01*
X004930Y016688D02*
X001461Y016688D01*
X001461Y016620D02*
X004926Y016620D01*
X004931Y016551D02*
X001461Y016551D01*
X001461Y016483D02*
X004959Y016483D01*
X005014Y016414D02*
X001461Y016414D01*
X001461Y016894D02*
X003145Y016894D01*
X003076Y016962D02*
X001461Y016962D01*
X001461Y017031D02*
X003044Y017031D01*
X003026Y017100D02*
X001461Y017100D01*
X001461Y017168D02*
X003026Y017168D01*
X003046Y017237D02*
X001461Y017237D01*
X001461Y017305D02*
X003082Y017305D01*
X003141Y017374D02*
X001461Y017374D01*
X001461Y017442D02*
X003141Y017442D01*
X003141Y017511D02*
X001461Y017511D01*
X001461Y017579D02*
X003141Y017579D01*
X003141Y017648D02*
X001461Y017648D01*
X001461Y017716D02*
X003141Y017716D01*
X003141Y017785D02*
X001461Y017785D01*
X001461Y017854D02*
X003141Y017854D01*
X003141Y017922D02*
X001461Y017922D01*
X001461Y017991D02*
X003141Y017991D01*
X003141Y018059D02*
X001461Y018059D01*
X001461Y018128D02*
X003157Y018128D01*
X003226Y018196D02*
X001461Y018196D01*
X001461Y018265D02*
X003294Y018265D01*
X003363Y018333D02*
X001461Y018333D01*
X001461Y018402D02*
X003431Y018402D01*
X003500Y018470D02*
X001461Y018470D01*
X001461Y018539D02*
X003569Y018539D01*
X003586Y018607D02*
X001461Y018607D01*
X001461Y018676D02*
X003594Y018676D01*
X003622Y018745D02*
X001461Y018745D01*
X001461Y018813D02*
X003680Y018813D01*
X003804Y018882D02*
X001461Y018882D01*
X001461Y018950D02*
X010754Y018950D01*
X010741Y019019D02*
X001461Y019019D01*
X001461Y019087D02*
X010741Y019087D01*
X010741Y019156D02*
X001461Y019156D01*
X001461Y019224D02*
X010743Y019224D01*
X010771Y019293D02*
X001461Y019293D01*
X001461Y019361D02*
X010799Y019361D01*
X010828Y019430D02*
X001461Y019430D01*
X001461Y019499D02*
X010888Y019499D01*
X010956Y019567D02*
X001461Y019567D01*
X001461Y019636D02*
X011053Y019636D01*
X011218Y019704D02*
X001461Y019704D01*
X001461Y019773D02*
X017013Y019773D01*
X017101Y019841D02*
X001461Y019841D01*
X001461Y019910D02*
X017101Y019910D01*
X017101Y019978D02*
X001461Y019978D01*
X001461Y020047D02*
X017101Y020047D01*
X017101Y020115D02*
X001461Y020115D01*
X001461Y020184D02*
X017101Y020184D01*
X017101Y020253D02*
X001461Y020253D01*
X001461Y020321D02*
X017101Y020321D01*
X017101Y020390D02*
X015523Y020390D01*
X015450Y020359D02*
X015630Y020434D01*
X015768Y020572D01*
X015842Y020751D01*
X015842Y020814D01*
X015388Y020814D01*
X015388Y020359D01*
X015450Y020359D01*
X015388Y020390D02*
X015318Y020390D01*
X015318Y020359D02*
X015318Y020814D01*
X014863Y020814D01*
X014863Y020751D01*
X014938Y020572D01*
X015076Y020434D01*
X015255Y020359D01*
X015318Y020359D01*
X015318Y020458D02*
X015388Y020458D01*
X015388Y020527D02*
X015318Y020527D01*
X015318Y020595D02*
X015388Y020595D01*
X015388Y020664D02*
X015318Y020664D01*
X015318Y020732D02*
X015388Y020732D01*
X015388Y020801D02*
X015318Y020801D01*
X015318Y020884D02*
X015318Y021338D01*
X015255Y021338D01*
X015076Y021264D01*
X014938Y021126D01*
X014863Y020946D01*
X014863Y020884D01*
X015318Y020884D01*
X015318Y020938D02*
X015388Y020938D01*
X015388Y020884D02*
X015842Y020884D01*
X015842Y020946D01*
X015768Y021126D01*
X015630Y021264D01*
X015450Y021338D01*
X015388Y021338D01*
X015388Y020884D01*
X015388Y021006D02*
X015318Y021006D01*
X015318Y021075D02*
X015388Y021075D01*
X015388Y021144D02*
X015318Y021144D01*
X015318Y021212D02*
X015388Y021212D01*
X015388Y021281D02*
X015318Y021281D01*
X015117Y021281D02*
X003896Y021281D01*
X003964Y021349D02*
X017101Y021349D01*
X017101Y021281D02*
X015589Y021281D01*
X015681Y021212D02*
X017101Y021212D01*
X017101Y021144D02*
X015750Y021144D01*
X015789Y021075D02*
X017101Y021075D01*
X017101Y021006D02*
X015817Y021006D01*
X015842Y020938D02*
X017101Y020938D01*
X017101Y020869D02*
X001461Y020869D01*
X001461Y020801D02*
X014863Y020801D01*
X014871Y020732D02*
X001461Y020732D01*
X001461Y020664D02*
X014900Y020664D01*
X014928Y020595D02*
X001461Y020595D01*
X001461Y020527D02*
X014983Y020527D01*
X015051Y020458D02*
X001461Y020458D01*
X001461Y020390D02*
X015183Y020390D01*
X014956Y021144D02*
X001461Y021144D01*
X001461Y021212D02*
X002374Y021212D01*
X002421Y021166D02*
X002781Y021166D01*
X003036Y021421D01*
X003036Y021781D01*
X002781Y022036D01*
X002421Y022036D01*
X002166Y021781D01*
X002166Y021421D01*
X002421Y021166D01*
X002306Y021281D02*
X001461Y021281D01*
X001461Y021349D02*
X002237Y021349D01*
X002169Y021418D02*
X001461Y021418D01*
X001461Y021486D02*
X002166Y021486D01*
X002166Y021555D02*
X001461Y021555D01*
X001461Y021623D02*
X002166Y021623D01*
X002166Y021692D02*
X001461Y021692D01*
X001461Y021760D02*
X002166Y021760D01*
X002214Y021829D02*
X001461Y021829D01*
X001461Y021898D02*
X002282Y021898D01*
X002351Y021966D02*
X001461Y021966D01*
X001461Y022035D02*
X002419Y022035D01*
X002421Y022166D02*
X002166Y022421D01*
X002166Y022566D01*
X002566Y022566D01*
X002566Y022166D01*
X002421Y022166D01*
X002415Y022172D02*
X001461Y022172D01*
X001461Y022240D02*
X002346Y022240D01*
X002278Y022309D02*
X001461Y022309D01*
X001461Y022377D02*
X002209Y022377D01*
X002166Y022446D02*
X001461Y022446D01*
X001461Y022514D02*
X002166Y022514D01*
X002166Y022636D02*
X002566Y022636D01*
X002566Y023036D01*
X002421Y023036D01*
X002166Y022781D01*
X002166Y022636D01*
X002166Y022652D02*
X001461Y022652D01*
X001461Y022720D02*
X002166Y022720D01*
X002173Y022789D02*
X001461Y022789D01*
X001461Y022857D02*
X002242Y022857D01*
X002311Y022926D02*
X001461Y022926D01*
X001461Y022994D02*
X002379Y022994D01*
X002421Y023166D02*
X002166Y023421D01*
X002166Y023566D01*
X002566Y023566D01*
X002566Y023166D01*
X002421Y023166D01*
X002386Y023200D02*
X001461Y023200D01*
X001461Y023268D02*
X002318Y023268D01*
X002249Y023337D02*
X001461Y023337D01*
X001461Y023406D02*
X002181Y023406D01*
X002166Y023474D02*
X001461Y023474D01*
X001461Y023543D02*
X002166Y023543D01*
X002166Y023636D02*
X002566Y023636D01*
X002566Y024036D01*
X002421Y024036D01*
X002166Y023781D01*
X002166Y023636D01*
X002166Y023680D02*
X001461Y023680D01*
X001461Y023748D02*
X002166Y023748D01*
X002202Y023817D02*
X001461Y023817D01*
X001461Y023885D02*
X002270Y023885D01*
X002339Y023954D02*
X001461Y023954D01*
X001461Y024022D02*
X002407Y024022D01*
X002421Y024166D02*
X002781Y024166D01*
X003036Y024421D01*
X003036Y024781D01*
X002781Y025036D01*
X002421Y025036D01*
X002166Y024781D01*
X002166Y024421D01*
X002421Y024166D01*
X002358Y024228D02*
X001461Y024228D01*
X001461Y024159D02*
X017101Y024159D01*
X017101Y024091D02*
X001461Y024091D01*
X001461Y024297D02*
X002290Y024297D01*
X002221Y024365D02*
X001461Y024365D01*
X001461Y024434D02*
X002166Y024434D01*
X002166Y024502D02*
X001461Y024502D01*
X001461Y024571D02*
X002166Y024571D01*
X002166Y024639D02*
X001461Y024639D01*
X001461Y024708D02*
X002166Y024708D01*
X002166Y024776D02*
X001461Y024776D01*
X001461Y024845D02*
X002230Y024845D01*
X002298Y024913D02*
X001461Y024913D01*
X001461Y024982D02*
X002367Y024982D01*
X002421Y025166D02*
X002781Y025166D01*
X003036Y025421D01*
X003036Y025781D01*
X002781Y026036D01*
X002421Y026036D01*
X002166Y025781D01*
X002166Y025421D01*
X002421Y025166D01*
X002399Y025188D02*
X001461Y025188D01*
X001461Y025256D02*
X002330Y025256D01*
X002262Y025325D02*
X001461Y025325D01*
X001461Y025393D02*
X002193Y025393D01*
X002166Y025462D02*
X001461Y025462D01*
X001461Y025530D02*
X002166Y025530D01*
X002166Y025599D02*
X001461Y025599D01*
X001461Y025667D02*
X002166Y025667D01*
X002166Y025736D02*
X001461Y025736D01*
X001461Y025805D02*
X002189Y025805D01*
X002258Y025873D02*
X001461Y025873D01*
X001461Y025942D02*
X002326Y025942D01*
X002395Y026010D02*
X001461Y026010D01*
X001461Y026079D02*
X011061Y026079D01*
X011061Y026147D02*
X001461Y026147D01*
X001461Y026216D02*
X002371Y026216D01*
X002421Y026166D02*
X002781Y026166D01*
X003036Y026421D01*
X003036Y026781D01*
X002781Y027036D01*
X002421Y027036D01*
X002166Y026781D01*
X002166Y026421D01*
X002421Y026166D01*
X002302Y026284D02*
X001461Y026284D01*
X001461Y026353D02*
X002234Y026353D01*
X002166Y026421D02*
X001461Y026421D01*
X001461Y026490D02*
X002166Y026490D01*
X002166Y026559D02*
X001461Y026559D01*
X001461Y026627D02*
X002166Y026627D01*
X002166Y026696D02*
X001461Y026696D01*
X001461Y026764D02*
X002166Y026764D01*
X002218Y026833D02*
X001461Y026833D01*
X001461Y026901D02*
X002286Y026901D01*
X002355Y026970D02*
X001461Y026970D01*
X001461Y027038D02*
X011061Y027038D01*
X011061Y026970D02*
X003847Y026970D01*
X003781Y027036D02*
X004036Y026781D01*
X004036Y026421D01*
X003781Y026166D01*
X003421Y026166D01*
X003166Y026421D01*
X003166Y026781D01*
X003421Y027036D01*
X003781Y027036D01*
X003781Y027166D02*
X004036Y027421D01*
X004036Y027781D01*
X003781Y028036D01*
X003421Y028036D01*
X003166Y027781D01*
X003166Y027421D01*
X003421Y027166D01*
X003781Y027166D01*
X003791Y027175D02*
X011061Y027175D01*
X011061Y027107D02*
X001461Y027107D01*
X001461Y027175D02*
X002411Y027175D01*
X002421Y027166D02*
X002781Y027166D01*
X003036Y027421D01*
X003036Y027781D01*
X002781Y028036D01*
X002421Y028036D01*
X002166Y027781D01*
X002166Y027421D01*
X002421Y027166D01*
X002342Y027244D02*
X001461Y027244D01*
X001461Y027312D02*
X002274Y027312D01*
X002205Y027381D02*
X001461Y027381D01*
X001461Y027450D02*
X002166Y027450D01*
X002166Y027518D02*
X001461Y027518D01*
X001461Y027587D02*
X002166Y027587D01*
X002166Y027655D02*
X001461Y027655D01*
X001461Y027724D02*
X002166Y027724D01*
X002177Y027792D02*
X001461Y027792D01*
X001461Y027861D02*
X002246Y027861D01*
X002314Y027929D02*
X001461Y027929D01*
X001461Y027998D02*
X002383Y027998D01*
X002421Y028166D02*
X002781Y028166D01*
X003036Y028421D01*
X003036Y028781D01*
X002781Y029036D01*
X002421Y029036D01*
X002166Y028781D01*
X002166Y028421D01*
X002421Y028166D01*
X002383Y028204D02*
X001461Y028204D01*
X001461Y028272D02*
X002314Y028272D01*
X002246Y028341D02*
X001461Y028341D01*
X001461Y028409D02*
X002177Y028409D01*
X002166Y028478D02*
X001461Y028478D01*
X001461Y028546D02*
X002166Y028546D01*
X002166Y028615D02*
X001461Y028615D01*
X001461Y028683D02*
X002166Y028683D01*
X002166Y028752D02*
X001461Y028752D01*
X001461Y028820D02*
X002205Y028820D01*
X002274Y028889D02*
X001461Y028889D01*
X001461Y028958D02*
X002342Y028958D01*
X002411Y029026D02*
X001461Y029026D01*
X001461Y029095D02*
X010248Y029095D01*
X010316Y029026D02*
X003791Y029026D01*
X003781Y029036D02*
X004036Y028781D01*
X004036Y028421D01*
X003781Y028166D01*
X003421Y028166D01*
X003166Y028421D01*
X003166Y028781D01*
X003421Y029036D01*
X003781Y029036D01*
X003859Y028958D02*
X010385Y028958D01*
X010453Y028889D02*
X003928Y028889D01*
X003996Y028820D02*
X010522Y028820D01*
X010590Y028752D02*
X004036Y028752D01*
X004036Y028683D02*
X010659Y028683D01*
X010727Y028615D02*
X004036Y028615D01*
X004036Y028546D02*
X010796Y028546D01*
X010864Y028478D02*
X004036Y028478D01*
X004024Y028409D02*
X010933Y028409D01*
X011002Y028341D02*
X003956Y028341D01*
X003887Y028272D02*
X011061Y028272D01*
X011061Y028281D02*
X011061Y024991D01*
X011201Y024851D01*
X011621Y024431D01*
X011820Y024431D01*
X011921Y024431D01*
X011957Y024395D01*
X012076Y024346D01*
X012205Y024346D01*
X012325Y024395D01*
X012416Y024487D01*
X012466Y024606D01*
X012466Y024735D01*
X012416Y024855D01*
X012325Y024946D01*
X012205Y024996D01*
X012076Y024996D01*
X011957Y024946D01*
X011921Y024911D01*
X011820Y024911D01*
X011541Y025190D01*
X011541Y028480D01*
X011400Y028621D01*
X008826Y031195D01*
X008826Y031245D01*
X008776Y031365D01*
X008741Y031400D01*
X008741Y034360D01*
X008600Y034501D01*
X008476Y034625D01*
X008476Y034675D01*
X008426Y034795D01*
X008335Y034886D01*
X008215Y034936D01*
X008086Y034936D01*
X007967Y034886D01*
X007875Y034795D01*
X007826Y034675D01*
X007826Y034546D01*
X007875Y034427D01*
X007967Y034335D01*
X008086Y034286D01*
X008136Y034286D01*
X008261Y034161D01*
X008261Y031400D01*
X008225Y031365D01*
X008176Y031245D01*
X008176Y031116D01*
X008225Y030997D01*
X008317Y030905D01*
X008436Y030856D01*
X008486Y030856D01*
X011061Y028281D01*
X011061Y028204D02*
X003819Y028204D01*
X003819Y027998D02*
X011061Y027998D01*
X011061Y028066D02*
X001461Y028066D01*
X001461Y028135D02*
X011061Y028135D01*
X011061Y027929D02*
X003887Y027929D01*
X003956Y027861D02*
X011061Y027861D01*
X011061Y027792D02*
X004024Y027792D01*
X004036Y027724D02*
X011061Y027724D01*
X011061Y027655D02*
X004036Y027655D01*
X004036Y027587D02*
X011061Y027587D01*
X011061Y027518D02*
X004036Y027518D01*
X004036Y027450D02*
X011061Y027450D01*
X011061Y027381D02*
X003996Y027381D01*
X003928Y027312D02*
X011061Y027312D01*
X011061Y027244D02*
X003859Y027244D01*
X003915Y026901D02*
X011061Y026901D01*
X011061Y026833D02*
X003984Y026833D01*
X004036Y026764D02*
X011061Y026764D01*
X011061Y026696D02*
X004036Y026696D01*
X004036Y026627D02*
X011061Y026627D01*
X011061Y026559D02*
X004036Y026559D01*
X004036Y026490D02*
X011061Y026490D01*
X011061Y026421D02*
X004036Y026421D01*
X003968Y026353D02*
X011061Y026353D01*
X011061Y026284D02*
X003899Y026284D01*
X003831Y026216D02*
X011061Y026216D01*
X011061Y026010D02*
X003807Y026010D01*
X003781Y026036D02*
X004036Y025781D01*
X004036Y025421D01*
X003781Y025166D01*
X003421Y025166D01*
X003166Y025421D01*
X003166Y025781D01*
X003421Y026036D01*
X003781Y026036D01*
X003875Y025942D02*
X011061Y025942D01*
X011061Y025873D02*
X003944Y025873D01*
X004012Y025805D02*
X011061Y025805D01*
X011061Y025736D02*
X004036Y025736D01*
X004036Y025667D02*
X011061Y025667D01*
X011061Y025599D02*
X004036Y025599D01*
X004036Y025530D02*
X011061Y025530D01*
X011061Y025462D02*
X004036Y025462D01*
X004008Y025393D02*
X011061Y025393D01*
X011061Y025325D02*
X003940Y025325D01*
X003871Y025256D02*
X011061Y025256D01*
X011061Y025188D02*
X003803Y025188D01*
X003781Y025036D02*
X004036Y024781D01*
X004036Y024421D01*
X003781Y024166D01*
X003421Y024166D01*
X003166Y024421D01*
X003166Y024781D01*
X003421Y025036D01*
X003781Y025036D01*
X003835Y024982D02*
X011070Y024982D01*
X011061Y025051D02*
X001461Y025051D01*
X001461Y025119D02*
X011061Y025119D01*
X011139Y024913D02*
X003903Y024913D01*
X003972Y024845D02*
X011207Y024845D01*
X011276Y024776D02*
X004036Y024776D01*
X004036Y024708D02*
X011344Y024708D01*
X011413Y024639D02*
X004036Y024639D01*
X004036Y024571D02*
X011481Y024571D01*
X011550Y024502D02*
X004036Y024502D01*
X004036Y024434D02*
X011619Y024434D01*
X011817Y024913D02*
X011924Y024913D01*
X012043Y024982D02*
X011749Y024982D01*
X011680Y025051D02*
X017101Y025051D01*
X017101Y025119D02*
X011612Y025119D01*
X011543Y025188D02*
X017101Y025188D01*
X017101Y025256D02*
X011541Y025256D01*
X011541Y025325D02*
X017101Y025325D01*
X017101Y025393D02*
X011541Y025393D01*
X011541Y025462D02*
X015406Y025462D01*
X015468Y025436D02*
X015733Y025436D01*
X015977Y025537D01*
X016165Y025724D01*
X016266Y025968D01*
X016266Y026233D01*
X016165Y026477D01*
X015977Y026665D01*
X015733Y026766D01*
X015468Y026766D01*
X015224Y026665D01*
X015037Y026477D01*
X014936Y026233D01*
X014936Y025968D01*
X015037Y025724D01*
X015224Y025537D01*
X015468Y025436D01*
X015240Y025530D02*
X011541Y025530D01*
X011541Y025599D02*
X015162Y025599D01*
X015094Y025667D02*
X011541Y025667D01*
X011541Y025736D02*
X015032Y025736D01*
X015004Y025805D02*
X011541Y025805D01*
X011541Y025873D02*
X014975Y025873D01*
X014947Y025942D02*
X011541Y025942D01*
X011541Y026010D02*
X014936Y026010D01*
X014936Y026079D02*
X011541Y026079D01*
X011541Y026147D02*
X014936Y026147D01*
X014936Y026216D02*
X011541Y026216D01*
X011541Y026284D02*
X014957Y026284D01*
X014985Y026353D02*
X011541Y026353D01*
X011541Y026421D02*
X015014Y026421D01*
X015050Y026490D02*
X011541Y026490D01*
X011541Y026559D02*
X015118Y026559D01*
X015187Y026627D02*
X011541Y026627D01*
X011541Y026696D02*
X015299Y026696D01*
X015465Y026764D02*
X011541Y026764D01*
X011541Y026833D02*
X017101Y026833D01*
X017101Y026901D02*
X011541Y026901D01*
X011541Y026970D02*
X017101Y026970D01*
X017101Y027038D02*
X011541Y027038D01*
X011541Y027107D02*
X017101Y027107D01*
X017101Y027175D02*
X011541Y027175D01*
X011541Y027244D02*
X017101Y027244D01*
X017101Y027312D02*
X011541Y027312D01*
X011541Y027381D02*
X017101Y027381D01*
X017101Y027450D02*
X011541Y027450D01*
X011541Y027518D02*
X017101Y027518D01*
X017101Y027587D02*
X011541Y027587D01*
X011541Y027655D02*
X017101Y027655D01*
X017101Y027724D02*
X011541Y027724D01*
X011541Y027792D02*
X017101Y027792D01*
X017101Y027861D02*
X011541Y027861D01*
X011541Y027929D02*
X017101Y027929D01*
X017101Y027998D02*
X011541Y027998D01*
X011541Y028066D02*
X017101Y028066D01*
X017101Y028135D02*
X011541Y028135D01*
X011541Y028204D02*
X017101Y028204D01*
X017101Y028272D02*
X011541Y028272D01*
X011541Y028341D02*
X017101Y028341D01*
X017101Y028409D02*
X011541Y028409D01*
X011541Y028478D02*
X017101Y028478D01*
X017101Y028546D02*
X011475Y028546D01*
X011406Y028615D02*
X017101Y028615D01*
X017101Y028683D02*
X011338Y028683D01*
X011269Y028752D02*
X017101Y028752D01*
X017101Y028820D02*
X011200Y028820D01*
X011132Y028889D02*
X017101Y028889D01*
X017101Y028958D02*
X011063Y028958D01*
X010995Y029026D02*
X017101Y029026D01*
X017101Y029095D02*
X010926Y029095D01*
X010858Y029163D02*
X017101Y029163D01*
X017101Y029232D02*
X010789Y029232D01*
X010721Y029300D02*
X017101Y029300D01*
X017101Y029369D02*
X010652Y029369D01*
X010584Y029437D02*
X017101Y029437D01*
X017101Y029506D02*
X010515Y029506D01*
X010446Y029574D02*
X017101Y029574D01*
X017101Y029643D02*
X010378Y029643D01*
X010309Y029711D02*
X017101Y029711D01*
X017101Y029780D02*
X015560Y029780D01*
X015506Y029726D02*
X015726Y029945D01*
X015726Y030256D01*
X015506Y030476D01*
X015195Y030476D01*
X014976Y030256D01*
X014976Y029945D01*
X015195Y029726D01*
X015506Y029726D01*
X015629Y029849D02*
X017101Y029849D01*
X017101Y029917D02*
X015697Y029917D01*
X015726Y029986D02*
X017101Y029986D01*
X017101Y030054D02*
X015726Y030054D01*
X015726Y030123D02*
X017101Y030123D01*
X017101Y030191D02*
X015726Y030191D01*
X015722Y030260D02*
X017101Y030260D01*
X017101Y030328D02*
X015653Y030328D01*
X015585Y030397D02*
X017101Y030397D01*
X017101Y030465D02*
X015516Y030465D01*
X015506Y030726D02*
X015726Y030945D01*
X017101Y030945D01*
X017101Y030877D02*
X015657Y030877D01*
X015726Y030945D02*
X015726Y031256D01*
X015506Y031476D01*
X015195Y031476D01*
X014976Y031256D01*
X014976Y030945D01*
X014726Y030945D01*
X014506Y030726D01*
X014195Y030726D01*
X013976Y030945D01*
X009076Y030945D01*
X009144Y030877D02*
X014045Y030877D01*
X014113Y030808D02*
X009213Y030808D01*
X009281Y030740D02*
X014182Y030740D01*
X014195Y030476D02*
X013976Y030256D01*
X013976Y029945D01*
X014195Y029726D01*
X014506Y029726D01*
X014726Y029945D01*
X014726Y030256D01*
X014506Y030476D01*
X014195Y030476D01*
X014185Y030465D02*
X009555Y030465D01*
X009624Y030397D02*
X014117Y030397D01*
X014048Y030328D02*
X009693Y030328D01*
X009761Y030260D02*
X013980Y030260D01*
X013976Y030191D02*
X009830Y030191D01*
X009898Y030123D02*
X013976Y030123D01*
X013976Y030054D02*
X009967Y030054D01*
X010035Y029986D02*
X013976Y029986D01*
X014004Y029917D02*
X010104Y029917D01*
X010172Y029849D02*
X014073Y029849D01*
X014141Y029780D02*
X010241Y029780D01*
X009905Y029437D02*
X004036Y029437D01*
X004036Y029421D02*
X003781Y029166D01*
X003421Y029166D01*
X003166Y029421D01*
X003166Y029781D01*
X003421Y030036D01*
X003781Y030036D01*
X004036Y029781D01*
X004036Y029421D01*
X003984Y029369D02*
X009973Y029369D01*
X010042Y029300D02*
X003915Y029300D01*
X003847Y029232D02*
X010110Y029232D01*
X010179Y029163D02*
X001461Y029163D01*
X001461Y029232D02*
X002355Y029232D01*
X002421Y029166D02*
X002781Y029166D01*
X003036Y029421D01*
X003036Y029781D01*
X002781Y030036D01*
X002421Y030036D01*
X002166Y029781D01*
X002166Y029421D01*
X002421Y029166D01*
X002286Y029300D02*
X001461Y029300D01*
X001461Y029369D02*
X002218Y029369D01*
X002166Y029437D02*
X001461Y029437D01*
X001461Y029506D02*
X002166Y029506D01*
X002166Y029574D02*
X001461Y029574D01*
X001461Y029643D02*
X002166Y029643D01*
X002166Y029711D02*
X001461Y029711D01*
X001461Y029780D02*
X002166Y029780D01*
X002233Y029849D02*
X001461Y029849D01*
X001461Y029917D02*
X002302Y029917D01*
X002371Y029986D02*
X001461Y029986D01*
X001461Y030054D02*
X009288Y030054D01*
X009356Y029986D02*
X003831Y029986D01*
X003900Y029917D02*
X009425Y029917D01*
X009494Y029849D02*
X003968Y029849D01*
X004036Y029780D02*
X009562Y029780D01*
X009631Y029711D02*
X004036Y029711D01*
X004036Y029643D02*
X009699Y029643D01*
X009768Y029574D02*
X004036Y029574D01*
X004036Y029506D02*
X009836Y029506D01*
X009487Y030534D02*
X017101Y030534D01*
X017101Y030603D02*
X009418Y030603D01*
X009350Y030671D02*
X017101Y030671D01*
X017101Y030740D02*
X015520Y030740D01*
X015506Y030726D02*
X015195Y030726D01*
X014976Y030945D01*
X014976Y031014D02*
X014726Y031014D01*
X014726Y031082D02*
X014976Y031082D01*
X014976Y031151D02*
X014726Y031151D01*
X014726Y031219D02*
X014976Y031219D01*
X015008Y031288D02*
X014694Y031288D01*
X014726Y031256D02*
X014506Y031476D01*
X014195Y031476D01*
X013976Y031256D01*
X013976Y030945D01*
X013976Y031014D02*
X009007Y031014D01*
X008939Y031082D02*
X013976Y031082D01*
X013976Y031151D02*
X008870Y031151D01*
X008826Y031219D02*
X013976Y031219D01*
X014008Y031288D02*
X008808Y031288D01*
X008780Y031357D02*
X014076Y031357D01*
X014145Y031425D02*
X008741Y031425D01*
X008741Y031494D02*
X017101Y031494D01*
X017101Y031562D02*
X009345Y031562D01*
X009424Y031631D02*
X017101Y031631D01*
X017101Y031699D02*
X009463Y031699D01*
X009486Y031768D02*
X017101Y031768D01*
X017101Y031836D02*
X009486Y031836D01*
X009470Y031905D02*
X017101Y031905D01*
X017101Y031973D02*
X009441Y031973D01*
X009373Y032042D02*
X017101Y032042D01*
X017101Y032111D02*
X009141Y032111D01*
X009091Y032179D02*
X017101Y032179D01*
X017101Y032248D02*
X009091Y032248D01*
X009091Y032316D02*
X017101Y032316D01*
X017101Y032385D02*
X009091Y032385D01*
X009091Y032453D02*
X017101Y032453D01*
X017101Y032522D02*
X009091Y032522D01*
X009091Y032590D02*
X017101Y032590D01*
X017101Y032659D02*
X009091Y032659D01*
X009091Y032727D02*
X017101Y032727D01*
X017101Y032796D02*
X009091Y032796D01*
X009091Y032864D02*
X017101Y032864D01*
X017101Y032933D02*
X009091Y032933D01*
X009091Y033002D02*
X017101Y033002D01*
X017101Y033070D02*
X009091Y033070D01*
X009091Y033139D02*
X017101Y033139D01*
X017101Y033207D02*
X009091Y033207D01*
X009091Y033276D02*
X017101Y033276D01*
X017101Y033344D02*
X009091Y033344D01*
X009091Y033413D02*
X017101Y033413D01*
X017101Y033481D02*
X009091Y033481D01*
X009091Y033550D02*
X017101Y033550D01*
X017101Y033618D02*
X009091Y033618D01*
X009091Y033687D02*
X017101Y033687D01*
X017101Y033756D02*
X009091Y033756D01*
X009091Y033824D02*
X017101Y033824D01*
X017101Y033893D02*
X009091Y033893D01*
X009091Y033961D02*
X017101Y033961D01*
X017101Y034030D02*
X009091Y034030D01*
X009091Y034098D02*
X017101Y034098D01*
X017101Y034167D02*
X009091Y034167D01*
X009091Y034235D02*
X017101Y034235D01*
X017101Y034304D02*
X009091Y034304D01*
X009091Y034372D02*
X017101Y034372D01*
X017101Y034441D02*
X009091Y034441D01*
X009091Y034510D02*
X017101Y034510D01*
X017101Y034578D02*
X009091Y034578D01*
X009091Y034647D02*
X017101Y034647D01*
X017101Y034715D02*
X009091Y034715D01*
X009091Y034784D02*
X017101Y034784D01*
X017101Y034852D02*
X016065Y034852D01*
X015977Y034816D02*
X016302Y034951D01*
X016551Y035199D01*
X016686Y035525D01*
X016686Y035877D01*
X016551Y036202D01*
X016302Y036451D01*
X015977Y036586D01*
X015625Y036586D01*
X015299Y036451D01*
X015051Y036202D01*
X014916Y035877D01*
X014916Y035525D01*
X015051Y035199D01*
X015299Y034951D01*
X015625Y034816D01*
X015977Y034816D01*
X016230Y034921D02*
X017101Y034921D01*
X017101Y034989D02*
X016341Y034989D01*
X016409Y035058D02*
X017101Y035058D01*
X017101Y035126D02*
X016478Y035126D01*
X016547Y035195D02*
X017101Y035195D01*
X017101Y035264D02*
X016578Y035264D01*
X016606Y035332D02*
X017101Y035332D01*
X017101Y035401D02*
X016634Y035401D01*
X016663Y035469D02*
X017101Y035469D01*
X017101Y035538D02*
X016686Y035538D01*
X016686Y035606D02*
X017101Y035606D01*
X017101Y035675D02*
X016686Y035675D01*
X016686Y035743D02*
X017101Y035743D01*
X017101Y035812D02*
X016686Y035812D01*
X016684Y035880D02*
X017101Y035880D01*
X017101Y035949D02*
X016656Y035949D01*
X016628Y036017D02*
X017101Y036017D01*
X017101Y036086D02*
X016599Y036086D01*
X016571Y036155D02*
X017101Y036155D01*
X017101Y036223D02*
X016530Y036223D01*
X016461Y036292D02*
X017101Y036292D01*
X017101Y036360D02*
X016393Y036360D01*
X016324Y036429D02*
X017101Y036429D01*
X017101Y036497D02*
X016190Y036497D01*
X016025Y036566D02*
X017101Y036566D01*
X017101Y036634D02*
X009091Y036634D01*
X009091Y036566D02*
X015577Y036566D01*
X015411Y036497D02*
X009091Y036497D01*
X009091Y036429D02*
X015277Y036429D01*
X015209Y036360D02*
X009091Y036360D01*
X009091Y036292D02*
X015140Y036292D01*
X015072Y036223D02*
X009091Y036223D01*
X009091Y036155D02*
X015031Y036155D01*
X015002Y036086D02*
X009091Y036086D01*
X009091Y036017D02*
X014974Y036017D01*
X014946Y035949D02*
X009091Y035949D01*
X009091Y035880D02*
X014917Y035880D01*
X014916Y035812D02*
X009091Y035812D01*
X009091Y035743D02*
X014916Y035743D01*
X014916Y035675D02*
X009091Y035675D01*
X009091Y035606D02*
X014916Y035606D01*
X014916Y035538D02*
X009091Y035538D01*
X009091Y035469D02*
X014939Y035469D01*
X014967Y035401D02*
X009091Y035401D01*
X009091Y035332D02*
X014996Y035332D01*
X015024Y035264D02*
X009091Y035264D01*
X009091Y035195D02*
X015055Y035195D01*
X015124Y035126D02*
X009091Y035126D01*
X009091Y035058D02*
X015192Y035058D01*
X015261Y034989D02*
X009091Y034989D01*
X009091Y034921D02*
X015371Y034921D01*
X015537Y034852D02*
X009091Y034852D01*
X008751Y034852D02*
X008369Y034852D01*
X008431Y034784D02*
X008751Y034784D01*
X008751Y034715D02*
X008459Y034715D01*
X008476Y034647D02*
X008751Y034647D01*
X008751Y034578D02*
X008523Y034578D01*
X008591Y034510D02*
X008751Y034510D01*
X008751Y034441D02*
X008660Y034441D01*
X008728Y034372D02*
X008751Y034372D01*
X008741Y034304D02*
X008751Y034304D01*
X008741Y034235D02*
X008751Y034235D01*
X008741Y034167D02*
X008751Y034167D01*
X008741Y034098D02*
X008751Y034098D01*
X008741Y034030D02*
X008751Y034030D01*
X008741Y033961D02*
X008751Y033961D01*
X008741Y033893D02*
X008751Y033893D01*
X008741Y033824D02*
X008751Y033824D01*
X008741Y033756D02*
X008751Y033756D01*
X008741Y033687D02*
X008751Y033687D01*
X008741Y033618D02*
X008751Y033618D01*
X008741Y033550D02*
X008751Y033550D01*
X008741Y033481D02*
X008751Y033481D01*
X008741Y033413D02*
X008751Y033413D01*
X008741Y033344D02*
X008751Y033344D01*
X008741Y033276D02*
X008751Y033276D01*
X008741Y033207D02*
X008751Y033207D01*
X008741Y033139D02*
X008751Y033139D01*
X008741Y033070D02*
X008751Y033070D01*
X008741Y033002D02*
X008751Y033002D01*
X008741Y032933D02*
X008751Y032933D01*
X008741Y032864D02*
X008751Y032864D01*
X008741Y032796D02*
X008751Y032796D01*
X008741Y032727D02*
X008751Y032727D01*
X008741Y032659D02*
X008751Y032659D01*
X008741Y032590D02*
X008751Y032590D01*
X008741Y032522D02*
X008751Y032522D01*
X008741Y032453D02*
X008751Y032453D01*
X008741Y032385D02*
X008751Y032385D01*
X008741Y032316D02*
X008751Y032316D01*
X008741Y032248D02*
X008751Y032248D01*
X008741Y032179D02*
X008751Y032179D01*
X008741Y032111D02*
X008751Y032111D01*
X008741Y032042D02*
X008751Y032042D01*
X008741Y031973D02*
X008798Y031973D01*
X008741Y031905D02*
X008866Y031905D01*
X008916Y031836D02*
X008741Y031836D01*
X008741Y031768D02*
X008916Y031768D01*
X008938Y031699D02*
X008741Y031699D01*
X008741Y031631D02*
X008978Y031631D01*
X009056Y031562D02*
X008741Y031562D01*
X009201Y031811D02*
X008921Y032091D01*
X008921Y043571D01*
X009036Y043831D02*
X012581Y043831D01*
X012551Y043819D02*
X012488Y043756D01*
X011756Y043756D01*
X011545Y043756D01*
X010495Y042706D01*
X010346Y042556D01*
X010346Y040176D01*
X009515Y039346D01*
X009486Y039346D01*
X009367Y039296D01*
X009275Y039205D01*
X009226Y039085D01*
X009226Y038956D01*
X009275Y038837D01*
X009367Y038745D01*
X009486Y038696D01*
X009615Y038696D01*
X009735Y038745D01*
X009824Y038834D01*
X009879Y038779D01*
X009984Y038736D01*
X010097Y038736D01*
X010202Y038779D01*
X010282Y038859D01*
X010326Y038964D01*
X010326Y039065D01*
X010531Y039271D01*
X011021Y039271D01*
X011121Y039370D01*
X011931Y040181D01*
X013540Y040181D01*
X013721Y040000D01*
X013721Y039720D01*
X013820Y039621D01*
X013938Y039503D01*
X013931Y039506D01*
X013770Y039506D01*
X013621Y039444D01*
X013507Y039330D01*
X013446Y039181D01*
X013446Y039020D01*
X013507Y038871D01*
X013621Y038757D01*
X013758Y038701D01*
X013621Y038644D01*
X013507Y038530D01*
X013446Y038381D01*
X013446Y038220D01*
X013507Y038071D01*
X013621Y037957D01*
X013758Y037901D01*
X013621Y037844D01*
X013507Y037730D01*
X013446Y037581D01*
X013446Y037420D01*
X013507Y037271D01*
X013621Y037157D01*
X013770Y037096D01*
X013931Y037096D01*
X014080Y037157D01*
X014194Y037271D01*
X014256Y037420D01*
X014256Y037581D01*
X014194Y037730D01*
X014080Y037844D01*
X013943Y037901D01*
X014080Y037957D01*
X014194Y038071D01*
X014256Y038220D01*
X014256Y038381D01*
X014194Y038530D01*
X014080Y038644D01*
X013943Y038701D01*
X014080Y038757D01*
X014194Y038871D01*
X014256Y039020D01*
X014256Y039181D01*
X014253Y039188D01*
X014380Y039061D01*
X014521Y039061D01*
X014538Y039061D01*
X014507Y039030D01*
X014446Y038881D01*
X014446Y038720D01*
X014507Y038571D01*
X014621Y038457D01*
X014758Y038401D01*
X014621Y038344D01*
X014507Y038230D01*
X014446Y038081D01*
X014446Y038036D01*
X014816Y038036D01*
X014816Y038396D01*
X014886Y038396D01*
X014886Y038036D01*
X015256Y038036D01*
X015256Y038081D01*
X015198Y038220D01*
X015199Y038219D01*
X015304Y038176D01*
X015417Y038176D01*
X015522Y038219D01*
X015602Y038299D01*
X015641Y038392D01*
X015679Y038299D01*
X015759Y038219D01*
X015864Y038176D01*
X015977Y038176D01*
X016082Y038219D01*
X016162Y038299D01*
X016206Y038404D01*
X016206Y038517D01*
X016162Y038622D01*
X017101Y038622D01*
X017101Y038554D02*
X016191Y038554D01*
X016206Y038485D02*
X017101Y038485D01*
X017101Y038416D02*
X016206Y038416D01*
X016182Y038348D02*
X017101Y038348D01*
X017101Y038279D02*
X016142Y038279D01*
X016062Y038211D02*
X017101Y038211D01*
X017101Y038142D02*
X015231Y038142D01*
X015219Y038211D02*
X015202Y038211D01*
X015256Y038074D02*
X017101Y038074D01*
X017101Y038005D02*
X014128Y038005D01*
X014195Y038074D02*
X014446Y038074D01*
X014471Y038142D02*
X014223Y038142D01*
X014252Y038211D02*
X014499Y038211D01*
X014557Y038279D02*
X014256Y038279D01*
X014256Y038348D02*
X014631Y038348D01*
X014720Y038416D02*
X014241Y038416D01*
X014213Y038485D02*
X014594Y038485D01*
X014525Y038554D02*
X014171Y038554D01*
X014102Y038622D02*
X014486Y038622D01*
X014458Y038691D02*
X013968Y038691D01*
X014082Y038759D02*
X014446Y038759D01*
X014446Y038828D02*
X014151Y038828D01*
X014204Y038896D02*
X014452Y038896D01*
X014480Y038965D02*
X014233Y038965D01*
X014256Y039033D02*
X014511Y039033D01*
X014339Y039102D02*
X014256Y039102D01*
X014256Y039170D02*
X014271Y039170D01*
X014451Y039231D02*
X013891Y039791D01*
X013891Y040071D01*
X013611Y040351D01*
X011861Y040351D01*
X010951Y039441D01*
X010461Y039441D01*
X010041Y039021D01*
X010154Y038759D02*
X013620Y038759D01*
X013551Y038828D02*
X010251Y038828D01*
X010298Y038896D02*
X013497Y038896D01*
X013469Y038965D02*
X010326Y038965D01*
X010326Y039033D02*
X013446Y039033D01*
X013446Y039102D02*
X010362Y039102D01*
X010431Y039170D02*
X013446Y039170D01*
X013470Y039239D02*
X010499Y039239D01*
X010094Y039924D02*
X009091Y039924D01*
X009091Y039856D02*
X010025Y039856D01*
X009957Y039787D02*
X009091Y039787D01*
X009091Y039719D02*
X009888Y039719D01*
X009820Y039650D02*
X009091Y039650D01*
X009091Y039582D02*
X009751Y039582D01*
X009683Y039513D02*
X009091Y039513D01*
X009091Y039445D02*
X009614Y039445D01*
X009546Y039376D02*
X009091Y039376D01*
X009091Y039308D02*
X009394Y039308D01*
X009309Y039239D02*
X009091Y039239D01*
X009091Y039170D02*
X009261Y039170D01*
X009233Y039102D02*
X009091Y039102D01*
X009091Y039033D02*
X009226Y039033D01*
X009226Y038965D02*
X009091Y038965D01*
X009091Y038896D02*
X009251Y038896D01*
X009284Y038828D02*
X009091Y038828D01*
X009091Y038759D02*
X009353Y038759D01*
X009091Y038691D02*
X013734Y038691D01*
X013599Y038622D02*
X009091Y038622D01*
X009091Y038554D02*
X013531Y038554D01*
X013489Y038485D02*
X009091Y038485D01*
X009091Y038416D02*
X013460Y038416D01*
X013446Y038348D02*
X009091Y038348D01*
X009091Y038279D02*
X013446Y038279D01*
X013450Y038211D02*
X009091Y038211D01*
X009091Y038142D02*
X013478Y038142D01*
X013506Y038074D02*
X009091Y038074D01*
X009091Y038005D02*
X013574Y038005D01*
X013671Y037937D02*
X009091Y037937D01*
X009091Y037868D02*
X013679Y037868D01*
X013577Y037800D02*
X009091Y037800D01*
X009091Y037731D02*
X013508Y037731D01*
X013479Y037663D02*
X009091Y037663D01*
X009091Y037594D02*
X013451Y037594D01*
X013446Y037525D02*
X009091Y037525D01*
X009091Y037457D02*
X013446Y037457D01*
X013459Y037388D02*
X009091Y037388D01*
X009091Y037320D02*
X013487Y037320D01*
X013528Y037251D02*
X009091Y037251D01*
X009091Y037183D02*
X013596Y037183D01*
X013726Y037114D02*
X009091Y037114D01*
X009091Y037046D02*
X014446Y037046D01*
X014446Y037114D02*
X013976Y037114D01*
X014105Y037183D02*
X014446Y037183D01*
X014446Y037251D02*
X014174Y037251D01*
X014214Y037320D02*
X014446Y037320D01*
X014446Y037388D02*
X014243Y037388D01*
X014256Y037457D02*
X014446Y037457D01*
X014446Y037525D02*
X014256Y037525D01*
X014251Y037594D02*
X014513Y037594D01*
X014525Y037606D02*
X014446Y037527D01*
X014446Y036875D01*
X014525Y036796D01*
X015177Y036796D01*
X015256Y036875D01*
X015256Y037527D01*
X015177Y037606D01*
X014955Y037606D01*
X015080Y037657D01*
X015194Y037771D01*
X015256Y037920D01*
X015256Y037966D01*
X014886Y037966D01*
X014886Y037606D01*
X014816Y037606D01*
X014816Y037966D01*
X014446Y037966D01*
X014446Y037920D01*
X014507Y037771D01*
X014621Y037657D01*
X014746Y037606D01*
X014525Y037606D01*
X014616Y037663D02*
X014222Y037663D01*
X014193Y037731D02*
X014548Y037731D01*
X014496Y037800D02*
X014125Y037800D01*
X014022Y037868D02*
X014467Y037868D01*
X014446Y037937D02*
X014030Y037937D01*
X014446Y036977D02*
X009091Y036977D01*
X009091Y036909D02*
X014446Y036909D01*
X014481Y036840D02*
X009091Y036840D01*
X009091Y036771D02*
X017101Y036771D01*
X017101Y036703D02*
X009091Y036703D01*
X008751Y036703D02*
X004036Y036703D01*
X004036Y036771D02*
X008751Y036771D01*
X008751Y036840D02*
X003977Y036840D01*
X004036Y036781D02*
X003781Y037036D01*
X003421Y037036D01*
X003166Y036781D01*
X003166Y036421D01*
X003421Y036166D01*
X003781Y036166D01*
X004036Y036421D01*
X004036Y036781D01*
X004036Y036634D02*
X008751Y036634D01*
X008751Y036566D02*
X004036Y036566D01*
X004036Y036497D02*
X008751Y036497D01*
X008751Y036429D02*
X004036Y036429D01*
X003975Y036360D02*
X008751Y036360D01*
X008751Y036292D02*
X003907Y036292D01*
X003838Y036223D02*
X008751Y036223D01*
X008751Y036155D02*
X001461Y036155D01*
X001461Y036223D02*
X002363Y036223D01*
X002421Y036166D02*
X002781Y036166D01*
X003036Y036421D01*
X003036Y036781D01*
X002781Y037036D01*
X002421Y037036D01*
X002166Y036781D01*
X002166Y036421D01*
X002421Y036166D01*
X002421Y036036D02*
X002166Y035781D01*
X002166Y035421D01*
X002421Y035166D01*
X002781Y035166D01*
X003036Y035421D01*
X003036Y035781D01*
X002781Y036036D01*
X002421Y036036D01*
X002402Y036017D02*
X001461Y036017D01*
X001461Y035949D02*
X002334Y035949D01*
X002265Y035880D02*
X001461Y035880D01*
X001461Y035812D02*
X002197Y035812D01*
X002166Y035743D02*
X001461Y035743D01*
X001461Y035675D02*
X002166Y035675D01*
X002166Y035606D02*
X001461Y035606D01*
X001461Y035538D02*
X002166Y035538D01*
X002166Y035469D02*
X001461Y035469D01*
X001461Y035401D02*
X002186Y035401D01*
X002254Y035332D02*
X001461Y035332D01*
X001461Y035264D02*
X002323Y035264D01*
X002391Y035195D02*
X001461Y035195D01*
X001461Y035126D02*
X008751Y035126D01*
X008751Y035058D02*
X001461Y035058D01*
X001461Y034989D02*
X002374Y034989D01*
X002421Y035036D02*
X002166Y034781D01*
X002166Y034421D01*
X002421Y034166D01*
X002781Y034166D01*
X003036Y034421D01*
X003036Y034781D01*
X002781Y035036D01*
X002421Y035036D01*
X002306Y034921D02*
X001461Y034921D01*
X001461Y034852D02*
X002237Y034852D01*
X002169Y034784D02*
X001461Y034784D01*
X001461Y034715D02*
X002166Y034715D01*
X002166Y034647D02*
X001461Y034647D01*
X001461Y034578D02*
X002166Y034578D01*
X002166Y034510D02*
X001461Y034510D01*
X001461Y034441D02*
X002166Y034441D01*
X002214Y034372D02*
X001461Y034372D01*
X001461Y034304D02*
X002282Y034304D01*
X002351Y034235D02*
X001461Y034235D01*
X001461Y034167D02*
X002420Y034167D01*
X002421Y034036D02*
X002166Y033781D01*
X002166Y033421D01*
X002421Y033166D01*
X002781Y033166D01*
X003036Y033421D01*
X003036Y033781D01*
X002781Y034036D01*
X002421Y034036D01*
X002415Y034030D02*
X001461Y034030D01*
X001461Y034098D02*
X008261Y034098D01*
X008261Y034030D02*
X003787Y034030D01*
X003781Y034036D02*
X004036Y033781D01*
X004036Y033421D01*
X003781Y033166D01*
X003421Y033166D01*
X003166Y033421D01*
X003166Y033781D01*
X003421Y034036D01*
X003781Y034036D01*
X003856Y033961D02*
X008261Y033961D01*
X008261Y033893D02*
X003924Y033893D01*
X003993Y033824D02*
X008261Y033824D01*
X008261Y033756D02*
X004036Y033756D01*
X004036Y033687D02*
X008261Y033687D01*
X008261Y033618D02*
X004036Y033618D01*
X004036Y033550D02*
X008261Y033550D01*
X008261Y033481D02*
X004036Y033481D01*
X004028Y033413D02*
X008261Y033413D01*
X008261Y033344D02*
X003959Y033344D01*
X003891Y033276D02*
X008261Y033276D01*
X008261Y033207D02*
X003822Y033207D01*
X003781Y033036D02*
X004036Y032781D01*
X004036Y032421D01*
X003781Y032166D01*
X003421Y032166D01*
X003166Y032421D01*
X003166Y032781D01*
X003421Y033036D01*
X003781Y033036D01*
X003815Y033002D02*
X008261Y033002D01*
X008261Y033070D02*
X001461Y033070D01*
X001461Y033002D02*
X002386Y033002D01*
X002421Y033036D02*
X002166Y032781D01*
X002166Y032421D01*
X002421Y032166D01*
X002781Y032166D01*
X003036Y032421D01*
X003036Y032781D01*
X002781Y033036D01*
X002421Y033036D01*
X002318Y032933D02*
X001461Y032933D01*
X001461Y032864D02*
X002249Y032864D01*
X002181Y032796D02*
X001461Y032796D01*
X001461Y032727D02*
X002166Y032727D01*
X002166Y032659D02*
X001461Y032659D01*
X001461Y032590D02*
X002166Y032590D01*
X002166Y032522D02*
X001461Y032522D01*
X001461Y032453D02*
X002166Y032453D01*
X002202Y032385D02*
X001461Y032385D01*
X001461Y032316D02*
X002270Y032316D01*
X002339Y032248D02*
X001461Y032248D01*
X001461Y032179D02*
X002407Y032179D01*
X002421Y032036D02*
X002166Y031781D01*
X002166Y031421D01*
X002421Y031166D01*
X002781Y031166D01*
X003036Y031421D01*
X003036Y031781D01*
X002781Y032036D01*
X002421Y032036D01*
X002358Y031973D02*
X001461Y031973D01*
X001461Y031905D02*
X002290Y031905D01*
X002221Y031836D02*
X001461Y031836D01*
X001461Y031768D02*
X002166Y031768D01*
X002166Y031699D02*
X001461Y031699D01*
X001461Y031631D02*
X002166Y031631D01*
X002166Y031562D02*
X001461Y031562D01*
X001461Y031494D02*
X002166Y031494D01*
X002166Y031425D02*
X001461Y031425D01*
X001461Y031357D02*
X002230Y031357D01*
X002298Y031288D02*
X001461Y031288D01*
X001461Y031219D02*
X002367Y031219D01*
X002421Y031036D02*
X002166Y030781D01*
X002166Y030421D01*
X002421Y030166D01*
X002781Y030166D01*
X003036Y030421D01*
X003036Y030781D01*
X002781Y031036D01*
X002421Y031036D01*
X002399Y031014D02*
X001461Y031014D01*
X001461Y031082D02*
X008190Y031082D01*
X008176Y031151D02*
X001461Y031151D01*
X001461Y030945D02*
X002330Y030945D01*
X002262Y030877D02*
X001461Y030877D01*
X001461Y030808D02*
X002193Y030808D01*
X002166Y030740D02*
X001461Y030740D01*
X001461Y030671D02*
X002166Y030671D01*
X002166Y030603D02*
X001461Y030603D01*
X001461Y030534D02*
X002166Y030534D01*
X002166Y030465D02*
X001461Y030465D01*
X001461Y030397D02*
X002189Y030397D01*
X002258Y030328D02*
X001461Y030328D01*
X001461Y030260D02*
X002327Y030260D01*
X002395Y030191D02*
X001461Y030191D01*
X001461Y030123D02*
X009219Y030123D01*
X009151Y030191D02*
X003806Y030191D01*
X003781Y030166D02*
X004036Y030421D01*
X004036Y030781D01*
X003781Y031036D01*
X003421Y031036D01*
X003166Y030781D01*
X003166Y030421D01*
X003421Y030166D01*
X003781Y030166D01*
X003875Y030260D02*
X009082Y030260D01*
X009014Y030328D02*
X003944Y030328D01*
X004012Y030397D02*
X008945Y030397D01*
X008877Y030465D02*
X004036Y030465D01*
X004036Y030534D02*
X008808Y030534D01*
X008740Y030603D02*
X004036Y030603D01*
X004036Y030671D02*
X008671Y030671D01*
X008603Y030740D02*
X004036Y030740D01*
X004009Y030808D02*
X008534Y030808D01*
X008386Y030877D02*
X003940Y030877D01*
X003871Y030945D02*
X008277Y030945D01*
X008218Y031014D02*
X003803Y031014D01*
X003781Y031166D02*
X004036Y031421D01*
X004036Y031781D01*
X003781Y032036D01*
X003421Y032036D01*
X003166Y031781D01*
X003166Y031421D01*
X003421Y031166D01*
X003781Y031166D01*
X003835Y031219D02*
X008176Y031219D01*
X008193Y031288D02*
X003903Y031288D01*
X003972Y031357D02*
X008222Y031357D01*
X008261Y031425D02*
X004036Y031425D01*
X004036Y031494D02*
X008261Y031494D01*
X008261Y031562D02*
X004036Y031562D01*
X004036Y031631D02*
X008261Y031631D01*
X008261Y031699D02*
X004036Y031699D01*
X004036Y031768D02*
X008261Y031768D01*
X008261Y031836D02*
X003980Y031836D01*
X003912Y031905D02*
X008261Y031905D01*
X008261Y031973D02*
X003843Y031973D01*
X003794Y032179D02*
X008261Y032179D01*
X008261Y032111D02*
X001461Y032111D01*
X001461Y032042D02*
X008261Y032042D01*
X008261Y032248D02*
X003863Y032248D01*
X003931Y032316D02*
X008261Y032316D01*
X008261Y032385D02*
X004000Y032385D01*
X004036Y032453D02*
X008261Y032453D01*
X008261Y032522D02*
X004036Y032522D01*
X004036Y032590D02*
X008261Y032590D01*
X008261Y032659D02*
X004036Y032659D01*
X004036Y032727D02*
X008261Y032727D01*
X008261Y032796D02*
X004021Y032796D01*
X003952Y032864D02*
X008261Y032864D01*
X008261Y032933D02*
X003884Y032933D01*
X003386Y033002D02*
X002815Y033002D01*
X002884Y032933D02*
X003318Y032933D01*
X003249Y032864D02*
X002952Y032864D01*
X003021Y032796D02*
X003181Y032796D01*
X003166Y032727D02*
X003036Y032727D01*
X003036Y032659D02*
X003166Y032659D01*
X003166Y032590D02*
X003036Y032590D01*
X003036Y032522D02*
X003166Y032522D01*
X003166Y032453D02*
X003036Y032453D01*
X003000Y032385D02*
X003202Y032385D01*
X003270Y032316D02*
X002931Y032316D01*
X002863Y032248D02*
X003339Y032248D01*
X003407Y032179D02*
X002794Y032179D01*
X002843Y031973D02*
X003358Y031973D01*
X003290Y031905D02*
X002912Y031905D01*
X002980Y031836D02*
X003221Y031836D01*
X003166Y031768D02*
X003036Y031768D01*
X003036Y031699D02*
X003166Y031699D01*
X003166Y031631D02*
X003036Y031631D01*
X003036Y031562D02*
X003166Y031562D01*
X003166Y031494D02*
X003036Y031494D01*
X003036Y031425D02*
X003166Y031425D01*
X003230Y031357D02*
X002972Y031357D01*
X002903Y031288D02*
X003298Y031288D01*
X003367Y031219D02*
X002835Y031219D01*
X002803Y031014D02*
X003399Y031014D01*
X003330Y030945D02*
X002871Y030945D01*
X002940Y030877D02*
X003262Y030877D01*
X003193Y030808D02*
X003009Y030808D01*
X003036Y030740D02*
X003166Y030740D01*
X003166Y030671D02*
X003036Y030671D01*
X003036Y030603D02*
X003166Y030603D01*
X003166Y030534D02*
X003036Y030534D01*
X003036Y030465D02*
X003166Y030465D01*
X003189Y030397D02*
X003012Y030397D01*
X002944Y030328D02*
X003258Y030328D01*
X003327Y030260D02*
X002875Y030260D01*
X002806Y030191D02*
X003395Y030191D01*
X003371Y029986D02*
X002831Y029986D01*
X002900Y029917D02*
X003302Y029917D01*
X003233Y029849D02*
X002968Y029849D01*
X003036Y029780D02*
X003166Y029780D01*
X003166Y029711D02*
X003036Y029711D01*
X003036Y029643D02*
X003166Y029643D01*
X003166Y029574D02*
X003036Y029574D01*
X003036Y029506D02*
X003166Y029506D01*
X003166Y029437D02*
X003036Y029437D01*
X002984Y029369D02*
X003218Y029369D01*
X003286Y029300D02*
X002915Y029300D01*
X002847Y029232D02*
X003355Y029232D01*
X003411Y029026D02*
X002791Y029026D01*
X002859Y028958D02*
X003342Y028958D01*
X003274Y028889D02*
X002928Y028889D01*
X002996Y028820D02*
X003205Y028820D01*
X003166Y028752D02*
X003036Y028752D01*
X003036Y028683D02*
X003166Y028683D01*
X003166Y028615D02*
X003036Y028615D01*
X003036Y028546D02*
X003166Y028546D01*
X003166Y028478D02*
X003036Y028478D01*
X003024Y028409D02*
X003177Y028409D01*
X003246Y028341D02*
X002956Y028341D01*
X002887Y028272D02*
X003314Y028272D01*
X003383Y028204D02*
X002819Y028204D01*
X002819Y027998D02*
X003383Y027998D01*
X003314Y027929D02*
X002887Y027929D01*
X002956Y027861D02*
X003246Y027861D01*
X003177Y027792D02*
X003024Y027792D01*
X003036Y027724D02*
X003166Y027724D01*
X003166Y027655D02*
X003036Y027655D01*
X003036Y027587D02*
X003166Y027587D01*
X003166Y027518D02*
X003036Y027518D01*
X003036Y027450D02*
X003166Y027450D01*
X003205Y027381D02*
X002996Y027381D01*
X002928Y027312D02*
X003274Y027312D01*
X003342Y027244D02*
X002859Y027244D01*
X002791Y027175D02*
X003411Y027175D01*
X003355Y026970D02*
X002847Y026970D01*
X002915Y026901D02*
X003286Y026901D01*
X003218Y026833D02*
X002984Y026833D01*
X003036Y026764D02*
X003166Y026764D01*
X003166Y026696D02*
X003036Y026696D01*
X003036Y026627D02*
X003166Y026627D01*
X003166Y026559D02*
X003036Y026559D01*
X003036Y026490D02*
X003166Y026490D01*
X003166Y026421D02*
X003036Y026421D01*
X002968Y026353D02*
X003234Y026353D01*
X003302Y026284D02*
X002899Y026284D01*
X002831Y026216D02*
X003371Y026216D01*
X003395Y026010D02*
X002807Y026010D01*
X002875Y025942D02*
X003326Y025942D01*
X003258Y025873D02*
X002944Y025873D01*
X003012Y025805D02*
X003189Y025805D01*
X003166Y025736D02*
X003036Y025736D01*
X003036Y025667D02*
X003166Y025667D01*
X003166Y025599D02*
X003036Y025599D01*
X003036Y025530D02*
X003166Y025530D01*
X003166Y025462D02*
X003036Y025462D01*
X003008Y025393D02*
X003193Y025393D01*
X003262Y025325D02*
X002940Y025325D01*
X002871Y025256D02*
X003330Y025256D01*
X003399Y025188D02*
X002803Y025188D01*
X002835Y024982D02*
X003367Y024982D01*
X003298Y024913D02*
X002903Y024913D01*
X002972Y024845D02*
X003230Y024845D01*
X003166Y024776D02*
X003036Y024776D01*
X003036Y024708D02*
X003166Y024708D01*
X003166Y024639D02*
X003036Y024639D01*
X003036Y024571D02*
X003166Y024571D01*
X003166Y024502D02*
X003036Y024502D01*
X003036Y024434D02*
X003166Y024434D01*
X003221Y024365D02*
X002980Y024365D01*
X002912Y024297D02*
X003290Y024297D01*
X003358Y024228D02*
X002843Y024228D01*
X002781Y024036D02*
X003036Y023781D01*
X003036Y023636D01*
X002636Y023636D01*
X002636Y024036D01*
X002781Y024036D01*
X002794Y024022D02*
X003407Y024022D01*
X003421Y024036D02*
X003166Y023781D01*
X003166Y023636D01*
X003566Y023636D01*
X003566Y024036D01*
X003421Y024036D01*
X003339Y023954D02*
X002863Y023954D01*
X002931Y023885D02*
X003270Y023885D01*
X003202Y023817D02*
X003000Y023817D01*
X003036Y023748D02*
X003166Y023748D01*
X003166Y023680D02*
X003036Y023680D01*
X003036Y023566D02*
X002636Y023566D01*
X002636Y023166D01*
X002781Y023166D01*
X003036Y023421D01*
X003036Y023566D01*
X003036Y023543D02*
X003166Y023543D01*
X003166Y023566D02*
X003166Y023421D01*
X003421Y023166D01*
X003566Y023166D01*
X003566Y023566D01*
X003166Y023566D01*
X003166Y023474D02*
X003036Y023474D01*
X003021Y023406D02*
X003181Y023406D01*
X003249Y023337D02*
X002952Y023337D01*
X002884Y023268D02*
X003318Y023268D01*
X003386Y023200D02*
X002815Y023200D01*
X002781Y023036D02*
X003036Y022781D01*
X003036Y022636D01*
X002636Y022636D01*
X002636Y023036D01*
X002781Y023036D01*
X002822Y022994D02*
X003379Y022994D01*
X003421Y023036D02*
X003166Y022781D01*
X003166Y022636D01*
X003566Y022636D01*
X003566Y023036D01*
X003421Y023036D01*
X003566Y022994D02*
X003636Y022994D01*
X003636Y023036D02*
X003636Y022636D01*
X004036Y022636D01*
X004036Y022781D01*
X003781Y023036D01*
X003636Y023036D01*
X003636Y022926D02*
X003566Y022926D01*
X003566Y022857D02*
X003636Y022857D01*
X003636Y022789D02*
X003566Y022789D01*
X003566Y022720D02*
X003636Y022720D01*
X003636Y022652D02*
X003566Y022652D01*
X003566Y022566D02*
X003166Y022566D01*
X003166Y022421D01*
X003421Y022166D01*
X003566Y022166D01*
X003566Y022566D01*
X003566Y022514D02*
X003636Y022514D01*
X003636Y022566D02*
X003636Y022166D01*
X003781Y022166D01*
X004036Y022421D01*
X004036Y022566D01*
X003636Y022566D01*
X003636Y022446D02*
X003566Y022446D01*
X003566Y022377D02*
X003636Y022377D01*
X003636Y022309D02*
X003566Y022309D01*
X003566Y022240D02*
X003636Y022240D01*
X003636Y022172D02*
X003566Y022172D01*
X003415Y022172D02*
X002787Y022172D01*
X002781Y022166D02*
X003036Y022421D01*
X003036Y022566D01*
X002636Y022566D01*
X002636Y022166D01*
X002781Y022166D01*
X002855Y022240D02*
X003346Y022240D01*
X003278Y022309D02*
X002924Y022309D01*
X002993Y022377D02*
X003209Y022377D01*
X003166Y022446D02*
X003036Y022446D01*
X003036Y022514D02*
X003166Y022514D01*
X003166Y022652D02*
X003036Y022652D01*
X003036Y022720D02*
X003166Y022720D01*
X003173Y022789D02*
X003028Y022789D01*
X002960Y022857D02*
X003242Y022857D01*
X003311Y022926D02*
X002891Y022926D01*
X002636Y022926D02*
X002566Y022926D01*
X002566Y022994D02*
X002636Y022994D01*
X002636Y022857D02*
X002566Y022857D01*
X002566Y022789D02*
X002636Y022789D01*
X002636Y022720D02*
X002566Y022720D01*
X002566Y022652D02*
X002636Y022652D01*
X002636Y022514D02*
X002566Y022514D01*
X002566Y022446D02*
X002636Y022446D01*
X002636Y022377D02*
X002566Y022377D01*
X002566Y022309D02*
X002636Y022309D01*
X002636Y022240D02*
X002566Y022240D01*
X002566Y022172D02*
X002636Y022172D01*
X002782Y022035D02*
X003419Y022035D01*
X003421Y022036D02*
X003166Y021781D01*
X003166Y021421D01*
X003421Y021166D01*
X003781Y021166D01*
X004036Y021421D01*
X004036Y021781D01*
X003781Y022036D01*
X003421Y022036D01*
X003351Y021966D02*
X002851Y021966D01*
X002919Y021898D02*
X003282Y021898D01*
X003214Y021829D02*
X002988Y021829D01*
X003036Y021760D02*
X003166Y021760D01*
X003166Y021692D02*
X003036Y021692D01*
X003036Y021623D02*
X003166Y021623D01*
X003166Y021555D02*
X003036Y021555D01*
X003036Y021486D02*
X003166Y021486D01*
X003169Y021418D02*
X003033Y021418D01*
X002964Y021349D02*
X003237Y021349D01*
X003306Y021281D02*
X002896Y021281D01*
X002827Y021212D02*
X003374Y021212D01*
X003827Y021212D02*
X015024Y021212D01*
X014917Y021075D02*
X001461Y021075D01*
X001461Y021006D02*
X014888Y021006D01*
X014863Y020938D02*
X001461Y020938D01*
X001461Y022103D02*
X017101Y022103D01*
X017101Y022035D02*
X003782Y022035D01*
X003851Y021966D02*
X017101Y021966D01*
X017101Y021898D02*
X003919Y021898D01*
X003988Y021829D02*
X017101Y021829D01*
X017101Y021760D02*
X004036Y021760D01*
X004036Y021692D02*
X017101Y021692D01*
X017101Y021623D02*
X004036Y021623D01*
X004036Y021555D02*
X017101Y021555D01*
X017101Y021486D02*
X004036Y021486D01*
X004033Y021418D02*
X017101Y021418D01*
X017101Y020801D02*
X015842Y020801D01*
X015834Y020732D02*
X017101Y020732D01*
X017101Y020664D02*
X015806Y020664D01*
X015777Y020595D02*
X017101Y020595D01*
X017101Y020527D02*
X015723Y020527D01*
X015654Y020458D02*
X017101Y020458D01*
X016894Y019704D02*
X011479Y019704D01*
X011645Y019636D02*
X016825Y019636D01*
X016756Y019567D02*
X011741Y019567D01*
X011810Y019499D02*
X016704Y019499D01*
X016675Y019430D02*
X011870Y019430D01*
X011898Y019361D02*
X016647Y019361D01*
X016619Y019293D02*
X011927Y019293D01*
X011955Y019224D02*
X016601Y019224D01*
X016601Y019156D02*
X011956Y019156D01*
X011956Y019087D02*
X016601Y019087D01*
X016601Y019019D02*
X011956Y019019D01*
X011944Y018950D02*
X016601Y018950D01*
X016630Y018882D02*
X011915Y018882D01*
X011887Y018813D02*
X016658Y018813D01*
X016687Y018745D02*
X011852Y018745D01*
X011118Y018539D02*
X004154Y018539D01*
X004156Y018607D02*
X010983Y018607D01*
X010915Y018676D02*
X004148Y018676D01*
X004120Y018745D02*
X010846Y018745D01*
X010810Y018813D02*
X004061Y018813D01*
X003937Y018882D02*
X010782Y018882D01*
X010924Y017854D02*
X006185Y017854D01*
X006270Y017785D02*
X010895Y017785D01*
X010867Y017716D02*
X006311Y017716D01*
X006336Y017648D02*
X010859Y017648D01*
X010859Y017579D02*
X006336Y017579D01*
X006322Y017511D02*
X010859Y017511D01*
X010885Y017442D02*
X006294Y017442D01*
X006227Y017374D02*
X010913Y017374D01*
X010952Y017305D02*
X005576Y017305D01*
X005644Y017374D02*
X005875Y017374D01*
X006051Y017601D02*
X005631Y017601D01*
X005211Y017181D01*
X005211Y016621D01*
X005409Y016825D02*
X006288Y016825D01*
X006260Y016757D02*
X005463Y016757D01*
X005491Y016688D02*
X006256Y016688D01*
X006262Y016620D02*
X005496Y016620D01*
X005490Y016551D02*
X006290Y016551D01*
X006346Y016483D02*
X005462Y016483D01*
X005407Y016414D02*
X006464Y016414D01*
X006596Y015866D02*
X006106Y015866D01*
X006175Y015797D02*
X006527Y015797D01*
X006476Y015729D02*
X006226Y015729D01*
X006226Y015660D02*
X006476Y015660D01*
X006476Y015592D02*
X006226Y015592D01*
X006226Y015523D02*
X006476Y015523D01*
X006594Y014838D02*
X006108Y014838D01*
X006039Y014769D02*
X006662Y014769D01*
X007039Y014769D02*
X007081Y014769D01*
X007383Y016277D02*
X010656Y016277D01*
X010684Y016346D02*
X007415Y016346D01*
X007462Y016414D02*
X010713Y016414D01*
X010741Y016483D02*
X007528Y016483D01*
X007638Y016551D02*
X010799Y016551D01*
X011115Y017168D02*
X005438Y017168D01*
X005507Y017237D02*
X011021Y017237D01*
X012400Y015043D02*
X009326Y015043D01*
X009326Y014975D02*
X012372Y014975D01*
X012428Y015112D02*
X009326Y015112D01*
X009326Y015180D02*
X012486Y015180D01*
X013008Y015317D02*
X013601Y015317D01*
X013601Y015249D02*
X013147Y015249D01*
X013215Y015180D02*
X013601Y015180D01*
X013601Y015112D02*
X013273Y015112D01*
X013302Y015043D02*
X013601Y015043D01*
X013601Y014975D02*
X013330Y014975D01*
X013340Y014906D02*
X013601Y014906D01*
X014758Y022886D02*
X014587Y022957D01*
X014457Y023087D01*
X014386Y023258D01*
X014386Y023443D01*
X014457Y023614D01*
X014587Y023745D01*
X014758Y023816D01*
X014943Y023816D01*
X015114Y023745D01*
X015245Y023614D01*
X015316Y023443D01*
X015316Y023258D01*
X015245Y023087D01*
X015114Y022957D01*
X014943Y022886D01*
X014758Y022886D01*
X014662Y022926D02*
X011040Y022926D01*
X011114Y022957D02*
X011245Y023087D01*
X011316Y023258D01*
X011316Y023443D01*
X011245Y023614D01*
X011114Y023745D01*
X010943Y023816D01*
X010758Y023816D01*
X010587Y023745D01*
X010457Y023614D01*
X010386Y023443D01*
X010386Y023258D01*
X010457Y023087D01*
X010587Y022957D01*
X010758Y022886D01*
X010943Y022886D01*
X011114Y022957D01*
X011152Y022994D02*
X014550Y022994D01*
X014481Y023063D02*
X011220Y023063D01*
X011263Y023131D02*
X014438Y023131D01*
X014410Y023200D02*
X011292Y023200D01*
X011316Y023268D02*
X014386Y023268D01*
X014386Y023337D02*
X011316Y023337D01*
X011316Y023406D02*
X014386Y023406D01*
X014399Y023474D02*
X011303Y023474D01*
X011275Y023543D02*
X014427Y023543D01*
X014455Y023611D02*
X011246Y023611D01*
X011179Y023680D02*
X014522Y023680D01*
X014595Y023748D02*
X011106Y023748D01*
X010595Y023748D02*
X004036Y023748D01*
X004036Y023781D02*
X004036Y023636D01*
X003636Y023636D01*
X003636Y024036D01*
X003781Y024036D01*
X004036Y023781D01*
X004000Y023817D02*
X017101Y023817D01*
X017101Y023885D02*
X003931Y023885D01*
X003863Y023954D02*
X017101Y023954D01*
X017101Y024022D02*
X003794Y024022D01*
X003636Y024022D02*
X003566Y024022D01*
X003566Y023954D02*
X003636Y023954D01*
X003636Y023885D02*
X003566Y023885D01*
X003566Y023817D02*
X003636Y023817D01*
X003636Y023748D02*
X003566Y023748D01*
X003566Y023680D02*
X003636Y023680D01*
X003636Y023566D02*
X003636Y023166D01*
X003781Y023166D01*
X004036Y023421D01*
X004036Y023566D01*
X003636Y023566D01*
X003636Y023543D02*
X003566Y023543D01*
X003566Y023474D02*
X003636Y023474D01*
X003636Y023406D02*
X003566Y023406D01*
X003566Y023337D02*
X003636Y023337D01*
X003636Y023268D02*
X003566Y023268D01*
X003566Y023200D02*
X003636Y023200D01*
X003815Y023200D02*
X010410Y023200D01*
X010386Y023268D02*
X003884Y023268D01*
X003952Y023337D02*
X010386Y023337D01*
X010386Y023406D02*
X004021Y023406D01*
X004036Y023474D02*
X010399Y023474D01*
X010427Y023543D02*
X004036Y023543D01*
X004036Y023680D02*
X010522Y023680D01*
X010455Y023611D02*
X001461Y023611D01*
X001461Y023131D02*
X010438Y023131D01*
X010481Y023063D02*
X001461Y023063D01*
X001461Y022583D02*
X017101Y022583D01*
X017101Y022652D02*
X004036Y022652D01*
X004036Y022720D02*
X017101Y022720D01*
X017101Y022789D02*
X004028Y022789D01*
X003960Y022857D02*
X017101Y022857D01*
X017101Y022926D02*
X015040Y022926D01*
X015152Y022994D02*
X017101Y022994D01*
X017101Y023063D02*
X015220Y023063D01*
X015263Y023131D02*
X017101Y023131D01*
X017101Y023200D02*
X015292Y023200D01*
X015316Y023268D02*
X017101Y023268D01*
X017101Y023337D02*
X015316Y023337D01*
X015316Y023406D02*
X017101Y023406D01*
X017101Y023474D02*
X015303Y023474D01*
X015275Y023543D02*
X017101Y023543D01*
X017101Y023611D02*
X015246Y023611D01*
X015179Y023680D02*
X017101Y023680D01*
X017101Y023748D02*
X015106Y023748D01*
X015796Y025462D02*
X017101Y025462D01*
X017090Y025530D02*
X015961Y025530D01*
X016039Y025599D02*
X017012Y025599D01*
X016944Y025667D02*
X016108Y025667D01*
X016169Y025736D02*
X016882Y025736D01*
X016854Y025805D02*
X016198Y025805D01*
X016226Y025873D02*
X016825Y025873D01*
X016797Y025942D02*
X016255Y025942D01*
X016266Y026010D02*
X016786Y026010D01*
X016786Y026079D02*
X016266Y026079D01*
X016266Y026147D02*
X016786Y026147D01*
X016786Y026216D02*
X016266Y026216D01*
X016245Y026284D02*
X016807Y026284D01*
X016835Y026353D02*
X016216Y026353D01*
X016188Y026421D02*
X016864Y026421D01*
X016900Y026490D02*
X016152Y026490D01*
X016083Y026559D02*
X016968Y026559D01*
X017037Y026627D02*
X016015Y026627D01*
X015902Y026696D02*
X017101Y026696D01*
X017101Y026764D02*
X015737Y026764D01*
X015141Y029780D02*
X014560Y029780D01*
X014629Y029849D02*
X015073Y029849D01*
X015004Y029917D02*
X014697Y029917D01*
X014726Y029986D02*
X014976Y029986D01*
X014976Y030054D02*
X014726Y030054D01*
X014726Y030123D02*
X014976Y030123D01*
X014976Y030191D02*
X014726Y030191D01*
X014722Y030260D02*
X014980Y030260D01*
X015048Y030328D02*
X014653Y030328D01*
X014585Y030397D02*
X015117Y030397D01*
X015185Y030465D02*
X014516Y030465D01*
X014520Y030740D02*
X015182Y030740D01*
X015113Y030808D02*
X014588Y030808D01*
X014657Y030877D02*
X015045Y030877D01*
X014726Y030945D02*
X014726Y031256D01*
X014625Y031357D02*
X015076Y031357D01*
X015145Y031425D02*
X014557Y031425D01*
X015557Y031425D02*
X017101Y031425D01*
X017101Y031357D02*
X015625Y031357D01*
X015694Y031288D02*
X017101Y031288D01*
X017101Y031219D02*
X015726Y031219D01*
X015726Y031151D02*
X017101Y031151D01*
X017101Y031082D02*
X015726Y031082D01*
X015726Y031014D02*
X017101Y031014D01*
X017101Y030808D02*
X015588Y030808D01*
X017101Y024982D02*
X012239Y024982D01*
X012358Y024913D02*
X017101Y024913D01*
X017101Y024845D02*
X012420Y024845D01*
X012449Y024776D02*
X017101Y024776D01*
X017101Y024708D02*
X012466Y024708D01*
X012466Y024639D02*
X017101Y024639D01*
X017101Y024571D02*
X012451Y024571D01*
X012423Y024502D02*
X017101Y024502D01*
X017101Y024434D02*
X012363Y024434D01*
X012252Y024365D02*
X017101Y024365D01*
X017101Y024297D02*
X003912Y024297D01*
X003980Y024365D02*
X012029Y024365D01*
X010662Y022926D02*
X003891Y022926D01*
X003822Y022994D02*
X010550Y022994D01*
X008591Y016003D02*
X008110Y016003D01*
X008179Y015934D02*
X008523Y015934D01*
X008454Y015866D02*
X008248Y015866D01*
X008316Y015797D02*
X008385Y015797D01*
X008376Y015729D02*
X008326Y015729D01*
X008326Y015660D02*
X008376Y015660D01*
X008376Y015592D02*
X008326Y015592D01*
X008326Y015523D02*
X008376Y015523D01*
X008376Y015454D02*
X008326Y015454D01*
X008326Y015386D02*
X008376Y015386D01*
X008376Y015317D02*
X008326Y015317D01*
X008326Y015249D02*
X008376Y015249D01*
X008376Y015180D02*
X008326Y015180D01*
X008326Y015112D02*
X008376Y015112D01*
X008376Y015043D02*
X008326Y015043D01*
X008326Y014975D02*
X008376Y014975D01*
X008384Y014906D02*
X008318Y014906D01*
X008249Y014838D02*
X008452Y014838D01*
X008521Y014769D02*
X008181Y014769D01*
X008112Y014701D02*
X008589Y014701D01*
X004036Y022446D02*
X017101Y022446D01*
X017101Y022514D02*
X004036Y022514D01*
X003993Y022377D02*
X017101Y022377D01*
X017101Y022309D02*
X003924Y022309D01*
X003855Y022240D02*
X017101Y022240D01*
X017101Y022172D02*
X003787Y022172D01*
X003843Y024228D02*
X017101Y024228D01*
X017101Y036840D02*
X015221Y036840D01*
X015256Y036909D02*
X017101Y036909D01*
X017101Y036977D02*
X015256Y036977D01*
X015256Y037046D02*
X017101Y037046D01*
X017101Y037114D02*
X015256Y037114D01*
X015256Y037183D02*
X017101Y037183D01*
X017101Y037251D02*
X015256Y037251D01*
X015256Y037320D02*
X017101Y037320D01*
X017101Y037388D02*
X015256Y037388D01*
X015256Y037457D02*
X017101Y037457D01*
X017101Y037525D02*
X015256Y037525D01*
X015188Y037594D02*
X017101Y037594D01*
X017101Y037663D02*
X015085Y037663D01*
X015154Y037731D02*
X017101Y037731D01*
X017101Y037800D02*
X015206Y037800D01*
X015234Y037868D02*
X017101Y037868D01*
X017101Y037937D02*
X015256Y037937D01*
X015502Y038211D02*
X015779Y038211D01*
X015699Y038279D02*
X015582Y038279D01*
X015622Y038348D02*
X015659Y038348D01*
X015921Y038461D02*
X015921Y039021D01*
X015571Y039371D01*
X015361Y039371D01*
X015221Y039511D01*
X014591Y039511D01*
X014171Y039931D01*
X014171Y040141D01*
X014521Y040491D01*
X014521Y040911D01*
X014241Y041191D01*
X014506Y041295D02*
X015406Y041295D01*
X015299Y041251D02*
X015051Y041002D01*
X014916Y040677D01*
X014916Y040325D01*
X015051Y039999D01*
X015299Y039751D01*
X015625Y039616D01*
X015977Y039616D01*
X016302Y039751D01*
X016551Y039999D01*
X016686Y040325D01*
X016686Y040677D01*
X016551Y041002D01*
X016302Y041251D01*
X015977Y041386D01*
X015625Y041386D01*
X015299Y041251D01*
X015275Y041227D02*
X014526Y041227D01*
X014526Y041247D02*
X014482Y041352D01*
X014402Y041432D01*
X017101Y041432D01*
X017101Y041364D02*
X016030Y041364D01*
X016195Y041295D02*
X017101Y041295D01*
X017101Y041227D02*
X016326Y041227D01*
X016395Y041158D02*
X017101Y041158D01*
X017101Y041090D02*
X016463Y041090D01*
X016532Y041021D02*
X017101Y041021D01*
X017101Y040953D02*
X016572Y040953D01*
X016600Y040884D02*
X017101Y040884D01*
X017101Y040816D02*
X016628Y040816D01*
X016657Y040747D02*
X017101Y040747D01*
X017101Y040678D02*
X016685Y040678D01*
X016686Y040610D02*
X017101Y040610D01*
X017101Y040541D02*
X016686Y040541D01*
X016686Y040473D02*
X017101Y040473D01*
X017101Y040404D02*
X016686Y040404D01*
X016686Y040336D02*
X017101Y040336D01*
X017101Y040267D02*
X016662Y040267D01*
X016634Y040199D02*
X017101Y040199D01*
X017101Y040130D02*
X016605Y040130D01*
X016577Y040062D02*
X017101Y040062D01*
X017101Y039993D02*
X016545Y039993D01*
X016476Y039924D02*
X017101Y039924D01*
X017101Y039856D02*
X016407Y039856D01*
X016339Y039787D02*
X017101Y039787D01*
X017101Y039719D02*
X016226Y039719D01*
X016060Y039650D02*
X017101Y039650D01*
X017101Y039582D02*
X015390Y039582D01*
X015391Y039581D02*
X015291Y039681D01*
X014661Y039681D01*
X014341Y040001D01*
X014341Y040070D01*
X014591Y040321D01*
X014591Y040321D01*
X014691Y040420D01*
X014691Y040981D01*
X014591Y041081D01*
X014526Y041146D01*
X014526Y041247D01*
X014526Y041158D02*
X015207Y041158D01*
X015138Y041090D02*
X014582Y041090D01*
X014651Y041021D02*
X015070Y041021D01*
X015030Y040953D02*
X014691Y040953D01*
X014691Y040884D02*
X015002Y040884D01*
X014973Y040816D02*
X014691Y040816D01*
X014691Y040747D02*
X014945Y040747D01*
X014916Y040678D02*
X014691Y040678D01*
X014691Y040610D02*
X014916Y040610D01*
X014916Y040541D02*
X014691Y040541D01*
X014691Y040473D02*
X014916Y040473D01*
X014916Y040404D02*
X014675Y040404D01*
X014606Y040336D02*
X014916Y040336D01*
X014940Y040267D02*
X014538Y040267D01*
X014469Y040199D02*
X014968Y040199D01*
X014996Y040130D02*
X014400Y040130D01*
X014341Y040062D02*
X015025Y040062D01*
X015057Y039993D02*
X014349Y039993D01*
X014417Y039924D02*
X015126Y039924D01*
X015194Y039856D02*
X014486Y039856D01*
X014555Y039787D02*
X015263Y039787D01*
X015376Y039719D02*
X014623Y039719D01*
X014521Y039371D02*
X014031Y039861D01*
X014031Y040141D01*
X013681Y040491D01*
X011791Y040491D01*
X011021Y039721D01*
X010811Y039721D01*
X010951Y040071D02*
X011161Y040071D01*
X011721Y040631D01*
X013681Y040631D01*
X013821Y040771D01*
X013681Y041051D02*
X013961Y041051D01*
X014241Y040771D01*
X013956Y041221D02*
X013890Y041221D01*
X013610Y041221D01*
X013511Y041121D01*
X013330Y040941D01*
X011721Y040941D01*
X011580Y040941D01*
X011277Y040637D01*
X011252Y040662D01*
X011147Y040706D01*
X011034Y040706D01*
X010929Y040662D01*
X010856Y040589D01*
X010856Y042345D01*
X011756Y043246D01*
X012438Y043246D01*
X012551Y043132D01*
X012700Y043071D01*
X012861Y043071D01*
X013010Y043132D01*
X013124Y043246D01*
X013186Y043395D01*
X013186Y043556D01*
X013124Y043705D01*
X013010Y043819D01*
X012861Y043881D01*
X012700Y043881D01*
X012551Y043819D01*
X012495Y043763D02*
X009132Y043763D01*
X009178Y043694D02*
X011484Y043694D01*
X011415Y043626D02*
X009206Y043626D01*
X009206Y043557D02*
X011347Y043557D01*
X011278Y043489D02*
X009195Y043489D01*
X009167Y043420D02*
X011210Y043420D01*
X011141Y043352D02*
X009105Y043352D01*
X009091Y043283D02*
X011072Y043283D01*
X011004Y043215D02*
X009091Y043215D01*
X009091Y043146D02*
X010935Y043146D01*
X010867Y043077D02*
X009091Y043077D01*
X009091Y043009D02*
X010798Y043009D01*
X010730Y042940D02*
X009091Y042940D01*
X009091Y042872D02*
X010661Y042872D01*
X010593Y042803D02*
X009091Y042803D01*
X009091Y042735D02*
X010524Y042735D01*
X010456Y042666D02*
X009091Y042666D01*
X009091Y042598D02*
X010387Y042598D01*
X010346Y042529D02*
X009091Y042529D01*
X009091Y042461D02*
X010346Y042461D01*
X010346Y042392D02*
X009091Y042392D01*
X009091Y042323D02*
X010346Y042323D01*
X010346Y042255D02*
X009091Y042255D01*
X009091Y042186D02*
X010346Y042186D01*
X010346Y042118D02*
X009091Y042118D01*
X009091Y042049D02*
X010346Y042049D01*
X010346Y041981D02*
X009091Y041981D01*
X009091Y041912D02*
X010346Y041912D01*
X010346Y041844D02*
X009091Y041844D01*
X009091Y041775D02*
X010346Y041775D01*
X010346Y041707D02*
X009091Y041707D01*
X009091Y041638D02*
X010346Y041638D01*
X010346Y041569D02*
X009091Y041569D01*
X009091Y041501D02*
X010346Y041501D01*
X010346Y041432D02*
X009091Y041432D01*
X009091Y041364D02*
X010346Y041364D01*
X010346Y041295D02*
X009091Y041295D01*
X009091Y041227D02*
X010346Y041227D01*
X010346Y041158D02*
X009091Y041158D01*
X009091Y041090D02*
X010346Y041090D01*
X010346Y041021D02*
X009091Y041021D01*
X009091Y040953D02*
X010346Y040953D01*
X010346Y040884D02*
X009091Y040884D01*
X009091Y040816D02*
X010346Y040816D01*
X010346Y040747D02*
X009091Y040747D01*
X009091Y040678D02*
X010346Y040678D01*
X010346Y040610D02*
X009091Y040610D01*
X009091Y040541D02*
X010346Y040541D01*
X010346Y040473D02*
X009091Y040473D01*
X009091Y040404D02*
X010346Y040404D01*
X010346Y040336D02*
X009091Y040336D01*
X009091Y040267D02*
X010346Y040267D01*
X010346Y040199D02*
X009091Y040199D01*
X009091Y040130D02*
X010299Y040130D01*
X010231Y040062D02*
X009091Y040062D01*
X009091Y039993D02*
X010162Y039993D01*
X010856Y040610D02*
X010877Y040610D01*
X010856Y040678D02*
X010968Y040678D01*
X010856Y040747D02*
X011387Y040747D01*
X011455Y040816D02*
X010856Y040816D01*
X010856Y040884D02*
X011524Y040884D01*
X011651Y040771D02*
X011301Y040421D01*
X011091Y040421D01*
X011213Y040678D02*
X011318Y040678D01*
X011651Y040771D02*
X013401Y040771D01*
X013681Y041051D01*
X013548Y041158D02*
X010856Y041158D01*
X010856Y041090D02*
X013479Y041090D01*
X013411Y041021D02*
X010856Y041021D01*
X010856Y040953D02*
X013342Y040953D01*
X013591Y040130D02*
X011880Y040130D01*
X011812Y040062D02*
X013660Y040062D01*
X013721Y039993D02*
X011743Y039993D01*
X011675Y039924D02*
X013721Y039924D01*
X013721Y039856D02*
X011606Y039856D01*
X011538Y039787D02*
X013721Y039787D01*
X013722Y039719D02*
X011469Y039719D01*
X011401Y039650D02*
X013791Y039650D01*
X013859Y039582D02*
X011332Y039582D01*
X011264Y039513D02*
X013928Y039513D01*
X013623Y039445D02*
X011195Y039445D01*
X011126Y039376D02*
X013553Y039376D01*
X013498Y039308D02*
X011058Y039308D01*
X010856Y041227D02*
X013956Y041227D01*
X013956Y041221D02*
X013956Y041247D01*
X013999Y041352D01*
X014079Y041432D01*
X014184Y041476D01*
X014297Y041476D01*
X014402Y041432D01*
X014471Y041364D02*
X015572Y041364D01*
X015541Y039650D02*
X015322Y039650D01*
X015391Y039581D02*
X015391Y039581D01*
X015431Y039541D01*
X015641Y039541D01*
X015741Y039441D01*
X016091Y039091D01*
X016091Y038950D01*
X016091Y038694D01*
X016162Y038622D01*
X016094Y038691D02*
X017101Y038691D01*
X017101Y038759D02*
X016091Y038759D01*
X016091Y038828D02*
X017101Y038828D01*
X017101Y038896D02*
X016091Y038896D01*
X016091Y038965D02*
X017101Y038965D01*
X017101Y039033D02*
X016091Y039033D01*
X016080Y039102D02*
X017101Y039102D01*
X017101Y039170D02*
X016011Y039170D01*
X015943Y039239D02*
X017101Y039239D01*
X017101Y039308D02*
X015874Y039308D01*
X015806Y039376D02*
X017101Y039376D01*
X017101Y039445D02*
X015737Y039445D01*
X015669Y039513D02*
X017101Y039513D01*
X017101Y041501D02*
X014069Y041501D01*
X014008Y041476D02*
X014298Y041596D01*
X014520Y041818D01*
X014641Y042109D01*
X014641Y042423D01*
X014520Y042713D01*
X014298Y042935D01*
X014008Y043056D01*
X013694Y043056D01*
X013403Y042935D01*
X013181Y042713D01*
X013061Y042423D01*
X013061Y042109D01*
X013181Y041818D01*
X013403Y041596D01*
X013694Y041476D01*
X014008Y041476D01*
X014079Y041432D02*
X010856Y041432D01*
X010856Y041364D02*
X014011Y041364D01*
X013976Y041295D02*
X010856Y041295D01*
X010856Y041501D02*
X013633Y041501D01*
X013467Y041569D02*
X010856Y041569D01*
X010856Y041638D02*
X013361Y041638D01*
X013293Y041707D02*
X010856Y041707D01*
X010856Y041775D02*
X013224Y041775D01*
X013171Y041844D02*
X010856Y041844D01*
X010856Y041912D02*
X013142Y041912D01*
X013114Y041981D02*
X010856Y041981D01*
X010856Y042049D02*
X013085Y042049D01*
X013061Y042118D02*
X010856Y042118D01*
X010856Y042186D02*
X013061Y042186D01*
X013061Y042255D02*
X010856Y042255D01*
X010856Y042323D02*
X013061Y042323D01*
X013061Y042392D02*
X010903Y042392D01*
X010971Y042461D02*
X013076Y042461D01*
X013105Y042529D02*
X011040Y042529D01*
X011108Y042598D02*
X013133Y042598D01*
X013162Y042666D02*
X011177Y042666D01*
X011245Y042735D02*
X013203Y042735D01*
X013271Y042803D02*
X011314Y042803D01*
X011382Y042872D02*
X013340Y042872D01*
X013415Y042940D02*
X011451Y042940D01*
X011519Y043009D02*
X013581Y043009D01*
X013139Y043283D02*
X017101Y043283D01*
X017101Y043215D02*
X013092Y043215D01*
X013024Y043146D02*
X017101Y043146D01*
X017101Y043077D02*
X012877Y043077D01*
X012684Y043077D02*
X011588Y043077D01*
X011657Y043146D02*
X012538Y043146D01*
X012469Y043215D02*
X011725Y043215D01*
X012402Y044311D02*
X004456Y044311D01*
X004456Y044243D02*
X012431Y044243D01*
X012490Y044174D02*
X004456Y044174D01*
X004456Y044106D02*
X012568Y044106D01*
X012376Y044380D02*
X004456Y044380D01*
X004456Y044448D02*
X012376Y044448D01*
X012376Y044517D02*
X004456Y044517D01*
X004456Y044585D02*
X012396Y044585D01*
X012425Y044654D02*
X004456Y044654D01*
X004456Y044722D02*
X012475Y044722D01*
X012543Y044791D02*
X004456Y044791D01*
X004456Y044860D02*
X012655Y044860D01*
X012526Y044928D02*
X004456Y044928D01*
X004456Y044997D02*
X012457Y044997D01*
X012417Y045065D02*
X004456Y045065D01*
X004456Y045134D02*
X012389Y045134D01*
X012376Y045202D02*
X004456Y045202D01*
X004456Y045271D02*
X012376Y045271D01*
X012381Y045339D02*
X004480Y045339D01*
X004511Y045408D02*
X012410Y045408D01*
X012439Y045476D02*
X004540Y045476D01*
X004543Y045545D02*
X012507Y045545D01*
X012610Y045614D02*
X004543Y045614D01*
X004525Y045682D02*
X017101Y045682D01*
X017101Y045751D02*
X004496Y045751D01*
X004443Y045819D02*
X017101Y045819D01*
X017101Y045888D02*
X013015Y045888D01*
X013084Y045956D02*
X017101Y045956D01*
X017101Y046025D02*
X013136Y046025D01*
X013164Y046093D02*
X017101Y046093D01*
X017101Y046162D02*
X013186Y046162D01*
X013403Y046766D02*
X013181Y046988D01*
X013061Y047279D01*
X013061Y047593D01*
X013181Y047883D01*
X013403Y048105D01*
X013694Y048226D01*
X014008Y048226D01*
X014298Y048105D01*
X014520Y047883D01*
X014641Y047593D01*
X014641Y047279D01*
X014520Y046988D01*
X014298Y046766D01*
X014008Y046646D01*
X013694Y046646D01*
X013403Y046766D01*
X013391Y046779D02*
X001101Y046779D01*
X001101Y046847D02*
X013322Y046847D01*
X013253Y046916D02*
X001101Y046916D01*
X001101Y046984D02*
X013185Y046984D01*
X013154Y047053D02*
X001101Y047053D01*
X001101Y047121D02*
X013126Y047121D01*
X013097Y047190D02*
X001101Y047190D01*
X001101Y047259D02*
X013069Y047259D01*
X013061Y047327D02*
X001101Y047327D01*
X001101Y047396D02*
X013061Y047396D01*
X013061Y047464D02*
X001101Y047464D01*
X001101Y047533D02*
X013061Y047533D01*
X013064Y047601D02*
X001101Y047601D01*
X001101Y047670D02*
X013093Y047670D01*
X013121Y047738D02*
X001644Y047738D01*
X001810Y047807D02*
X013149Y047807D01*
X013178Y047875D02*
X001975Y047875D01*
X002056Y047944D02*
X013242Y047944D01*
X013310Y048013D02*
X002125Y048013D01*
X002193Y048081D02*
X013379Y048081D01*
X013510Y048150D02*
X002262Y048150D01*
X002323Y048218D02*
X013675Y048218D01*
X014026Y048218D02*
X015879Y048218D01*
X015850Y048287D02*
X002351Y048287D01*
X002379Y048355D02*
X015822Y048355D01*
X015794Y048424D02*
X002408Y048424D01*
X002436Y048492D02*
X015765Y048492D01*
X015737Y048561D02*
X002465Y048561D01*
X002491Y048629D02*
X015711Y048629D01*
X015711Y048698D02*
X002491Y048698D01*
X002491Y048767D02*
X015711Y048767D01*
X015711Y048835D02*
X002491Y048835D01*
X002491Y048904D02*
X015711Y048904D01*
X015711Y048972D02*
X002491Y048972D01*
X002491Y049041D02*
X015711Y049041D01*
X015940Y048150D02*
X014192Y048150D01*
X014323Y048081D02*
X016008Y048081D01*
X016077Y048013D02*
X014391Y048013D01*
X014460Y047944D02*
X016145Y047944D01*
X016226Y047875D02*
X014524Y047875D01*
X014552Y047807D02*
X016392Y047807D01*
X016557Y047738D02*
X014581Y047738D01*
X014609Y047670D02*
X017101Y047670D01*
X017101Y047601D02*
X014637Y047601D01*
X014641Y047533D02*
X017101Y047533D01*
X017101Y047464D02*
X014641Y047464D01*
X014641Y047396D02*
X017101Y047396D01*
X017101Y047327D02*
X014641Y047327D01*
X014632Y047259D02*
X017101Y047259D01*
X017101Y047190D02*
X014604Y047190D01*
X014576Y047121D02*
X017101Y047121D01*
X017101Y047053D02*
X014547Y047053D01*
X014517Y046984D02*
X017101Y046984D01*
X017101Y046916D02*
X014448Y046916D01*
X014380Y046847D02*
X017101Y046847D01*
X017101Y046779D02*
X014311Y046779D01*
X014163Y046710D02*
X017101Y046710D01*
X017101Y046642D02*
X001101Y046642D01*
X001101Y046710D02*
X013538Y046710D01*
X012561Y046573D02*
X001101Y046573D01*
X001101Y046505D02*
X012487Y046505D01*
X012430Y046436D02*
X001101Y046436D01*
X001101Y046368D02*
X012401Y046368D01*
X012376Y046299D02*
X001101Y046299D01*
X001101Y042392D02*
X004469Y042392D01*
X004406Y042323D02*
X001101Y042323D01*
X001101Y042255D02*
X004377Y042255D01*
X003867Y042118D02*
X002027Y042118D01*
X002094Y042049D02*
X003799Y042049D01*
X003730Y041981D02*
X002122Y041981D01*
X002136Y041912D02*
X003662Y041912D01*
X003593Y041844D02*
X002138Y041844D01*
X002207Y041775D02*
X002662Y041775D01*
X002594Y041707D02*
X002275Y041707D01*
X002301Y041638D02*
X002563Y041638D01*
X002691Y041401D02*
X002831Y041541D01*
X002691Y041401D02*
X002201Y041401D01*
X002131Y041471D01*
X002131Y041611D01*
X001851Y041891D01*
X002933Y040884D02*
X003269Y040884D01*
X003200Y040816D02*
X003001Y040816D01*
X003036Y040747D02*
X003166Y040747D01*
X003166Y040678D02*
X003036Y040678D01*
X003036Y040610D02*
X003166Y040610D01*
X003166Y040541D02*
X003036Y040541D01*
X003036Y040473D02*
X003166Y040473D01*
X003182Y040404D02*
X003019Y040404D01*
X002951Y040336D02*
X003251Y040336D01*
X003319Y040267D02*
X002882Y040267D01*
X002814Y040199D02*
X003388Y040199D01*
X003378Y039993D02*
X002824Y039993D01*
X002892Y039924D02*
X003309Y039924D01*
X003241Y039856D02*
X002961Y039856D01*
X003029Y039787D02*
X003172Y039787D01*
X003166Y039719D02*
X003036Y039719D01*
X003036Y039650D02*
X003166Y039650D01*
X003166Y039582D02*
X003036Y039582D01*
X003036Y039513D02*
X003166Y039513D01*
X003166Y039445D02*
X003036Y039445D01*
X002991Y039376D02*
X003210Y039376D01*
X003279Y039308D02*
X002923Y039308D01*
X002854Y039239D02*
X003347Y039239D01*
X003416Y039170D02*
X002786Y039170D01*
X002781Y039036D02*
X002421Y039036D01*
X002166Y038781D01*
X002166Y038421D01*
X002421Y038166D01*
X002781Y038166D01*
X003036Y038421D01*
X003036Y038781D01*
X002781Y039036D01*
X002783Y039033D02*
X003418Y039033D01*
X003421Y039036D02*
X003166Y038781D01*
X003166Y038421D01*
X003421Y038166D01*
X003781Y038166D01*
X004036Y038421D01*
X004036Y038781D01*
X003781Y039036D01*
X003421Y039036D01*
X003350Y038965D02*
X002852Y038965D01*
X002920Y038896D02*
X003281Y038896D01*
X003213Y038828D02*
X002989Y038828D01*
X003036Y038759D02*
X003166Y038759D01*
X003166Y038691D02*
X003036Y038691D01*
X003036Y038622D02*
X003166Y038622D01*
X003166Y038554D02*
X003036Y038554D01*
X003036Y038485D02*
X003166Y038485D01*
X003170Y038416D02*
X003032Y038416D01*
X002963Y038348D02*
X003238Y038348D01*
X003307Y038279D02*
X002895Y038279D01*
X002826Y038211D02*
X003376Y038211D01*
X003421Y038036D02*
X003166Y037781D01*
X003166Y037421D01*
X003421Y037166D01*
X003781Y037166D01*
X004036Y037421D01*
X004036Y037781D01*
X003781Y038036D01*
X003421Y038036D01*
X003390Y038005D02*
X002811Y038005D01*
X002781Y038036D02*
X002421Y038036D01*
X002166Y037781D01*
X002166Y037421D01*
X002421Y037166D01*
X002781Y037166D01*
X003036Y037421D01*
X003036Y037781D01*
X002781Y038036D01*
X002880Y037937D02*
X003322Y037937D01*
X003253Y037868D02*
X002949Y037868D01*
X003017Y037800D02*
X003184Y037800D01*
X003166Y037731D02*
X003036Y037731D01*
X003036Y037663D02*
X003166Y037663D01*
X003166Y037594D02*
X003036Y037594D01*
X003036Y037525D02*
X003166Y037525D01*
X003166Y037457D02*
X003036Y037457D01*
X003004Y037388D02*
X003198Y037388D01*
X003267Y037320D02*
X002935Y037320D01*
X002866Y037251D02*
X003335Y037251D01*
X003404Y037183D02*
X002798Y037183D01*
X002840Y036977D02*
X003362Y036977D01*
X003293Y036909D02*
X002908Y036909D01*
X002977Y036840D02*
X003225Y036840D01*
X003166Y036771D02*
X003036Y036771D01*
X003036Y036703D02*
X003166Y036703D01*
X003166Y036634D02*
X003036Y036634D01*
X003036Y036566D02*
X003166Y036566D01*
X003166Y036497D02*
X003036Y036497D01*
X003036Y036429D02*
X003166Y036429D01*
X003226Y036360D02*
X002975Y036360D01*
X002907Y036292D02*
X003295Y036292D01*
X003363Y036223D02*
X002838Y036223D01*
X002799Y036017D02*
X003402Y036017D01*
X003421Y036036D02*
X003166Y035781D01*
X003166Y035421D01*
X003421Y035166D01*
X003781Y035166D01*
X004036Y035421D01*
X004036Y035781D01*
X003781Y036036D01*
X003421Y036036D01*
X003334Y035949D02*
X002868Y035949D01*
X002936Y035880D02*
X003265Y035880D01*
X003197Y035812D02*
X003005Y035812D01*
X003036Y035743D02*
X003166Y035743D01*
X003166Y035675D02*
X003036Y035675D01*
X003036Y035606D02*
X003166Y035606D01*
X003166Y035538D02*
X003036Y035538D01*
X003036Y035469D02*
X003166Y035469D01*
X003186Y035401D02*
X003016Y035401D01*
X002947Y035332D02*
X003254Y035332D01*
X003323Y035264D02*
X002879Y035264D01*
X002810Y035195D02*
X003391Y035195D01*
X003421Y035036D02*
X003166Y034781D01*
X003166Y034421D01*
X003421Y034166D01*
X003781Y034166D01*
X004036Y034421D01*
X004036Y034781D01*
X003781Y035036D01*
X003421Y035036D01*
X003374Y034989D02*
X002827Y034989D01*
X002896Y034921D02*
X003306Y034921D01*
X003237Y034852D02*
X002964Y034852D01*
X003033Y034784D02*
X003169Y034784D01*
X003166Y034715D02*
X003036Y034715D01*
X003036Y034647D02*
X003166Y034647D01*
X003166Y034578D02*
X003036Y034578D01*
X003036Y034510D02*
X003166Y034510D01*
X003166Y034441D02*
X003036Y034441D01*
X002988Y034372D02*
X003214Y034372D01*
X003282Y034304D02*
X002919Y034304D01*
X002851Y034235D02*
X003351Y034235D01*
X003420Y034167D02*
X002782Y034167D01*
X002787Y034030D02*
X003415Y034030D01*
X003346Y033961D02*
X002856Y033961D01*
X002924Y033893D02*
X003277Y033893D01*
X003209Y033824D02*
X002993Y033824D01*
X003036Y033756D02*
X003166Y033756D01*
X003166Y033687D02*
X003036Y033687D01*
X003036Y033618D02*
X003166Y033618D01*
X003166Y033550D02*
X003036Y033550D01*
X003036Y033481D02*
X003166Y033481D01*
X003174Y033413D02*
X003028Y033413D01*
X002959Y033344D02*
X003242Y033344D01*
X003311Y033276D02*
X002891Y033276D01*
X002822Y033207D02*
X003379Y033207D01*
X003782Y034167D02*
X008255Y034167D01*
X008187Y034235D02*
X003851Y034235D01*
X003919Y034304D02*
X008042Y034304D01*
X007929Y034372D02*
X003988Y034372D01*
X004036Y034441D02*
X007869Y034441D01*
X007841Y034510D02*
X004036Y034510D01*
X004036Y034578D02*
X007826Y034578D01*
X007826Y034647D02*
X004036Y034647D01*
X004036Y034715D02*
X007842Y034715D01*
X007871Y034784D02*
X004033Y034784D01*
X003964Y034852D02*
X007933Y034852D01*
X008050Y034921D02*
X003896Y034921D01*
X003827Y034989D02*
X008751Y034989D01*
X008751Y034921D02*
X008252Y034921D01*
X008751Y035195D02*
X003810Y035195D01*
X003879Y035264D02*
X008751Y035264D01*
X008751Y035332D02*
X003947Y035332D01*
X004016Y035401D02*
X008751Y035401D01*
X008751Y035469D02*
X004036Y035469D01*
X004036Y035538D02*
X008751Y035538D01*
X008751Y035606D02*
X004036Y035606D01*
X004036Y035675D02*
X008751Y035675D01*
X008751Y035743D02*
X004036Y035743D01*
X004005Y035812D02*
X008751Y035812D01*
X008751Y035880D02*
X003936Y035880D01*
X003868Y035949D02*
X008751Y035949D01*
X008751Y036017D02*
X003799Y036017D01*
X003908Y036909D02*
X008751Y036909D01*
X008751Y036977D02*
X003840Y036977D01*
X003798Y037183D02*
X008751Y037183D01*
X008751Y037251D02*
X003866Y037251D01*
X003935Y037320D02*
X008751Y037320D01*
X008751Y037388D02*
X004004Y037388D01*
X004036Y037457D02*
X008751Y037457D01*
X008751Y037525D02*
X004036Y037525D01*
X004036Y037594D02*
X008751Y037594D01*
X008751Y037663D02*
X004036Y037663D01*
X004036Y037731D02*
X008751Y037731D01*
X008751Y037800D02*
X004017Y037800D01*
X003949Y037868D02*
X008751Y037868D01*
X008751Y037937D02*
X003880Y037937D01*
X003811Y038005D02*
X008751Y038005D01*
X008751Y038074D02*
X001461Y038074D01*
X001461Y038142D02*
X008751Y038142D01*
X008751Y038211D02*
X003826Y038211D01*
X003895Y038279D02*
X008751Y038279D01*
X008751Y038348D02*
X003963Y038348D01*
X004032Y038416D02*
X008751Y038416D01*
X008751Y038485D02*
X004036Y038485D01*
X004036Y038554D02*
X008751Y038554D01*
X008751Y038622D02*
X004036Y038622D01*
X004036Y038691D02*
X008751Y038691D01*
X008751Y038759D02*
X004036Y038759D01*
X003989Y038828D02*
X008751Y038828D01*
X008751Y038896D02*
X003920Y038896D01*
X003852Y038965D02*
X008751Y038965D01*
X008751Y039033D02*
X003783Y039033D01*
X003182Y041432D02*
X003094Y041432D01*
X003116Y041501D02*
X003251Y041501D01*
X003319Y041569D02*
X003116Y041569D01*
X003099Y041638D02*
X003388Y041638D01*
X003456Y041707D02*
X003068Y041707D01*
X002999Y041775D02*
X003525Y041775D01*
X002418Y039033D02*
X001461Y039033D01*
X001461Y038965D02*
X002350Y038965D01*
X002281Y038896D02*
X001461Y038896D01*
X001461Y038828D02*
X002213Y038828D01*
X002166Y038759D02*
X001461Y038759D01*
X001461Y038691D02*
X002166Y038691D01*
X002166Y038622D02*
X001461Y038622D01*
X001461Y038554D02*
X002166Y038554D01*
X002166Y038485D02*
X001461Y038485D01*
X001461Y038416D02*
X002170Y038416D01*
X002238Y038348D02*
X001461Y038348D01*
X001461Y038279D02*
X002307Y038279D01*
X002376Y038211D02*
X001461Y038211D01*
X001461Y038005D02*
X002390Y038005D01*
X002322Y037937D02*
X001461Y037937D01*
X001461Y037868D02*
X002253Y037868D01*
X002184Y037800D02*
X001461Y037800D01*
X001461Y037731D02*
X002166Y037731D01*
X002166Y037663D02*
X001461Y037663D01*
X001461Y037594D02*
X002166Y037594D01*
X002166Y037525D02*
X001461Y037525D01*
X001461Y037457D02*
X002166Y037457D01*
X002198Y037388D02*
X001461Y037388D01*
X001461Y037320D02*
X002267Y037320D01*
X002335Y037251D02*
X001461Y037251D01*
X001461Y037183D02*
X002404Y037183D01*
X002362Y036977D02*
X001461Y036977D01*
X001461Y036909D02*
X002293Y036909D01*
X002225Y036840D02*
X001461Y036840D01*
X001461Y036771D02*
X002166Y036771D01*
X002166Y036703D02*
X001461Y036703D01*
X001461Y036634D02*
X002166Y036634D01*
X002166Y036566D02*
X001461Y036566D01*
X001461Y036497D02*
X002166Y036497D01*
X002166Y036429D02*
X001461Y036429D01*
X001461Y036360D02*
X002226Y036360D01*
X002295Y036292D02*
X001461Y036292D01*
X001461Y036086D02*
X008751Y036086D01*
X008751Y037046D02*
X001461Y037046D01*
X001461Y037114D02*
X008751Y037114D01*
X009749Y038759D02*
X009927Y038759D01*
X009831Y038828D02*
X009817Y038828D01*
X008261Y033139D02*
X001461Y033139D01*
X001461Y033207D02*
X002379Y033207D01*
X002311Y033276D02*
X001461Y033276D01*
X001461Y033344D02*
X002242Y033344D01*
X002174Y033413D02*
X001461Y033413D01*
X001461Y033481D02*
X002166Y033481D01*
X002166Y033550D02*
X001461Y033550D01*
X001461Y033618D02*
X002166Y033618D01*
X002166Y033687D02*
X001461Y033687D01*
X001461Y033756D02*
X002166Y033756D01*
X002209Y033824D02*
X001461Y033824D01*
X001461Y033893D02*
X002277Y033893D01*
X002346Y033961D02*
X001461Y033961D01*
X002566Y024022D02*
X002636Y024022D01*
X002636Y023954D02*
X002566Y023954D01*
X002566Y023885D02*
X002636Y023885D01*
X002636Y023817D02*
X002566Y023817D01*
X002566Y023748D02*
X002636Y023748D01*
X002636Y023680D02*
X002566Y023680D01*
X002566Y023543D02*
X002636Y023543D01*
X002636Y023474D02*
X002566Y023474D01*
X002566Y023406D02*
X002636Y023406D01*
X002636Y023337D02*
X002566Y023337D01*
X002566Y023268D02*
X002636Y023268D01*
X002636Y023200D02*
X002566Y023200D01*
X003871Y018601D02*
X003311Y018041D01*
X003311Y017131D01*
X014234Y041569D02*
X017101Y041569D01*
X017101Y041638D02*
X014340Y041638D01*
X014409Y041707D02*
X017101Y041707D01*
X017101Y041775D02*
X014477Y041775D01*
X014531Y041844D02*
X017101Y041844D01*
X017101Y041912D02*
X014559Y041912D01*
X014588Y041981D02*
X017101Y041981D01*
X017101Y042049D02*
X014616Y042049D01*
X014641Y042118D02*
X017101Y042118D01*
X017101Y042186D02*
X014641Y042186D01*
X014641Y042255D02*
X017101Y042255D01*
X017101Y042323D02*
X014641Y042323D01*
X014641Y042392D02*
X017101Y042392D01*
X017101Y042461D02*
X014625Y042461D01*
X014597Y042529D02*
X017101Y042529D01*
X017101Y042598D02*
X014568Y042598D01*
X014540Y042666D02*
X017101Y042666D01*
X017101Y042735D02*
X014499Y042735D01*
X014430Y042803D02*
X017101Y042803D01*
X017101Y042872D02*
X014362Y042872D01*
X014286Y042940D02*
X017101Y042940D01*
X017101Y043009D02*
X014121Y043009D01*
X013168Y043352D02*
X017101Y043352D01*
X017101Y043420D02*
X013186Y043420D01*
X013186Y043489D02*
X017101Y043489D01*
X017101Y043557D02*
X013185Y043557D01*
X013157Y043626D02*
X017101Y043626D01*
X017101Y043694D02*
X013129Y043694D01*
X013066Y043763D02*
X017101Y043763D01*
X017101Y043831D02*
X012980Y043831D01*
X012546Y045888D02*
X004371Y045888D01*
X014451Y039231D02*
X015081Y039231D01*
X015361Y038951D01*
X015291Y039231D02*
X015501Y039231D01*
X015711Y039021D01*
X015711Y038811D01*
X015361Y038461D01*
X015291Y039231D02*
X015151Y039371D01*
X014521Y039371D01*
X014816Y038348D02*
X014886Y038348D01*
X014886Y038279D02*
X014816Y038279D01*
X014816Y038211D02*
X014886Y038211D01*
X014886Y038142D02*
X014816Y038142D01*
X014816Y038074D02*
X014886Y038074D01*
X014886Y037937D02*
X014816Y037937D01*
X014816Y037868D02*
X014886Y037868D01*
X014886Y037800D02*
X014816Y037800D01*
X014816Y037731D02*
X014886Y037731D01*
X014886Y037663D02*
X014816Y037663D01*
D20*
X015361Y038461D03*
X015361Y038951D03*
X015921Y038461D03*
X014241Y040771D03*
X014241Y041191D03*
X013821Y040771D03*
X011091Y040421D03*
X010951Y040071D03*
X010811Y039721D03*
X010041Y039021D03*
X009321Y042031D03*
X008921Y043571D03*
X007871Y044971D03*
X008131Y040631D03*
X007331Y035451D03*
X008101Y032441D03*
X009201Y031811D03*
X006851Y030851D03*
X004721Y041751D03*
X004651Y042171D03*
X002831Y041541D03*
X001851Y041471D03*
X001851Y041891D03*
X003871Y018601D03*
X003311Y017131D03*
X002401Y016221D03*
X001571Y015921D03*
X005211Y016621D03*
X006051Y017601D03*
X006541Y016691D03*
X006601Y018601D03*
X006351Y007601D03*
X008061Y006261D03*
X003181Y003881D03*
X003111Y003461D03*
X014311Y011371D03*
X014311Y014171D03*
X015641Y016971D03*
D21*
X012351Y025601D03*
X007851Y025601D03*
D22*
X008031Y038011D03*
X006601Y046821D03*
X007051Y048451D03*
X004161Y045561D03*
D23*
X004161Y042871D03*
X004381Y041391D03*
X006601Y036851D03*
X008151Y034611D03*
X008501Y031181D03*
X009551Y039021D03*
X011861Y039231D03*
X009851Y045851D03*
X012141Y024671D03*
D24*
X008351Y022351D03*
X016481Y028661D03*
D25*
X009551Y039021D02*
X010601Y040071D01*
X010601Y042451D01*
X011651Y043501D01*
X012756Y043501D01*
X012781Y043476D01*
D26*
X008151Y034611D02*
X008501Y034261D01*
X008501Y031181D01*
X011301Y028381D01*
X011301Y025091D01*
X011721Y024671D01*
X012141Y024671D01*
D27*
X004161Y042871D02*
X004161Y045561D01*
M02*
